<svg id="whole-fox" xmlns="http://www.w3.org/2000/svg" viewBox="0 0 292.96 225.66"><defs><style>.cls-1{fill:#b3a78f;opacity:0.15;}.cls-2,.cls-6{fill:#cd675b;}.cls-3{fill:#efe1d5;}.cls-10,.cls-4,.cls-5{fill:none;stroke-linecap:round;stroke-linejoin:round;}.cls-4{stroke:#e78072;}.cls-5{stroke:#eacbb9;}.cls-6{opacity:0.55;}.cls-7{fill:#e78072;}.cls-8{fill:#655b51;}.cls-9{fill:#f1d2be;}.cls-10{stroke:#a16d58;}.cls-11{fill:#0f1110;}</style></defs><title>fox</title><ellipse class="cls-1" cx="137.69" cy="216.46" rx="137.69" ry="9.21"/><g id="fox-tail"><path class="cls-2" d="M252.49,103.76a16.31,16.31,0,0,0,2.23-11.66,24.4,24.4,0,0,1-10.5,8.92,60.4,60.4,0,0,0-2.93-14.93A41.17,41.17,0,0,1,224,99.32a28.67,28.67,0,0,0-4.24-14.72,33.33,33.33,0,0,1-10.21,7.05,19.32,19.32,0,0,0,0-11.12A37.57,37.57,0,0,1,197.7,91.09a30.58,30.58,0,0,0-3-13.92,80.27,80.27,0,0,0-6.44,13.13,99.06,99.06,0,0,1-7.49-16.36c-2,11.81-2,24.32-1.76,36.32.37,22.1.09,46-13.08,63.73-4.16,5.62-9.66,10.46-16.28,12.72q-2.25,4.28-4.88,8.34a125.09,125.09,0,0,0,72.58,4.09c16.92-4.15,33.5-12.37,44-26.29,13.05-17.36,14.71-40.84,12-62.39-1-7.82-2.51-15.69-3.19-23.54A48.31,48.31,0,0,1,252.49,103.76Z" transform="translate(0.37 0)"/><path class="cls-3" d="M278.2,29.35c-8.24-5.52-18.35-7.64-28.27-8.06-22.06-.93-45.57,7.09-58.4,25.07-5.86,8.21-9,17.65-10.74,27.58a99.06,99.06,0,0,0,7.49,16.36,80.27,80.27,0,0,1,6.44-13.13,30.58,30.58,0,0,1,3,13.92,37.57,37.57,0,0,0,11.81-10.56,19.32,19.32,0,0,1,0,11.12,33.33,33.33,0,0,0,10.21-7.05A28.67,28.67,0,0,1,224,99.32a41.17,41.17,0,0,0,17.3-13.23A60.4,60.4,0,0,1,244.22,101a24.4,24.4,0,0,0,10.5-8.92,16.31,16.31,0,0,1-2.23,11.66,48.31,48.31,0,0,0,17.62-16.84,70.23,70.23,0,0,1,.3-16.52c.83-5.43,2.68-11,6.72-14.67s10.73-4.91,15.06-1.53C292.51,44.28,286.44,34.88,278.2,29.35Z" transform="translate(0.37 0)"/><path class="cls-4" d="M266,114a18.82,18.82,0,0,1,.15,7.4" transform="translate(0.37 0)"/><path class="cls-4" d="M262.83,118.12q-.27,3-.52,6" transform="translate(0.37 0)"/><path class="cls-4" d="M265.12,129a8.85,8.85,0,0,1-1.49,4.84" transform="translate(0.37 0)"/><path class="cls-4" d="M259.5,127.81a14.36,14.36,0,0,1-1.47,4.92" transform="translate(0.37 0)"/><path class="cls-4" d="M259.28,137.73a11,11,0,0,1-2.47,4.91" transform="translate(0.37 0)"/><path class="cls-4" d="M263.66,140a9.65,9.65,0,0,1-3.07,5" transform="translate(0.37 0)"/><path class="cls-4" d="M251.59,139.08A16.84,16.84,0,0,1,248.2,144" transform="translate(0.37 0)"/><path class="cls-4" d="M253.31,129.43a18.27,18.27,0,0,1-1.37,5.45c-.14.32-.46.7-.75.52" transform="translate(0.37 0)"/><path class="cls-4" d="M256.49,118.13a26.28,26.28,0,0,1-1,5.57" transform="translate(0.37 0)"/><path class="cls-4" d="M250.26,122.51a17.78,17.78,0,0,1-.49,5.34c-.19.74-.59,1.6-1.35,1.62" transform="translate(0.37 0)"/><path class="cls-4" d="M245.32,138a5.17,5.17,0,0,1-2.1,4.05" transform="translate(0.37 0)"/><path class="cls-4" d="M253.34,149.17a17.16,17.16,0,0,1-3.21,4.32" transform="translate(0.37 0)"/><path class="cls-4" d="M257.9,150.86a8.06,8.06,0,0,1-2.26,4.91" transform="translate(0.37 0)"/><path class="cls-4" d="M262.06,149.94a9.54,9.54,0,0,1-1.41,3.7" transform="translate(0.37 0)"/><path class="cls-4" d="M264.77,156.61a21.35,21.35,0,0,1-3.42,5.33" transform="translate(0.37 0)"/><path class="cls-4" d="M244,150.14a9.93,9.93,0,0,1-2.69,3.74" transform="translate(0.37 0)"/><path class="cls-4" d="M246.25,151.73a13.56,13.56,0,0,1-2.83,3.81" transform="translate(0.37 0)"/><path class="cls-4" d="M248.86,159.38a6.86,6.86,0,0,1-3.39,3.77" transform="translate(0.37 0)"/><path class="cls-4" d="M248.88,168.6a14.05,14.05,0,0,1-5.06,3.7" transform="translate(0.37 0)"/><path class="cls-4" d="M242.93,167.48a10,10,0,0,1-2.81,2.49" transform="translate(0.37 0)"/><path class="cls-4" d="M253,167.68a5,5,0,0,1-2.68,3.84" transform="translate(0.37 0)"/><path class="cls-4" d="M240.33,133.1a12.53,12.53,0,0,1-3.65,5.55" transform="translate(0.37 0)"/><path class="cls-4" d="M247.48,109.15a10.66,10.66,0,0,1-.88,5.54" transform="translate(0.37 0)"/><path class="cls-4" d="M260.41,106.84v4.38" transform="translate(0.37 0)"/><path class="cls-4" d="M225.39,183.87a10.21,10.21,0,0,0,4.85-2.8" transform="translate(0.37 0)"/><path class="cls-4" d="M227.92,185.91a5.83,5.83,0,0,0,4-2.26" transform="translate(0.37 0)"/><path class="cls-4" d="M235.34,186.21a15.64,15.64,0,0,0,3.7-3" transform="translate(0.37 0)"/><path class="cls-4" d="M235.52,179.67a9.09,9.09,0,0,0,4.17-3.68" transform="translate(0.37 0)"/><path class="cls-4" d="M196.1,191.05a12,12,0,0,0,6.39-.94" transform="translate(0.37 0)"/><path class="cls-4" d="M201.41,193.75a11,11,0,0,0,4.38-1.42" transform="translate(0.37 0)"/><path class="cls-4" d="M207.41,187.56a9.07,9.07,0,0,0,4.74-1.79" transform="translate(0.37 0)"/><path class="cls-4" d="M207.62,181.63a4.5,4.5,0,0,0,4.11-2.09" transform="translate(0.37 0)"/><path class="cls-4" d="M220.36,178.37a32.51,32.51,0,0,0,3.6-2.44" transform="translate(0.37 0)"/><path class="cls-4" d="M216.89,173.76a10.37,10.37,0,0,0,4.07-2.89" transform="translate(0.37 0)"/><path class="cls-4" d="M228.16,167.75a4.4,4.4,0,0,0,3.16-2.62" transform="translate(0.37 0)"/><path class="cls-4" d="M230,170.64a11.44,11.44,0,0,0,3.81-3.83" transform="translate(0.37 0)"/><path class="cls-4" d="M231.14,157.55a4.65,4.65,0,0,0,2.15-3.22" transform="translate(0.37 0)"/><path class="cls-4" d="M215.27,163.15a5.27,5.27,0,0,0,2.75-3.07" transform="translate(0.37 0)"/><path class="cls-4" d="M230.86,114a9.89,9.89,0,0,1-2.13,6.78" transform="translate(0.37 0)"/><path class="cls-4" d="M233,118.37a10.87,10.87,0,0,1-2.07,5.09" transform="translate(0.37 0)"/><path class="cls-4" d="M210.88,149.71a13.55,13.55,0,0,1-3.49,6.67" transform="translate(0.37 0)"/><path class="cls-4" d="M212.32,153.87a8.26,8.26,0,0,1-2.46,4.27" transform="translate(0.37 0)"/><path class="cls-4" d="M179,165.13a8.71,8.71,0,0,0,1.22-3.9" transform="translate(0.37 0)"/><path class="cls-4" d="M180.45,168.84a16.46,16.46,0,0,0,2.6-5.52" transform="translate(0.37 0)"/><path class="cls-4" d="M183.49,158.94a45.1,45.1,0,0,0,1.45-7.17" transform="translate(0.37 0)"/><path class="cls-4" d="M181.31,154.08c.21-2.15.43-4.31.64-6.46" transform="translate(0.37 0)"/><path class="cls-4" d="M186,147.16a19.19,19.19,0,0,1-.18-4.15" transform="translate(0.37 0)"/><path class="cls-4" d="M188.76,153.4a16.68,16.68,0,0,0,.42-5.54" transform="translate(0.37 0)"/><path class="cls-4" d="M188.21,160.26a5.75,5.75,0,0,0,1-3.64" transform="translate(0.37 0)"/><path class="cls-4" d="M172.8,174.49a5,5,0,0,0,3.32-3.57" transform="translate(0.37 0)"/><path class="cls-4" d="M175.59,179a8.54,8.54,0,0,0,3.25-3.44" transform="translate(0.37 0)"/><path class="cls-4" d="M185.06,131l.27,4.14" transform="translate(0.37 0)"/><path class="cls-4" d="M188.67,133.59a38.08,38.08,0,0,1,.56,5.74" transform="translate(0.37 0)"/><path class="cls-4" d="M164.79,182.25a11.52,11.52,0,0,0,4.16-2.79" transform="translate(0.37 0)"/><path class="cls-4" d="M163.85,186.18a12.55,12.55,0,0,0,4.58-1.5" transform="translate(0.37 0)"/><path class="cls-4" d="M187.86,187.82l4.13-1.88" transform="translate(0.37 0)"/><path class="cls-4" d="M193.6,187.57a17.15,17.15,0,0,0,4.33-2.64" transform="translate(0.37 0)"/><path class="cls-4" d="M195.25,181.84a10.53,10.53,0,0,0,3.42-3.54" transform="translate(0.37 0)"/><path class="cls-4" d="M181.6,187.06a13,13,0,0,0,5-2.89" transform="translate(0.37 0)"/><path class="cls-4" d="M177.91,191.87a7.72,7.72,0,0,0,6.42-.5" transform="translate(0.37 0)"/><path class="cls-5" d="M260.38,65a18,18,0,0,1,2.23-5.58" transform="translate(0.37 0)"/><path class="cls-5" d="M256.33,65a10.32,10.32,0,0,1,2.08-5.12" transform="translate(0.37 0)"/><path class="cls-5" d="M250.65,65a12.39,12.39,0,0,1,2.85-4.64" transform="translate(0.37 0)"/><path class="cls-5" d="M257.84,55.14a9.73,9.73,0,0,1,4.28-2.76" transform="translate(0.37 0)"/><path class="cls-5" d="M250.6,56.31a22.24,22.24,0,0,1,4.27-3.46" transform="translate(0.37 0)"/><path class="cls-5" d="M244.08,69.47a12.7,12.7,0,0,1,1.75-5.1" transform="translate(0.37 0)"/><path class="cls-5" d="M247.14,74.38a12.43,12.43,0,0,1,1-5.14" transform="translate(0.37 0)"/><path class="cls-5" d="M251.73,77.67a14.39,14.39,0,0,1,.15-5.15" transform="translate(0.37 0)"/><path class="cls-5" d="M257.78,80.75a9.36,9.36,0,0,1-.3-5.66" transform="translate(0.37 0)"/><path class="cls-5" d="M262,85.64a21.54,21.54,0,0,1-.88-5.64" transform="translate(0.37 0)"/><path class="cls-5" d="M253.58,86.6a9,9,0,0,1-.56-4.26" transform="translate(0.37 0)"/><path class="cls-5" d="M259.92,48.6l1.63-1.07c1.15-.77,2.45-1.57,3.82-1.37" transform="translate(0.37 0)"/><path class="cls-5" d="M266.49,52.07a5.59,5.59,0,0,1,3.82-1.3" transform="translate(0.37 0)"/><path class="cls-5" d="M236.36,78.83a10.53,10.53,0,0,1,1.53-6" transform="translate(0.37 0)"/><path class="cls-5" d="M239.42,67.13a4.67,4.67,0,0,1,1.65-3.5" transform="translate(0.37 0)"/><path class="cls-5" d="M234.23,73a14.66,14.66,0,0,1,2.16-6.07" transform="translate(0.37 0)"/><path class="cls-5" d="M241.32,57.31a4.45,4.45,0,0,1,2.31-2.6" transform="translate(0.37 0)"/><path class="cls-5" d="M228,64.56a4.37,4.37,0,0,1,2.09-3.05" transform="translate(0.37 0)"/><path class="cls-5" d="M252.59,45.69a12.15,12.15,0,0,1,5.31-2.26" transform="translate(0.37 0)"/><path class="cls-5" d="M194.46,57.76a12.61,12.61,0,0,1,2.26-4.11" transform="translate(0.37 0)"/><path class="cls-5" d="M197,61.27a17.69,17.69,0,0,1,1.48-4.42" transform="translate(0.37 0)"/><path class="cls-5" d="M191.23,66.67a15,15,0,0,1,.78-5.36" transform="translate(0.37 0)"/><path class="cls-5" d="M187.21,70.87l.17-6.08" transform="translate(0.37 0)"/><path class="cls-5" d="M198.73,47a20.19,20.19,0,0,1,3.73-3.3" transform="translate(0.37 0)"/><path class="cls-5" d="M200.87,50.2a6.75,6.75,0,0,1,3-3.2" transform="translate(0.37 0)"/><path class="cls-5" d="M204.57,51.45a13.63,13.63,0,0,1,3.77-3.24" transform="translate(0.37 0)"/><path class="cls-5" d="M207.6,41.62a9.56,9.56,0,0,1,4.92-2.36" transform="translate(0.37 0)"/><path class="cls-5" d="M198.82,71.54a5.32,5.32,0,0,1,.05-4" transform="translate(0.37 0)"/><path class="cls-6" d="M212.51,107.89c.8-.07,1-.59,1.48-.87C213.08,107,212.9,107.53,212.51,107.89Z" transform="translate(0.37 0)"/><path class="cls-6" d="M240,165.91c-3.91-.66-.59,2,0,0Z" transform="translate(0.37 0)"/><path class="cls-2" d="M226.88,174.49c1,0-5.9-1.58,0,0Z" transform="translate(0.37 0)"/><path class="cls-2" d="M225.89,186.59c-1.74-.1-1.38.92,0,0Z" transform="translate(0.37 0)"/><path class="cls-6" d="M159.23,188.17c-.49,0,0,4,0,0Z" transform="translate(0.37 0)"/><path class="cls-6" d="M181.78,160.82c-1.06.09-4.17.74,0,0Z" transform="translate(0.37 0)"/><path class="cls-6" d="M206.31,133.31c.51,0,.82-1.1,0,0Z" transform="translate(0.37 0)"/><path class="cls-2" d="M195.9,152.06c2.74-.57-1-.9,0,0Z" transform="translate(0.37 0)"/><path class="cls-6" d="M183.51,196.93c-.12,0-1.45.2,0,0Z" transform="translate(0.37 0)"/><path class="cls-6" d="M202.6,194.48V194C201.45,193.74,201.24,194.76,202.6,194.48Z" transform="translate(0.37 0)"/><path class="cls-6" d="M192.68,122.61c-4.39-.83,1.22,3,0,0Z" transform="translate(0.37 0)"/><path class="cls-6" d="M195.9,114.2c1.23,0,.54-1.5,0,0Z" transform="translate(0.37 0)"/><path class="cls-2" d="M214.24,178.35c.15,0-.12,0,0,0Z" transform="translate(0.37 0)"/><path class="cls-6" d="M174.1,174.84c-2.36.6,0,1.77,0,0Z" transform="translate(0.37 0)"/><path class="cls-2" d="M203.09,173.79c-3.11,0,0,1,0,0Z" transform="translate(0.37 0)"/><path class="cls-2" d="M205.57,170.64c-4.8.14,4.23,2.84,0,0Z" transform="translate(0.37 0)"/><path class="cls-2" d="M245.22,171.87c6,0-3.16-1.38,0,0Z" transform="translate(0.37 0)"/><path class="cls-6" d="M176.83,167.31c-.08.46.33.57,1,.52C177.89,167.37,177.47,167.26,176.83,167.31Z" transform="translate(0.37 0)"/><path class="cls-6" d="M247.45,159.6c0-3.12-2.78.39,0,0Z" transform="translate(0.37 0)"/><path class="cls-6" d="M230.1,156.09c3.64-1.7-3.25,0,0,0Z" transform="translate(0.37 0)"/><path class="cls-6" d="M211,155.57c-1-.43-.07,1.61,0,0Z" transform="translate(0.37 0)"/><path class="cls-6" d="M196.65,153.81c0,1.6,1.46-.7,0,0Z" transform="translate(0.37 0)"/><path class="cls-6" d="M235.31,140.84c.24-.05-3.39-.76,0,0Z" transform="translate(0.37 0)"/><path class="cls-2" d="M201.85,148.38c.26-.59-.77-.27-1.24-.35C200.5,148.52,201.94,149.5,201.85,148.38Z" transform="translate(0.37 0)"/><path class="cls-6" d="M200.12,143.65a2,2,0,0,0,0,.29l.08,0c0,.08,0,.15-.05.21C200.62,145.72,202.35,141.62,200.12,143.65Z" transform="translate(0.37 0)"/><path class="cls-2" d="M257.61,140.32c-.27-1.17-1.37.1,0,0Z" transform="translate(0.37 0)"/><path class="cls-2" d="M242.25,132.08c-.68-.16-3.06,1.43,0,0Z" transform="translate(0.37 0)"/><path class="cls-6" d="M186.73,131.55c.16-.47-2.88,1.07,0,0Z" transform="translate(0.37 0)"/><path class="cls-2" d="M250.17,130.5c-1.74,0-.49,2.1,0,0Z" transform="translate(0.37 0)"/><path class="cls-6" d="M192.37,128.89v-.08C191.47,130.48,192,129.62,192.37,128.89Z" transform="translate(0.37 0)"/><path class="cls-6" d="M192.68,128.22l-.27.52v.07A2.56,2.56,0,0,0,192.68,128.22Z" transform="translate(0.37 0)"/><path class="cls-6" d="M262.32,113.15c0-2.11-2.25.74,0,0Z" transform="translate(0.37 0)"/><path class="cls-6" d="M219.7,105.27c3.94-.66-1.61-.13,0,0Z" transform="translate(0.37 0)"/><path class="cls-6" d="M246,99.66c.21.94,2.58-.26,0,0Z" transform="translate(0.37 0)"/><path class="cls-2" d="M260.09,94.05c.14,2,2.49-.24,0,0Z" transform="translate(0.37 0)"/><path class="cls-2" d="M162.2,192.2c4.29-1.27-2.81.11,0,0Z" transform="translate(0.37 0)"/><path class="cls-6" d="M219.2,188.17c-1,.05,2.29,0,0,0Z" transform="translate(0.37 0)"/><path class="cls-6" d="M170.13,187.81c0,1.31,0-1.62,0,0Z" transform="translate(0.37 0)"/><path class="cls-6" d="M220.19,186.59c1.08-1.16-2.11,0,0,0Z" transform="translate(0.37 0)"/><path class="cls-2" d="M217.22,182.21c.11,0-1.38-1.13,0,0Z" transform="translate(0.37 0)"/><path class="cls-6" d="M177.57,179.05c.71-3.61-3.56,0,0,0Z" transform="translate(0.37 0)"/><path class="cls-6" d="M197.39,172c-1.69.14.21,0,0,0Z" transform="translate(0.37 0)"/><path class="cls-6" d="M187,171.34c-.06.2,0,0,0,0Z" transform="translate(0.37 0)"/><path class="cls-6" d="M237,162.4c-4.7,2.83,1.57.36,0,0Z" transform="translate(0.37 0)"/><path class="cls-2" d="M225.15,161.88c-4.07.78,2.68-.12,0,0Z" transform="translate(0.37 0)"/><path class="cls-6" d="M261.57,154.86c-.07,1,2.37.34,0,0Z" transform="translate(0.37 0)"/><path class="cls-2" d="M204.33,146.1c3.69-.39-3-2.71,0,0Z" transform="translate(0.37 0)"/><path class="cls-2" d="M195.16,118.41c-.54-.77.21,1.87,0,0Z" transform="translate(0.37 0)"/><path class="cls-6" d="M248.44,108.42c-.24,1.6.53,0,0,0Z" transform="translate(0.37 0)"/><path class="cls-6" d="M191.44,107c0-1.7-2.18.32,0,0Z" transform="translate(0.37 0)"/><path class="cls-6" d="M194.91,101.93c2,0-1.34-.87,0,0Z" transform="translate(0.37 0)"/><path class="cls-2" d="M164.68,191.67c0,4.08,2.37-.12,0,0Z" transform="translate(0.37 0)"/><path class="cls-6" d="M184,188.19c-.48,0-1.3,1.3-.5,1.11C184.15,189.27,184,188.68,184,188.19Z" transform="translate(0.37 0)"/><path class="cls-6" d="M183.51,186.15c-3-.61-.69,1,0,0Z" transform="translate(0.37 0)"/><path class="cls-6" d="M174.35,165.6Z" transform="translate(0.37 0)"/><path class="cls-2" d="M197.39,163c2.43.62,0,0,0,0Z" transform="translate(0.37 0)"/><path class="cls-2" d="M184.26,160.61c.18-.8-1.69.13,0,0Z" transform="translate(0.37 0)"/><path class="cls-2" d="M271.49,148.21c-1.84.4,2.37,0,0,0Z" transform="translate(0.37 0)"/><path class="cls-6" d="M249.43,141.17c.52-1.26-.51-.4,0,0Z" transform="translate(0.37 0)"/><path class="cls-2" d="M249.93,134c-.4.29-.07,1,.24,1.3C250.66,134.79,250.87,134.15,249.93,134Z" transform="translate(0.37 0)"/><path class="cls-2" d="M248.94,121.92c2.42,1.65,1.14-2.37,0,0Z" transform="translate(0.37 0)"/><path class="cls-6" d="M181.53,117.66c-3.16,0-.87,1.77,0,0Z" transform="translate(0.37 0)"/><path class="cls-6" d="M199.37,114.52c1-.15.26-1.35,0,0Z" transform="translate(0.37 0)"/><path class="cls-6" d="M219.94,110.45c-2,.32,0,.26,0,0Z" transform="translate(0.37 0)"/><path class="cls-6" d="M252.16,109.89c3.39-.61,1.2-2.07,0,0Z" transform="translate(0.37 0)"/><path class="cls-6" d="M247.2,108s-3.7,3.65,0,0Z" transform="translate(0.37 0)"/><path class="cls-2" d="M201.36,106.56v1.11C202,107.75,202.63,106.28,201.36,106.56Z" transform="translate(0.37 0)"/><path class="cls-6" d="M255.13,101c-3.24,0-1.8,1.73,0,0Z" transform="translate(0.37 0)"/><path class="cls-6" d="M259.1,102.49c.14-2.16-3.42,0,0,0Z" transform="translate(0.37 0)"/><path class="cls-6" d="M225.64,43.44c-3.14.22,0,.53,0,0Z" transform="translate(0.37 0)"/><path class="cls-2" d="M232.58,96.93c.26,0-.08-1.63,0,0Z" transform="translate(0.37 0)"/><path class="cls-2" d="M269,86.57c-.08.25-.35.35-.25.74C269.73,87.61,269.76,85.92,269,86.57Z" transform="translate(0.37 0)"/><path class="cls-2" d="M235.55,81.75c0-4.14-1,.35,0,0Z" transform="translate(0.37 0)"/><path class="cls-6" d="M198.38,59.91c.42-1.08-2.86,0,0,0Z" transform="translate(0.37 0)"/><path class="cls-2" d="M259.35,79.16c2.52,0-2.5-.08,0,0Z" transform="translate(0.37 0)"/><path class="cls-6" d="M266.78,74.17c-2.64.19,5,0,0,0Z" transform="translate(0.37 0)"/><path class="cls-2" d="M224.65,62.32c2.26-2.66.26-1.77,0,0Z" transform="translate(0.37 0)"/><path class="cls-6" d="M220.19,54.18c0-1.31-2.21-.37,0,0Z" transform="translate(0.37 0)"/><path class="cls-6" d="M227.13,45.66c1.39.24,0-2,0,0Z" transform="translate(0.37 0)"/><path class="cls-6" d="M264.79,40.29c-2.33,1.38-.29.85,0,0Z" transform="translate(0.37 0)"/><path class="cls-6" d="M247,23.45c2.85,2.22,1.06-5.64,0,0Z" transform="translate(0.37 0)"/><path class="cls-6" d="M204.83,186.33c2.2-1-1.59-1.43,0,0Z" transform="translate(0.37 0)"/><path class="cls-6" d="M210,176.71a.7.7,0,0,1,.5.74C210.82,176,210.65,175.77,210,176.71Z" transform="translate(0.37 0)"/><path class="cls-2" d="M256.12,171.71c-7.89,1.68,1.31,6.63,0,0Z" transform="translate(0.37 0)"/><path class="cls-6" d="M222.42,149.69c-.74-2.7-3.77,1.28,0,0Z" transform="translate(0.37 0)"/><path class="cls-6" d="M251.67,136.36c-3.24.11,4.35,0,0,0Z" transform="translate(0.37 0)"/><path class="cls-2" d="M254.14,133.58c.13.42,2.06-.25,0,0Z" transform="translate(0.37 0)"/><path class="cls-6" d="M263.31,131.73c2.05,0,.25-2.49,0,0Z" transform="translate(0.37 0)"/><path class="cls-6" d="M231.59,130.25c-2,0,1.76.16,0,0Z" transform="translate(0.37 0)"/><path class="cls-6" d="M227.13,119c-1.6-1.8-1.37,3.87,0,0Z" transform="translate(0.37 0)"/><path class="cls-2" d="M198.13,117.85c-1.85,0,.65,0,0,0Z" transform="translate(0.37 0)"/><path class="cls-2" d="M252.66,113.41c5.54.57-2.5-.52,0,0Z" transform="translate(0.37 0)"/><path class="cls-6" d="M255.13,110.63Z" transform="translate(0.37 0)"/><path class="cls-6" d="M204.33,96.19c4.6.32-1.19-.18,0,0Z" transform="translate(0.37 0)"/><path class="cls-2" d="M267.77,84.72c3.21,0-1.73-2.55,0,0Z" transform="translate(0.37 0)"/><path class="cls-6" d="M263.81,66.76c0,.11,1.64-.55,0,0Z" transform="translate(0.37 0)"/><path class="cls-6" d="M273.72,60.1c-.28-1.62-3.83,0,0,0Z" transform="translate(0.37 0)"/><path class="cls-6" d="M229.85,54.54c1.91,0-1.38-.27,0,0Z" transform="translate(0.37 0)"/><path class="cls-2" d="M238.53,48.44c.6.28,3.52,0,0,0Z" transform="translate(0.37 0)"/><path class="cls-6" d="M269.26,37c0,2.55,2-1.31,0,0Z" transform="translate(0.37 0)"/><path class="cls-6" d="M256.37,34.55c.6-.37-.22-2.83,0,0Z" transform="translate(0.37 0)"/><path class="cls-6" d="M197.91,184.82c0-.9-.51-1.08-.88-1.47C197.11,184.15,197.63,184.32,197.91,184.82Z" transform="translate(0.37 0)"/><path class="cls-6" d="M202.32,112.88c-.61-.93-1.7.53,0,0Z" transform="translate(0.37 0)"/><path class="cls-6" d="M204.44,119.29c-.22-2.5-1.32,0,0,0Z" transform="translate(0.37 0)"/><path class="cls-6" d="M171.47,177.19c0,.51,1.1.81,0,0Z" transform="translate(0.37 0)"/><path class="cls-6" d="M182.23,163.64c.83-4.37-3,1.21,0,0Z" transform="translate(0.37 0)"/><path class="cls-6" d="M190.69,166.84c0,1.22,1.51.53,0,0Z" transform="translate(0.37 0)"/><path class="cls-6" d="M193,83.07c0-2.12-2.11.24,0,0Z" transform="translate(0.37 0)"/><path class="cls-2" d="M183.46,73.46c0,.28,2.82.16,0,0Z" transform="translate(0.37 0)"/><path class="cls-6" d="M176.58,163.64c-3.48-1.85-.06.06,0,0Z" transform="translate(0.37 0)"/><path class="cls-6" d="M199.67,190.5c.66,3.92.13-1.6,0,0Z" transform="translate(0.37 0)"/><path class="cls-6" d="M181.52,86c-.11-1.76-1.09.31,0,0Z" transform="translate(0.37 0)"/><path class="cls-2" d="M186.46,166.1c.77-.54-1.89.21,0,0Z" transform="translate(0.37 0)"/><path class="cls-6" d="M197.91,162.4c1.71,0-.32-2.17,0,0Z" transform="translate(0.37 0)"/><path class="cls-6" d="M204.79,94.89a2.16,2.16,0,0,0-1.59-1.47C203.62,94.06,204,94.75,204.79,94.89Z" transform="translate(0.37 0)"/><path class="cls-6" d="M203,165.85c0,2,.88-1.33,0,0Z" transform="translate(0.37 0)"/><path class="cls-6" d="M211.66,134.81c-1.93.32,0,1.06,0,0Z" transform="translate(0.37 0)"/><path class="cls-6" d="M187.21,152.55c0-3.14-1.78-.87,0,0Z" transform="translate(0.37 0)"/><path class="cls-6" d="M183.11,119.53c-1.28.85-.25,2.26,0,0Z" transform="translate(0.37 0)"/><path class="cls-6" d="M189.25,126.93c2.33-.85-.07-1.13,0,0Z" transform="translate(0.37 0)"/><path class="cls-6" d="M190.37,170.29c.15,1,1.35.26,0,0Z" transform="translate(0.37 0)"/><path class="cls-6" d="M192.42,58.92c-1.26-.64.08.78,0,0Z" transform="translate(0.37 0)"/><path class="cls-6" d="M194.46,190.74c-.32-2-.26,0,0,0Z" transform="translate(0.37 0)"/><path class="cls-6" d="M196.89,123c-.11-.92-3.51.18,0,0Z" transform="translate(0.37 0)"/><path class="cls-2" d="M198.38,172.26h-1.12C197.18,172.93,198.66,173.53,198.38,172.26Z" transform="translate(0.37 0)"/><path class="cls-2" d="M201,107.21c-.37.12.41,3.16,0,0Z" transform="translate(0.37 0)"/><path class="cls-6" d="M202.29,36.74c0-.17-1.39,0,0,0Z" transform="translate(0.37 0)"/><path class="cls-6" d="M206.75,49.31c.58.22-2.81-4,0,0Z" transform="translate(0.37 0)"/><path class="cls-2" d="M262.6,86c-.16,2.31,2.64,1.2,0,0Z" transform="translate(0.37 0)"/><path class="cls-6" d="M267.44,136c-1,0-1,.82,0,0Z" transform="translate(0.37 0)"/><path class="cls-6" d="M216.62,46.11c2-.18-.06-.43,0,0Z" transform="translate(0.37 0)"/><path class="cls-2" d="M220,36.25c0,2.84,1.31,0,0,0Z" transform="translate(0.37 0)"/><path class="cls-6" d="M245.29,169.3c1.09.42,0-2.84,0,0Z" transform="translate(0.37 0)"/><path class="cls-6" d="M229.47,134.81c3,.91-1-3.88,0,0Z" transform="translate(0.37 0)"/><path class="cls-2" d="M237.1,46.11c-2.28-2.87-.07,2.29,0,0Z" transform="translate(0.37 0)"/><path class="cls-6" d="M241.19,26.15c0,3.49,3-.95,0,0Z" transform="translate(0.37 0)"/><path class="cls-6" d="M243.06,86.52c-.62-1.16-.61-.31,0,0Z" transform="translate(0.37 0)"/><path class="cls-2" d="M246.22,80.36c0,3.58.73-2.14,0,0Z" transform="translate(0.37 0)"/><path class="cls-6" d="M248.45,146.88c1-1.19-.27-1.36,0,0Z" transform="translate(0.37 0)"/><path class="cls-6" d="M252.92,141c-.51-2.93-.26-1.24,0,0Z" transform="translate(0.37 0)"/><path class="cls-2" d="M257.58,34.28c.17,1.59,1.25-5.18,0,0Z" transform="translate(0.37 0)"/><path class="cls-2" d="M265.4,74.69c1.15,1.46,0-1.17,0,0Z" transform="translate(0.37 0)"/><path class="cls-6" d="M259.62,146.63c-.12-1.24-.15.92,0,0Z" transform="translate(0.37 0)"/><path class="cls-6" d="M262.6,110.17c-.14-2.79-.27,0,0,0Z" transform="translate(0.37 0)"/><path class="cls-6" d="M263.91,153.29c1.41-.43-.6-1.17,0,0Z" transform="translate(0.37 0)"/><path class="cls-2" d="M265.58,96.37c-2.37,0,0,3.34,0,0Z" transform="translate(0.37 0)"/><path class="cls-6" d="M268.93,68.78c-.55,2.53,2.67-.46,0,0Z" transform="translate(0.37 0)"/><path class="cls-2" d="M277.68,32.8c1.5,1.94,0-3.12,0,0Z" transform="translate(0.37 0)"/><path class="cls-6" d="M155,193.21c2.7-.74-1.3-3.76,0,0Z" transform="translate(0.37 0)"/><path class="cls-6" d="M181.06,111.65c.62-2.9-3.21,0,0,0Z" transform="translate(0.37 0)"/><path class="cls-2" d="M180.87,107c-2,0,.33,2.1,0,0Z" transform="translate(0.37 0)"/><path class="cls-6" d="M185.9,197.88c1.81-1.59-3.89-1.36,0,0Z" transform="translate(0.37 0)"/><path class="cls-2" d="M187,169.05c0-1.84,0,.65,0,0Z" transform="translate(0.37 0)"/><path class="cls-6" d="M192.42,128.9s0-.06,0-.09a.59.59,0,0,1,0,.08C192.37,129.73,192.42,131.32,192.42,128.9Z" transform="translate(0.37 0)"/><path class="cls-6" d="M192.37,128.81l0-.07C192.38,128.32,192.37,128.46,192.37,128.81Z" transform="translate(0.37 0)"/><path class="cls-6" d="M192.41,128.74l0,.07v.08a.59.59,0,0,0,0-.08Z" transform="translate(0.37 0)"/><path class="cls-6" d="M192.41,128.74l0,.07v.08a.59.59,0,0,0,0-.08Z" transform="translate(0.37 0)"/><path class="cls-6" d="M194.28,63.11c0-2.17-1.7.39,0,0Z" transform="translate(0.37 0)"/><path class="cls-6" d="M195.21,146.14c-1.22,0-.21,2.15,0,0Z" transform="translate(0.37 0)"/><path class="cls-6" d="M196,137.77c2.22.68-3.27-4.67,0,0Z" transform="translate(0.37 0)"/><path class="cls-6" d="M196.33,147.62c.73-.19,0-2,0,0Z" transform="translate(0.37 0)"/><path class="cls-2" d="M200.16,143.94c-.31.17-.25,1.43,0,.19,0-.06,0-.13.05-.21Z" transform="translate(0.37 0)"/><path class="cls-6" d="M208.8,175.22c-.32,4.57.18-1.19,0,0Z" transform="translate(0.37 0)"/><path class="cls-6" d="M209.92,73c.18-.33-.14-1.42,0,0Z" transform="translate(0.37 0)"/><path class="cls-2" d="M213.08,134.81c-.48-.15-.67.1-.56.74C213.16,135.74,213.48,135.32,213.08,134.81Z" transform="translate(0.37 0)"/><path class="cls-6" d="M212.71,58.18c1,0,1.77-1.47,0,0Z" transform="translate(0.37 0)"/><path class="cls-6" d="M218.85,98.59c1.28,0,0-3,0,0Z" transform="translate(0.37 0)"/><path class="cls-2" d="M229.84,35.51c2.55,1.09,0-.44,0,0Z" transform="translate(0.37 0)"/><path class="cls-6" d="M239.89,32.31c0,3.29,1.69,0,0,0Z" transform="translate(0.37 0)"/><path class="cls-2" d="M247.52,91.44c-.23-3.83-.77.09,0,0Z" transform="translate(0.37 0)"/><path class="cls-6" d="M251.81,80.61c-1.28-.49,0,1.23,0,0Z" transform="translate(0.37 0)"/><path class="cls-6" d="M253.66,124c-.71.11.29,1.68,0,0Z" transform="translate(0.37 0)"/><path class="cls-6" d="M256.83,123.23c0,3.39.33-.77,0,0Z" transform="translate(0.37 0)"/><path class="cls-6" d="M261.49,42.66c-.38-.91-1.29.76-.38.74C261.51,43.51,261.47,43.05,261.49,42.66Z" transform="translate(0.37 0)"/><path class="cls-6" d="M262,133.57c0-2.85-1.45-1.47,0,0Z" transform="translate(0.37 0)"/><path class="cls-6" d="M261.67,130.37c.07,0-.27-2.39,0,0Z" transform="translate(0.37 0)"/><path class="cls-6" d="M264.84,102c.11,3.24.63.26,0,0Z" transform="translate(0.37 0)"/><path class="cls-6" d="M199.57,78.47c-1.58-1.24-2.57,1.9,0,0Z" transform="translate(0.37 0)"/><path class="cls-6" d="M206.83,88.17c-1.81-4.11-2.25.73,0,0Z" transform="translate(0.37 0)"/><path class="cls-6" d="M210.63,176.73c.71,2.06,2.86.05,0,0Z" transform="translate(0.37 0)"/><path class="cls-6" d="M175.77,171.09c.9,0-3.47-4.27,0,0Z" transform="translate(0.37 0)"/><path class="cls-6" d="M183.56,179.1l.12,0C180.25,178.5,182.08,178.86,183.56,179.1Z" transform="translate(0.37 0)"/><path class="cls-6" d="M184.84,179.25l-1-.17-.11,0A5.1,5.1,0,0,0,184.84,179.25Z" transform="translate(0.37 0)"/><path class="cls-2" d="M203,177.86c1-1.36-3.08,1.41,0,0Z" transform="translate(0.37 0)"/><path class="cls-6" d="M220.37,165.11c2.9-1-1.77-3.5,0,0Z" transform="translate(0.37 0)"/><path class="cls-6" d="M193.49,46.52A3.87,3.87,0,0,0,190,44.91C191,45.75,192.08,46.72,193.49,46.52Z" transform="translate(0.37 0)"/><path class="cls-6" d="M231,168.08c1.14,3.45.73-2.75,0,0Z" transform="translate(0.37 0)"/><path class="cls-6" d="M228,110.46c-3.1,1.63.53,1.82,0,0Z" transform="translate(0.37 0)"/><path class="cls-6" d="M196.55,154.41c-1.8-5.34-3.5-.48,0,0Z" transform="translate(0.37 0)"/><path class="cls-6" d="M185.4,109.72c3.46-2.75-.77-1.88,0,0Z" transform="translate(0.37 0)"/><path class="cls-6" d="M212.06,182.76c.82,1.62,2.47-.31,0,0Z" transform="translate(0.37 0)"/><path class="cls-6" d="M196.11,98.7c-.71-1.49-5.86,2.29,0,0Z" transform="translate(0.37 0)"/><path class="cls-2" d="M226.8,181.59l-1.91.63C225.14,183.41,228,183.59,226.8,181.59Z" transform="translate(0.37 0)"/><path class="cls-2" d="M194.05,69.59c-.55.41,2.51,5.15,0,0Z" transform="translate(0.37 0)"/><path class="cls-2" d="M205.67,182.56c-1.08-3.17.36,1.14,0,0Z" transform="translate(0.37 0)"/><path class="cls-6" d="M191.9,111.28c-1.32-3.29,2.13,6.29,0,0Z" transform="translate(0.37 0)"/><path class="cls-6" d="M206.49,139c-2.06.69.87,3.77,0,0Z" transform="translate(0.37 0)"/><path class="cls-6" d="M209.24,140.89c1.12-.75-1.18-3.45,0,0Z" transform="translate(0.37 0)"/><path class="cls-2" d="M213.77,132.39c-.73.18.39,3.11,0,0Z" transform="translate(0.37 0)"/><path class="cls-6" d="M246.2,180.73c2.06,7.94-.37-2.11,0,0Z" transform="translate(0.37 0)"/><path class="cls-2" d="M229.86,111.23c1.2,0,1.5-.94.53-1.57C229.48,109.68,229.3,110.2,229.86,111.23Z" transform="translate(0.37 0)"/><path class="cls-6" d="M219.49,44.85c2.15-.7-1.66-5,0,0Z" transform="translate(0.37 0)"/><path class="cls-6" d="M218.12,63.46c-7-2.1.31.81,0,0Z" transform="translate(0.37 0)"/><path class="cls-6" d="M218.83,51.63c-4.61.63,3.72,4.13,0,0Z" transform="translate(0.37 0)"/><path class="cls-6" d="M216.54,186.81c1.23-1.55-1.86-2.58,0,0Z" transform="translate(0.37 0)"/><path class="cls-6" d="M206.79,194c4.14-1.78-.74-2.24,0,0Z" transform="translate(0.37 0)"/><path class="cls-6" d="M213.21,117.07c.27.62,3.53-1,0,0Z" transform="translate(0.37 0)"/><path class="cls-6" d="M231.17,93.89c-1.56,0-1.12,1.93-2.44,1.13C227.81,96.55,231.58,94.64,231.17,93.89Z" transform="translate(0.37 0)"/><path class="cls-2" d="M179.76,106.67c4.55-.37,3.18-1,0,0Z" transform="translate(0.37 0)"/><path class="cls-2" d="M207.78,95.36c.48.63,9.27-2.45,0,0Z" transform="translate(0.37 0)"/><path class="cls-2" d="M211.21,42.91c3.76-1.21-5,1,0,0Z" transform="translate(0.37 0)"/><path class="cls-6" d="M291.61,52.27c2.78,0-1.38-3.27,0,0Z" transform="translate(0.37 0)"/><path class="cls-6" d="M229.26,40.89c.29.86,3.8-1.94,0,0Z" transform="translate(0.37 0)"/><path class="cls-6" d="M208.2,54.84c-1.37-4.14-.4.22,0,0Z" transform="translate(0.37 0)"/><path class="cls-6" d="M212,52.24c3.39-3.11-3.74,2.67,0,0Z" transform="translate(0.37 0)"/><path class="cls-6" d="M192.15,64.14c3.12,5.29-1-6.27,0,0Z" transform="translate(0.37 0)"/><path class="cls-6" d="M262.18,154.09c3.62-1.16-1.63-3.45,0,0Z" transform="translate(0.37 0)"/><path class="cls-6" d="M218.66,97c-2,.69,4.74-1.58,0,0Z" transform="translate(0.37 0)"/><path class="cls-2" d="M273.19,132.55c-.5.16,1.33,4.87,0,0Z" transform="translate(0.37 0)"/><path class="cls-6" d="M274.8,34.35c-.36.29,2.3-1.13,0,0Z" transform="translate(0.37 0)"/><path class="cls-2" d="M266.43,48.4c-2.34.75,2.68,3.7,0,0Z" transform="translate(0.37 0)"/><path class="cls-2" d="M189,78.44c-3.77,2.2,4.31-2.44,0,0Z" transform="translate(0.37 0)"/><path class="cls-6" d="M261.2,74.63c-.89.43,0,1.93,1.25.91C262.17,75.05,262.37,73.91,261.2,74.63Z" transform="translate(0.37 0)"/><path class="cls-6" d="M232.4,108.7c-1.72,1.51.87,2.6,0,0Z" transform="translate(0.37 0)"/><path class="cls-6" d="M250.61,136.42c2.94-1.17-1.14-1.66,0,0Z" transform="translate(0.37 0)"/><path class="cls-6" d="M248.68,180.77a3.88,3.88,0,0,0,1.62-3.52C249.44,178.32,248.47,179.37,248.68,180.77Z" transform="translate(0.37 0)"/><path class="cls-6" d="M242.88,59.11c-.95.42-1.53,1.19-2.53.84C240.47,61.85,243.24,59.86,242.88,59.11Z" transform="translate(0.37 0)"/><path class="cls-6" d="M268.46,54.45c.56,1.65,4.24-1,0,0Z" transform="translate(0.37 0)"/><path class="cls-6" d="M236.3,95.21c-1.14.28-1.24.9-.85,1.68C236.59,96.61,236.69,96,236.3,95.21Z" transform="translate(0.37 0)"/><path class="cls-2" d="M190.45,149.62c1,2.87,3.51-1.07,0,0Z" transform="translate(0.37 0)"/><path class="cls-6" d="M194.26,158.14c-2.17-1.66-4,.83,0,0Z" transform="translate(0.37 0)"/><path class="cls-6" d="M185.11,172.72c2.76,3.45,1.9-.76,0,0Z" transform="translate(0.37 0)"/><path class="cls-6" d="M196.19,183.37c1.5-.71-2.29-5.82,0,0Z" transform="translate(0.37 0)"/><path class="cls-2" d="M225.47,181.33c-.41-.56-5.17,2.49,0,0Z" transform="translate(0.37 0)"/><path class="cls-2" d="M216.58,81.14c.45-.66.21-1.43-1.16-.67C215,81.13,215.21,81.9,216.58,81.14Z" transform="translate(0.37 0)"/><path class="cls-2" d="M261.81,116.8Z" transform="translate(0.37 0)"/><path class="cls-6" d="M255.49,120.3c.3.86,1.62-.53,0,0Z" transform="translate(0.37 0)"/><path class="cls-6" d="M199.08,147.44c.33-3.23-3.57.6,0,0Z" transform="translate(0.37 0)"/><path class="cls-2" d="M214.46,147.22c-1.18-3.44-3.38,1.73,0,0Z" transform="translate(0.37 0)"/><path class="cls-6" d="M183.68,179.06l.13,0C184.53,178.79,184.26,178.86,183.68,179.06Z" transform="translate(0.37 0)"/><path class="cls-6" d="M183.54,179.18l.16-.06-.14,0C182.15,179.58,179.41,180.58,183.54,179.18Z" transform="translate(0.37 0)"/><path class="cls-6" d="M183.7,179.12l.11,0-.13,0-.12,0Z" transform="translate(0.37 0)"/><path class="cls-6" d="M183.7,179.12l.11,0-.13,0-.12,0Z" transform="translate(0.37 0)"/><path class="cls-6" d="M155.65,193.69c-.67-2.08-3.8.9,0,0Z" transform="translate(0.37 0)"/><path class="cls-6" d="M170.39,190.2c.12,4.14,6.1-8.2,0,0Z" transform="translate(0.37 0)"/><path class="cls-6" d="M153.76,196.42c.75,1.12,3.46-1.15,0,0Z" transform="translate(0.37 0)"/><path class="cls-2" d="M217.3,68c3.44-1.22-1.4.37,0,0Z" transform="translate(0.37 0)"/></g><g id="fox-body"><path class="cls-7" d="M144.19,202.49a25.38,25.38,0,0,0,9.46-15.31c.47-2.53.49-5.35-1-7.42s-4.61-2.95-7.3-2.61a22.81,22.81,0,0,0-7.56,2.87c3-14.26,2-29.17-1.46-43.32s-9.46-27.58-16.47-40.35l-53.2-.5a7.56,7.56,0,0,0-3.78.62,6.94,6.94,0,0,0-2.28,2.44c-7.22,11.08-9,24.71-10.47,37.85-1.92,17.7-3.34,36.16,2.92,52.83a8.14,8.14,0,0,0-14.67,6.18c.87,4.6,5.34,7.5,8,11.34-.5,0-1,0-1.5,0A15.43,15.43,0,0,1,47.61,215c4.37-.32,8.74-.79,13.1-1.17,28.16-2.48,56.47-1.15,84.75-.68a24.87,24.87,0,0,1,2.46-10.48C146.68,202.53,145.43,202.48,144.19,202.49Z" transform="translate(0.37 0)"/><path class="cls-8" d="M35.24,208.26c-1.92.52-4.15,1.68-4.14,3.67,0,2.41,3.17,3.31,5.58,3.37,3.65.1,7.29-.07,10.93-.33a15.43,15.43,0,0,0-2.75-7.88A35.08,35.08,0,0,0,35.24,208.26Z" transform="translate(0.37 0)"/><path class="cls-8" d="M158.55,205.24a37.44,37.44,0,0,0-10.63-2.6,24.87,24.87,0,0,0-2.46,10.48q6.18.09,12.36.13c1.79,0,3.89-.16,4.85-1.67C164.2,209.14,161.22,206.34,158.55,205.24Z" transform="translate(0.37 0)"/><path class="cls-9" d="M56.76,102.8a19.5,19.5,0,0,0-1.2,6.63c-.61,10.42-.49,21,2.06,31.12L59,138.86A94,94,0,0,0,61,149.11c2.48,8.78,7.47,16.69,13.33,23.68S87,186,93.61,192.25a1.7,1.7,0,0,0,1,.58,1.65,1.65,0,0,0,.9-.28c4.73-2.62,8.33-6.87,11.44-11.29A94.21,94.21,0,0,0,120.12,154a20.45,20.45,0,0,1-.22,7.48,118,118,0,0,0,9.92-38.81,21.73,21.73,0,0,0-.1-5.81,24.2,24.2,0,0,0-2-5.49c-1.94-4.27-3.87-8.54-6-12.72a5,5,0,0,0-1.51-2,5.11,5.11,0,0,0-2.17-.64c-12.06-1.57-24.31,0-36.45-.74-4.63-.27-9.32-.86-13.89,0S58.58,98.53,56.76,102.8Z" transform="translate(0.37 0)"/><path class="cls-8" d="M80.57,171.21,79.16,142.6a19,19,0,0,1-6.73-3.69q.46,38.22,4.61,76.27c-1.9.38-3.93.83-5.28,2.22s-1.59,4,0,5.08a4.79,4.79,0,0,0,2.78.47c2.66-.1,5.32-.31,8-.65-.18-14.72-.91-29.42-1.63-44.12C80.8,175.86,80.69,173.53,80.57,171.21Z" transform="translate(0.37 0)"/><path class="cls-8" d="M112.59,139a37.09,37.09,0,0,1-6.35,3.93q2.28,39.56,2.81,79.2a22.54,22.54,0,0,0,6.76.26,7,7,0,0,0,3.56-1.2,4.14,4.14,0,0,0-4.41-7C116.19,190,116.42,163.9,112.59,139Z" transform="translate(0.37 0)"/><path class="cls-4" d="M69.55,117.54a9,9,0,0,0,.62,4.87" transform="translate(0.37 0)"/><path class="cls-4" d="M73.43,119.62a16.22,16.22,0,0,0,1.78,5.13" transform="translate(0.37 0)"/><path class="cls-4" d="M78.78,122.16a7.24,7.24,0,0,0,.86,4.42" transform="translate(0.37 0)"/><path class="cls-4" d="M76.46,115.69a7.15,7.15,0,0,0,.24,2.76" transform="translate(0.37 0)"/><path class="cls-4" d="M82.62,119.63a30.78,30.78,0,0,0,1.3,4.81" transform="translate(0.37 0)"/><path class="cls-4" d="M76.59,130.74a6.86,6.86,0,0,0,2.9,4.09" transform="translate(0.37 0)"/><path class="cls-4" d="M82.85,131.22l2.44,4.09" transform="translate(0.37 0)"/><path class="cls-4" d="M89.34,131.66a7.2,7.2,0,0,1,.51,3.67" transform="translate(0.37 0)"/><path class="cls-4" d="M87.7,138.6c.52,1.32,1.1,2.62,1.74,3.88" transform="translate(0.37 0)"/><path class="cls-4" d="M93.27,140.66a13,13,0,0,1-.21,4.9" transform="translate(0.37 0)"/><path class="cls-4" d="M98.65,139.73a6.88,6.88,0,0,1-.9,3.71" transform="translate(0.37 0)"/><path class="cls-4" d="M96.57,133.49a5.16,5.16,0,0,1-.94,3.45" transform="translate(0.37 0)"/><path class="cls-4" d="M103.67,130.27a4,4,0,0,1-.75,3.54" transform="translate(0.37 0)"/><path class="cls-4" d="M95,121.24l-.18,4.62" transform="translate(0.37 0)"/><path class="cls-4" d="M101.18,121a11.18,11.18,0,0,1-.69,4.62" transform="translate(0.37 0)"/><path class="cls-4" d="M107.21,115.91l.27,4.16" transform="translate(0.37 0)"/><path class="cls-4" d="M111.73,119.83c-.2,1.32-.41,2.63-.61,3.94" transform="translate(0.37 0)"/><path class="cls-4" d="M114.12,125.4a7,7,0,0,1-.61,3.73" transform="translate(0.37 0)"/><path class="cls-4" d="M115.65,115a10.7,10.7,0,0,1,0,5.56" transform="translate(0.37 0)"/><path class="cls-4" d="M85.61,150.16a6.88,6.88,0,0,0,2.65,3.64" transform="translate(0.37 0)"/><path class="cls-4" d="M90.72,150.82a5.28,5.28,0,0,0,2.47,4.48" transform="translate(0.37 0)"/><path class="cls-4" d="M96.55,148.75a7.1,7.1,0,0,1-.66,3.93" transform="translate(0.37 0)"/><path class="cls-4" d="M98.47,157.08a6.91,6.91,0,0,1-2.08,3.29" transform="translate(0.37 0)"/><path class="cls-4" d="M102.46,145.94a41.21,41.21,0,0,1-1.54,4.28" transform="translate(0.37 0)"/><path class="cls-10" d="M54.1,158.91a10.66,10.66,0,0,0,.95,4.82" transform="translate(0.37 0)"/><path class="cls-10" d="M57.5,160.77a7.73,7.73,0,0,0,1.12,4.64" transform="translate(0.37 0)"/><path class="cls-10" d="M56.67,169.75a3.49,3.49,0,0,0,1.56,3.66" transform="translate(0.37 0)"/><path class="cls-10" d="M60.23,169.1a9.92,9.92,0,0,0,3,5.54" transform="translate(0.37 0)"/><path class="cls-10" d="M63,181.39a7.3,7.3,0,0,0,2.64,3" transform="translate(0.37 0)"/><path class="cls-10" d="M66,171.17a3.77,3.77,0,0,0,2.14,3.64" transform="translate(0.37 0)"/><path class="cls-10" d="M129.15,155.91c-.36,1.47-.73,2.94-1.1,4.41" transform="translate(0.37 0)"/><path class="cls-10" d="M131.5,161.69a10.45,10.45,0,0,1-1.58,4.43" transform="translate(0.37 0)"/><path class="cls-10" d="M132.63,151.52a15.56,15.56,0,0,1-.63,5.34" transform="translate(0.37 0)"/><path class="cls-10" d="M123.11,175.55a11.59,11.59,0,0,1-2.47,4.44" transform="translate(0.37 0)"/><path class="cls-10" d="M125.65,178.09a6.76,6.76,0,0,1-2.42,3.36" transform="translate(0.37 0)"/><path class="cls-10" d="M132.09,173.93a10.94,10.94,0,0,1-1.28,3.73" transform="translate(0.37 0)"/><path class="cls-10" d="M58.9,188.74a6.48,6.48,0,0,0,1.33,4.88" transform="translate(0.37 0)"/><path class="cls-2" d="M148.08,183.08c-.8,0-.45,3.34,0,0Z" transform="translate(0.37 0)"/><path class="cls-6" d="M118.84,167.66c3.35,2.34,0-.48,0,0Z" transform="translate(0.37 0)"/><path class="cls-6" d="M116.35,173.79c2.56.48-1.23-2.83,0,0Z" transform="translate(0.37 0)"/><path class="cls-6" d="M131,140.14c0-.37-2-.12,0,0Z" transform="translate(0.37 0)"/><path class="cls-6" d="M117.35,149.25c.82.28.93-.82,1.49-.17C119.6,148.44,117.26,148.79,117.35,149.25Z" transform="translate(0.37 0)"/><path class="cls-2" d="M152.78,209.2c-.09-1.18-2.08,0,0,0Z" transform="translate(0.37 0)"/><path class="cls-6" d="M134.94,206.74c-.74-.1-.82.52,0,0Z" transform="translate(0.37 0)"/><path class="cls-6" d="M145.6,206.39c0-1.09-2.8-.36,0,0Z" transform="translate(0.37 0)"/><path class="cls-2" d="M130.69,195.66c.1-.46.11-.64-.09.05a.66.66,0,0,0-.27.91c-.08.29-.18.62-.28,1s.18-.21.36-.88c.34.45,1.09.48,1.31-1.23A2,2,0,0,0,130.69,195.66Z" transform="translate(0.37 0)"/><path class="cls-2" d="M64.06,194c-.06-.41-.66-.4-1-.18C62.88,194.18,64.39,194.53,64.06,194Z" transform="translate(0.37 0)"/><path class="cls-6" d="M56.88,189.74c-.11-1.87-.19,2.56,0,0Z" transform="translate(0.37 0)"/><path class="cls-6" d="M76.45,187.47c-1.35,0-1,2.85,0,0Z" transform="translate(0.37 0)"/><path class="cls-2" d="M130,152.59c-.14-.41-5.34-.34,0,0Z" transform="translate(0.37 0)"/><path class="cls-2" d="M118.84,179.75c-2.19,0,2.79.36,0,0Z" transform="translate(0.37 0)"/><path class="cls-2" d="M114.87,178.53c0,.68,3-.54,0,0Z" transform="translate(0.37 0)"/><path class="cls-6" d="M77.94,160.65c-1.46-.51.14,2,0,0Z" transform="translate(0.37 0)"/><path class="cls-6" d="M108.92,177.65c0-.51-2.36.35,0,0Z" transform="translate(0.37 0)"/><path class="cls-6" d="M69.52,175.9c-.16,0-.21,1.19,0,0Z" transform="translate(0.37 0)"/><path class="cls-6" d="M122.55,174c0,2.42.24-.05,0,0Z" transform="translate(0.37 0)"/><path class="cls-6" d="M120.07,174.67c-2.36,1.05,2.46-.76,0,0Z" transform="translate(0.37 0)"/><path class="cls-6" d="M132.71,171.87c-.73-3.35-.6,3.49,0,0Z" transform="translate(0.37 0)"/><path class="cls-6" d="M111.65,111.92c-2.13,0,.24,2.1,0,0Z" transform="translate(0.37 0)"/><path class="cls-6" d="M52.42,147.33c1.72-.62-.76-1.94,0,0Z" transform="translate(0.37 0)"/><path class="cls-6" d="M86.87,134.54c3.45,0,.19-2,0,0Z" transform="translate(0.37 0)"/><path class="cls-2" d="M102,121.39c.29,0,.17-2.81,0,0Z" transform="translate(0.37 0)"/><path class="cls-6" d="M51.68,127.17c.73,2.21,1.09.11,0,0Z" transform="translate(0.37 0)"/><path class="cls-6" d="M37.05,200.43c1.69-2.53-2.31,0,0,0Z" transform="translate(0.37 0)"/><path class="cls-6" d="M55.39,191.49c2.22-1.61-4.4.72,0,0Z" transform="translate(0.37 0)"/><path class="cls-6" d="M83.65,173.09c.23-.08-1.41.19,0,0Z" transform="translate(0.37 0)"/><path class="cls-2" d="M47.46,171.87c-.42-1.82-1.31.21,0,0Z" transform="translate(0.37 0)"/><path class="cls-2" d="M50.44,170.29c-.2,0-.78.14,0,0Z" transform="translate(0.37 0)"/><path class="cls-6" d="M57.37,168.71c-2.4,0,.38.89,0,0Z" transform="translate(0.37 0)"/><path class="cls-2" d="M90.58,167.13c1.37,0-.75-2.42,0,0Z" transform="translate(0.37 0)"/><path class="cls-2" d="M136.92,164.85c2.39-.5-2.71.53,0,0Z" transform="translate(0.37 0)"/><path class="cls-6" d="M58.86,162.05c.33,0-1.25-3.78,0,0Z" transform="translate(0.37 0)"/><path class="cls-6" d="M97.52,153.46c.06.31-.25.88.5.7C98.57,154.09,98.35,153.14,97.52,153.46Z" transform="translate(0.37 0)"/><path class="cls-6" d="M76.45,151.71c.84-.33.16-.71.25-1.4C76.14,150.44,76.6,151.29,76.45,151.71Z" transform="translate(0.37 0)"/><path class="cls-2" d="M98.26,148.91c2.45.28,0-4,0,0Z" transform="translate(0.37 0)"/><path class="cls-6" d="M92.56,142.42c-.55.14-1.34.1-1.48.53C91.83,143,92.71,143.05,92.56,142.42Z" transform="translate(0.37 0)"/><path class="cls-6" d="M119.33,141.19c1.18-.49,0-1.52,0,0Z" transform="translate(0.37 0)"/><path class="cls-6" d="M114.62,123.32c-1.76.1.32,1.08,0,0Z" transform="translate(0.37 0)"/><path class="cls-2" d="M52.91,121.39s1.79,0,0,0Z" transform="translate(0.37 0)"/><path class="cls-6" d="M122.06,101.76c.64-.42,1.34-.8,1.48-1.58A2.14,2.14,0,0,0,122.06,101.76Z" transform="translate(0.37 0)"/><path class="cls-2" d="M75.46,196.51c.4-.45-3.62.22,0,0Z" transform="translate(0.37 0)"/><path class="cls-6" d="M71,204.66c0-2.75-2.82,2.82,0,0Z" transform="translate(0.37 0)"/><path class="cls-2" d="M66.3,137.84c0-1.86-1.28-.13,0,0Z" transform="translate(0.37 0)"/><path class="cls-2" d="M59.6,146.35c1.92,0-.47-2.8,0,0Z" transform="translate(0.37 0)"/><path class="cls-2" d="M51.68,154.5c1.14.08,2-2,0,0Z" transform="translate(0.37 0)"/><path class="cls-6" d="M116.11,196.7c.68-3.49-2.25,5.16,0,0Z" transform="translate(0.37 0)"/><path class="cls-6" d="M68.52,192.63c0,1.12,2.45,0,0,0Z" transform="translate(0.37 0)"/><path class="cls-6" d="M61.09,191.15Z" transform="translate(0.37 0)"/><path class="cls-6" d="M61.84,180.41c-.81,0-1.2.22-1.25.74C61.32,181.14,61.52,180.73,61.84,180.41Z" transform="translate(0.37 0)"/><path class="cls-6" d="M79.43,180.6c1.72,0-.7-1.79,0,0Z" transform="translate(0.37 0)"/><path class="cls-2" d="M70.26,167.83c-3,0-2,1.86,0,0Z" transform="translate(0.37 0)"/><path class="cls-6" d="M105,165.6c.58,0,1-.36,1.49,0C106.72,164.58,104.9,165.14,105,165.6Z" transform="translate(0.37 0)"/><path class="cls-6" d="M90.58,163.57c0-1-2.42-.21,0,0Z" transform="translate(0.37 0)"/><path class="cls-6" d="M53.66,162.83c-2.9-.6-.54,1.95,0,0Z" transform="translate(0.37 0)"/><path class="cls-2" d="M127,153.94c0-7.24-1.28.22,0,0Z" transform="translate(0.37 0)"/><path class="cls-6" d="M114.87,147.65c.65,0,.81-.26.74-.74C115,146.85,114.8,147.17,114.87,147.65Z" transform="translate(0.37 0)"/><path class="cls-6" d="M93.56,143.76c-.8.71,2.7.48,0,0Z" transform="translate(0.37 0)"/><path class="cls-6" d="M97.27,139.88c-4.12-.31.45,2,0,0Z" transform="translate(0.37 0)"/><path class="cls-6" d="M60.35,133.4c.2-.75-1.37,0,0,0Z" transform="translate(0.37 0)"/><path class="cls-6" d="M87.36,112.48c-.65,1.25.79-.08,0,0Z" transform="translate(0.37 0)"/><path class="cls-6" d="M65.06,102.67c-.18,0,0,1.38,0,0Z" transform="translate(0.37 0)"/><path class="cls-6" d="M61.09,206.33c3.4-.68-.08-1.37,0,0Z" transform="translate(0.37 0)"/><path class="cls-6" d="M131.22,202.07c.19.13,1.22.46,1-.19C132,201.75,131,201.42,131.22,202.07Z" transform="translate(0.37 0)"/><path class="cls-6" d="M118.34,179.12c-1.54,0,0,.2,0,0Z" transform="translate(0.37 0)"/><path class="cls-6" d="M48.7,165.05c-1.55.2-.79,1,0,0Z" transform="translate(0.37 0)"/><path class="cls-2" d="M123.29,159.13c.36-.27.37-.72-.49-.56C122.44,158.84,122.43,159.29,123.29,159.13Z" transform="translate(0.37 0)"/><path class="cls-6" d="M83.15,158.75c-.63-2-1,0,0,0Z" transform="translate(0.37 0)"/><path class="cls-6" d="M109.17,131c0-.51-1,0,0,0Z" transform="translate(0.37 0)"/><path class="cls-6" d="M63.82,117.85c1.27-1-3.08-.12,0,0Z" transform="translate(0.37 0)"/><path class="cls-6" d="M75.71,115.26c0-3-2.65.48,0,0Z" transform="translate(0.37 0)"/><path class="cls-2" d="M120.07,165.42c-2,0,.81.05,0,0Z" transform="translate(0.37 0)"/><path class="cls-2" d="M121.41,119.29c0-.79-3.36-.44,0,0Z" transform="translate(0.37 0)"/><path class="cls-6" d="M39.29,213.33c1,.14,2.52.51,1.2.57-.64-.16-1.08-.29-1.38-.38-.21.33.08.77,1.56,1.12C41.88,212.82,40,212.81,39.29,213.33Z" transform="translate(0.37 0)"/><path class="cls-2" d="M39.29,213.33c-.65-.1-1-.09-.18.19.3.09.74.22,1.38.38C41.81,213.84,40.27,213.47,39.29,213.33Z" transform="translate(0.37 0)"/><path class="cls-6" d="M43,189c.18,1.21,2.49-.81,0,0Z" transform="translate(0.37 0)"/><path class="cls-6" d="M49.13,164.87c-.32-2.23-.41,0,0,0Z" transform="translate(0.37 0)"/><path class="cls-6" d="M50.72,194.19c-.21-1.49-.93-.19,0,0Z" transform="translate(0.37 0)"/><path class="cls-6" d="M52.48,148.36c3.81,2.13-.17-1.06,0,0Z" transform="translate(0.37 0)"/><path class="cls-6" d="M54.77,107.46c0,4.85.48-3.93,0,0Z" transform="translate(0.37 0)"/><path class="cls-2" d="M55.48,149.84c-.16-1.12-1,.3,0,0Z" transform="translate(0.37 0)"/><path class="cls-2" d="M60.24,199.36c0-2.87-.22,1.85,0,0Z" transform="translate(0.37 0)"/><path class="cls-2" d="M65.17,208.23c-1.63.36,1.38,0,0,0Z" transform="translate(0.37 0)"/><path class="cls-6" d="M138.68,210.7c.66-3.89-2-.58,0,0Z" transform="translate(0.37 0)"/><path class="cls-2" d="M117.88,196.65c.1-1.73-.93-1.37,0,0Z" transform="translate(0.37 0)"/><path class="cls-2" d="M73.81,142.45c.58-2.68-1.12,0,0,0Z" transform="translate(0.37 0)"/><path class="cls-6" d="M74.16,179.65c2.49.21-2.13-2.85,0,0Z" transform="translate(0.37 0)"/><path class="cls-6" d="M116.29,130.37c0-.48-4,0,0,0Z" transform="translate(0.37 0)"/><path class="cls-6" d="M80.33,199.12c0-.53-.27,4.37,0,0Z" transform="translate(0.37 0)"/><path class="cls-2" d="M79.63,109.19c1.17.79,3.22-1.61,0,0Z" transform="translate(0.37 0)"/><path class="cls-6" d="M86.15,129.39c0-.34-2.33,0,0,0Z" transform="translate(0.37 0)"/><path class="cls-6" d="M92.67,193.94c-2.46-.8,0,1.18,0,0Z" transform="translate(0.37 0)"/><path class="cls-6" d="M93.55,151.81c-1.66.95,2.57,0,0,0Z" transform="translate(0.37 0)"/><path class="cls-2" d="M95.14,124c1.18-.09,0-2.07,0,0Z" transform="translate(0.37 0)"/><path class="cls-6" d="M98,116.82c1.11,0,.36-2.78,0,0Z" transform="translate(0.37 0)"/><path class="cls-6" d="M103.07,120c-.19,2.3,5.86-.73,0,0Z" transform="translate(0.37 0)"/><path class="cls-6" d="M106.6,210.21c2.14,0-1.67-.25,0,0Z" transform="translate(0.37 0)"/><path class="cls-6" d="M107.48,154.52c0-.13-.21-1.45,0,0Z" transform="translate(0.37 0)"/><path class="cls-6" d="M107.84,211.19c1.52,0,0-1.4,0,0Z" transform="translate(0.37 0)"/><path class="cls-6" d="M110.48,173.49c.21-1.14-.81-1.34-.53,0Z" transform="translate(0.37 0)"/><path class="cls-6" d="M113.83,214.15c-.07-.21,0,1.91,0,0Z" transform="translate(0.37 0)"/><path class="cls-6" d="M135.33,135.3c0,4.22,3.73-.55,0,0Z" transform="translate(0.37 0)"/><path class="cls-6" d="M125.29,110.17c1.49,0-.19-2.37,0,0Z" transform="translate(0.37 0)"/><path class="cls-2" d="M126.17,185.08c0,.14,0-.14,0,0Z" transform="translate(0.37 0)"/><path class="cls-6" d="M129.69,145.16c-.6-2.35-1.78,0,0,0Z" transform="translate(0.37 0)"/><path class="cls-2" d="M130.75,174c0-3.09-1,0,0,0Z" transform="translate(0.37 0)"/><path class="cls-2" d="M133.92,176.45c-.14-4.76-2.86,4.2,0,0Z" transform="translate(0.37 0)"/><path class="cls-6" d="M137.27,147.87c-.46-.08-.58.34-.52,1C137.21,148.93,137.32,148.51,137.27,147.87Z" transform="translate(0.37 0)"/><path class="cls-6" d="M149.08,181.87c.43-1-1.62-.07,0,0Z" transform="translate(0.37 0)"/><path class="cls-6" d="M30.27,200.84c.34-1.63-.32.13,0,0Z" transform="translate(0.37 0)"/><path class="cls-6" d="M50,189.26c-1.33-.2,0,2.08,0,0Z" transform="translate(0.37 0)"/><path class="cls-2" d="M52.13,206.75c2.92-.95,0-.81,0,0Z" transform="translate(0.37 0)"/><path class="cls-6" d="M55.3,207.25c-.7,3.44.38.09,0,0Z" transform="translate(0.37 0)"/><path class="cls-6" d="M57.59,148.85c.28,1.69,0-.74,0,0Z" transform="translate(0.37 0)"/><path class="cls-2" d="M57.59,211.68c3.15,0,0-2.3,0,0Z" transform="translate(0.37 0)"/><path class="cls-6" d="M59.53,183.1c-3.42-1.13-1.25-.21,0,0Z" transform="translate(0.37 0)"/><path class="cls-6" d="M59.36,111.16c-.47,2,3-2.56,0,0Z" transform="translate(0.37 0)"/><path class="cls-6" d="M63.06,207.25c.09,1.14.73,2.11,0,0Z" transform="translate(0.37 0)"/><path class="cls-6" d="M67.29,118.05c1.22,3.8.95-5.87,0,0Z" transform="translate(0.37 0)"/><path class="cls-6" d="M73.11,219.08c-.06,1.56,2.69,0,0,0Z" transform="translate(0.37 0)"/><path class="cls-6" d="M74.34,136.78s-.4-3.11,0,0Z" transform="translate(0.37 0)"/><path class="cls-6" d="M74.69,101.3c-1.18,1.17,0,2.7,0,0Z" transform="translate(0.37 0)"/><path class="cls-6" d="M74.87,124.71c0-1.15-2.36,3.07,0,0Z" transform="translate(0.37 0)"/><path class="cls-6" d="M75.22,105.74c1.35,2.33.13-2.82,0,0Z" transform="translate(0.37 0)"/><path class="cls-6" d="M80.16,146.63c-.5-2.48-2.57-3.4,0,0Z" transform="translate(0.37 0)"/><path class="cls-6" d="M82.27,119c-.33.11-1.06-.33-.88.49C81.72,119.42,82.45,119.87,82.27,119Z" transform="translate(0.37 0)"/><path class="cls-6" d="M81.75,114.36c.29.8,1.62.77,0,0Z" transform="translate(0.37 0)"/><path class="cls-6" d="M92.67,139.49c-1.49,0,0,1.49,0,0Z" transform="translate(0.37 0)"/><path class="cls-6" d="M100.25,204.78c-2.65-.83.72,1.48,0,0Z" transform="translate(0.37 0)"/><path class="cls-2" d="M112.24,133.33c1.27,4.27-.12-2.8,0,0Z" transform="translate(0.37 0)"/><path class="cls-6" d="M116.29,190c-.05-1,0,2.28,0,0Z" transform="translate(0.37 0)"/><path class="cls-6" d="M116.65,141.21c-1.31,0,1.63,0,0,0Z" transform="translate(0.37 0)"/><path class="cls-6" d="M117.88,191c1.16,1.08,0-2.09,0,0Z" transform="translate(0.37 0)"/><path class="cls-2" d="M122.29,188c0,.11,1.13-1.37,0,0Z" transform="translate(0.37 0)"/><path class="cls-6" d="M125.46,148.61c3.63.7,0-3.54,0,0Z" transform="translate(0.37 0)"/><path class="cls-6" d="M132.51,168.32c-.14-1.67,0,.2,0,0Z" transform="translate(0.37 0)"/><path class="cls-6" d="M132.69,127.91c.74,5.2,2.09.41,0,0Z" transform="translate(0.37 0)"/><path class="cls-6" d="M133.22,158c-.21-.07-.06,0,0,0Z" transform="translate(0.37 0)"/><path class="cls-6" d="M142.21,207.74c-2.85-4.67-.37,1.56,0,0Z" transform="translate(0.37 0)"/><path class="cls-2" d="M142.74,195.92c-.79-4,.11,2.66,0,0Z" transform="translate(0.37 0)"/><path class="cls-2" d="M112.77,135.79c-4.11,0,.12,2.36,0,0Z" transform="translate(0.37 0)"/><path class="cls-6" d="M115.16,154.52c0,.63.62.49,1.11.5C116.24,154.54,115,153.72,115.16,154.52Z" transform="translate(0.37 0)"/><path class="cls-6" d="M118.32,154.52c.61-3-1-.68,0,0Z" transform="translate(0.37 0)"/><path class="cls-6" d="M127.45,129.64c0,5.72,2.94-.55,0,0Z" transform="translate(0.37 0)"/><path class="cls-6" d="M139,145.4Z" transform="translate(0.37 0)"/><path class="cls-6" d="M118.14,175.71c1,2.19,1.43-1.57,0,0Z" transform="translate(0.37 0)"/><path class="cls-6" d="M127.82,180.88a.71.71,0,0,1-.75.5C128.51,181.67,128.76,181.5,127.82,180.88Z" transform="translate(0.37 0)"/><path class="cls-2" d="M65.75,135.06c-.46-1.36-6,1.15,0,0Z" transform="translate(0.37 0)"/><path class="cls-6" d="M63.4,156.78c-.28-.82-6.83,2.29,0,0Z" transform="translate(0.37 0)"/><path class="cls-6" d="M122.93,179.35c-.74-1.75-3.62-6.63,0,0Z" transform="translate(0.37 0)"/><path class="cls-2" d="M145.94,198.23c2.52,4.3,1-2.24,0,0Z" transform="translate(0.37 0)"/><path class="cls-6" d="M37,206.05c-2.29,2.56,4.36-1.46,0,0Z" transform="translate(0.37 0)"/><path class="cls-6" d="M62.22,202.79c-.07-.22-1.18-2.35,0,0Z" transform="translate(0.37 0)"/><path class="cls-2" d="M119,115c-.37-4.51-1.06-3.17,0,0Z" transform="translate(0.37 0)"/><path class="cls-6" d="M67.14,117.37c2.54-.82-1.68-3.93,0,0Z" transform="translate(0.37 0)"/><path class="cls-6" d="M94.61,174.34c-2.36-3.65-3,1,0,0Z" transform="translate(0.37 0)"/><path class="cls-2" d="M112.88,222.71c-1.78-5.24-1.65.53,0,0Z" transform="translate(0.37 0)"/><path class="cls-6" d="M76.19,102.72c5.32-3.09-6.32,1,0,0Z" transform="translate(0.37 0)"/><path class="cls-6" d="M89,123.12c2.07,3.34,6.53-4.83,0,0Z" transform="translate(0.37 0)"/><path class="cls-6" d="M108.7,176.63c.83-.14.79-.91.34-2C108.2,174.79,108.25,175.56,108.7,176.63Z" transform="translate(0.37 0)"/><path class="cls-6" d="M143.36,200.48c-2.76.89,2.06,2.08,0,0Z" transform="translate(0.37 0)"/><path class="cls-6" d="M70.19,175c-2.22.8,2.82-.92,0,0Z" transform="translate(0.37 0)"/><path class="cls-6" d="M89.39,182.58c6.58-.83-2-6,0,0Z" transform="translate(0.37 0)"/><path class="cls-6" d="M112.64,212.09c-1.2-2.77.06.36,0,0Z" transform="translate(0.37 0)"/><path class="cls-6" d="M107.92,194.11c-.38,0-.08,0,0,0Z" transform="translate(0.37 0)"/><path class="cls-6" d="M75.26,198.45c.4,1.06,1.34.48,2.18.21C77.12,197.87,74.48,197.2,75.26,198.45Z" transform="translate(0.37 0)"/><path class="cls-6" d="M80.64,196.66c-.66-5.41-2.18-.56,0,0Z" transform="translate(0.37 0)"/><path class="cls-6" d="M110.54,169.5Z" transform="translate(0.37 0)"/><path class="cls-2" d="M127.63,155.45c-1.45-4.27-4.06,4,0,0Z" transform="translate(0.37 0)"/><path class="cls-2" d="M128.06,207c.34,4.45,0,0,0,0Z" transform="translate(0.37 0)"/><path class="cls-2" d="M124.72,183.41c1.46-.16-1.19-2.77,0,0Z" transform="translate(0.37 0)"/><path class="cls-6" d="M131.84,155.44c1.35-.45-1.08-3.2,0,0Z" transform="translate(0.37 0)"/><path class="cls-6" d="M115.08,110.62c1.75-.73,6.66-3.6,0,0Z" transform="translate(0.37 0)"/><path class="cls-6" d="M89.12,171.23c-.89.23-.76,2.33,0,0Z" transform="translate(0.37 0)"/><path class="cls-2" d="M96.08,133.48c-4.33,2.52,2.25,1,0,0Z" transform="translate(0.37 0)"/><path class="cls-6" d="M118.38,181.7c7.94-1-3.79-4.45,0,0Z" transform="translate(0.37 0)"/><path class="cls-6" d="M117.71,197.81c-2.07.7,0,2.84,0,0Z" transform="translate(0.37 0)"/><path class="cls-6" d="M68.39,136.07c2,.14-.81-2.77,0,0Z" transform="translate(0.37 0)"/><path class="cls-6" d="M93.82,130.93c-.92-2.71-2.08,2,0,0Z" transform="translate(0.37 0)"/><path class="cls-2" d="M88.08,143.1c-.1,1.14,1.47,0,2.31-.1C90.3,142.1,87.29,141.24,88.08,143.1Z" transform="translate(0.37 0)"/><path class="cls-6" d="M93.73,150.16c-2-4.58-2.82,5,0,0Z" transform="translate(0.37 0)"/><path class="cls-6" d="M123.38,163.15c0,.89,4.3-3.43,0,0Z" transform="translate(0.37 0)"/><path class="cls-6" d="M115.18,172.17c1.19-6.94-.17-.07,0,0Z" transform="translate(0.37 0)"/><path class="cls-6" d="M133.25,141c4.46-2.08-4.84,1.37,0,0Z" transform="translate(0.37 0)"/><path class="cls-2" d="M116.57,190.24c1.37,1-1.42-3.06,0,0Z" transform="translate(0.37 0)"/><path class="cls-6" d="M129.4,207.5c1,2.89,3.54-1.79,0,0Z" transform="translate(0.37 0)"/><path class="cls-2" d="M87.3,115.72c-4.48.33,0,0,0,0Z" transform="translate(0.37 0)"/><path class="cls-6" d="M140.16,183.81c5.37-1.77.48-3.5,0,0Z" transform="translate(0.37 0)"/><path class="cls-6" d="M111.64,199.24c-1.63.82.31,2.44,0,0Z" transform="translate(0.37 0)"/><path class="cls-6" d="M79,217.77c3.21-1.67-.14-.46,0,0Z" transform="translate(0.37 0)"/><path class="cls-2" d="M112.82,213.88c-.22-.63-.43-1.26-.64-1.89C111,212.23,110.81,215.08,112.82,213.88Z" transform="translate(0.37 0)"/><path class="cls-6" d="M47.91,190.7c3.37-1.11-3.1.72,0,0Z" transform="translate(0.37 0)"/><path class="cls-6" d="M61.94,207.36c3.75,2.16.13-7.35,0,0Z" transform="translate(0.37 0)"/><path class="cls-2" d="M111.85,192.88c3.12-1-1.08.33,0,0Z" transform="translate(0.37 0)"/></g><g id="fox-head"><path class="cls-7" d="M92.84,97.44c2-11.1,7.26-21.42,14.17-30.33s15.37-16.49,24.22-23.47A98.29,98.29,0,0,1,147.9,32.53c-1.9-2.5-3.84-5-5.87-7.38a11.9,11.9,0,0,1-2.05-3,12.78,12.78,0,0,1-.69-4.27,65.92,65.92,0,0,0-2.65-15,2.22,2.22,0,0,0-2.53-1.53c-5.76,1.12-10.56,5.5-14.85,9.68a11.67,11.67,0,0,1-3.79,2.81,11.19,11.19,0,0,1-4.47.49c-17.52-.51-35.3-3.87-52.38,0a2.66,2.66,0,0,1-1.74,0,2.62,2.62,0,0,1-.81-.75L45.44.48a1.27,1.27,0,0,0-2.21.41C39,13.5,32.57,25.3,25.25,36.42q-1.5,2.25-3,4.51A135.64,135.64,0,0,1,61.81,59C75.81,68.33,88.53,81.15,92.84,97.44Z" transform="translate(0.37 0)"/><path class="cls-3" d="M168.68,67A187.11,187.11,0,0,0,147.9,32.53a98.29,98.29,0,0,0-16.67,11.11c-8.85,7-17.32,14.56-24.22,23.47S94.79,86.34,92.84,97.44c-4.31-16.29-17-29.11-31-38.48a135.64,135.64,0,0,0-39.59-18C14.18,52.8,5.73,64.84,4,78.94l7.84-1.61A18.54,18.54,0,0,1,8.75,89.92a31.78,31.78,0,0,0,9.43-.66l-2.1,8.42a154.27,154.27,0,0,1,57.84,2.45c6.12,1.44,12.23,3.3,17.52,6.69a5.18,5.18,0,0,0,1.8.87,4.79,4.79,0,0,0,2.56-.46c21.36-8.09,43-17,65.85-17.76A29.86,29.86,0,0,0,150.76,84a28,28,0,0,1,12.72-1.29,12.26,12.26,0,0,0-5.15-10.45,34.66,34.66,0,0,1,11.09,2C170.75,72.07,169.75,69.29,168.68,67Z" transform="translate(0.37 0)"/><path class="cls-8" d="M133,7.4c2.24,4.5,2,9.78,1.62,14.78a14.21,14.21,0,0,1-5.26-2.51c-1-.77-1.93-1.68-3-2.37a5.14,5.14,0,0,0-3.62-.93A27.64,27.64,0,0,1,133,7.4Z" transform="translate(0.37 0)"/><path class="cls-8" d="M40,19.11q5.34-1.82,10.7-3.51c.15-.35-.12-.73-.37-1L44.21,7.73A94.11,94.11,0,0,1,40,19.11Z" transform="translate(0.37 0)"/><path class="cls-11" d="M92.48,113.07c2.38.16,5-.17,6.66-1.92,1.47-1.58,1.75-3.92,1.76-6.08a11.16,11.16,0,0,0-.3-3,6.7,6.7,0,0,0-7.51-4.62,8,8,0,0,0-.81.2l-.75.2a12,12,0,0,0-1.54.49c-2.8,1.18-4.27,4.33-4.73,7.35a7.12,7.12,0,0,0,.13,3.28C86.29,111.73,89.58,112.87,92.48,113.07Z" transform="translate(0.37 0)"/><path class="cls-7" d="M129,87.79a5.91,5.91,0,0,0,6.82.58A4.68,4.68,0,0,0,137.1,82a5.55,5.55,0,0,0-3.78-2,5.17,5.17,0,0,0-3.64.68,5.52,5.52,0,0,0-1.93,2.89,4.23,4.23,0,0,0-.28,1.75A3.86,3.86,0,0,0,129,87.79Z" transform="translate(0.37 0)"/><path class="cls-7" d="M44.22,83.09a6.12,6.12,0,0,0-4.91.29,4.13,4.13,0,0,0-2.13,4.22,5.26,5.26,0,0,0,2.7,3.28c1.34.79,3,1.28,4.42.57a4.76,4.76,0,0,0,2.07-2.76c.54-1.51.7-3.38-.38-4.57A4,4,0,0,0,44.22,83.09Z" transform="translate(0.37 0)"/><path class="cls-11" d="M127.27,67.6a2.36,2.36,0,0,0,4.44-.6,2.36,2.36,0,1,0-4.44.6Z" transform="translate(0.37 0)"/><path class="cls-11" d="M42.15,72.31a2.36,2.36,0,0,0,4.45-.6,2.36,2.36,0,1,0-4.45.6Z" transform="translate(0.37 0)"/><path class="cls-10" d="M70.86,34.28a1.66,1.66,0,0,0,.49,1.06l3.54,4.46" transform="translate(0.37 0)"/><path class="cls-10" d="M76.88,36.28c-.36.24-.13.79.11,1.15a16.41,16.41,0,0,1,2.41,5.38" transform="translate(0.37 0)"/><path class="cls-10" d="M82.56,37.61a15.46,15.46,0,0,1,1.6,5" transform="translate(0.37 0)"/><path class="cls-10" d="M90.09,39.85v6.71" transform="translate(0.37 0)"/><path class="cls-10" d="M86,48a9.52,9.52,0,0,0,.72,5.29" transform="translate(0.37 0)"/><path class="cls-10" d="M81.48,48.41a12.73,12.73,0,0,0,1.32,4.8" transform="translate(0.37 0)"/><path class="cls-10" d="M73.69,45.16a10,10,0,0,1,2.54,5.1" transform="translate(0.37 0)"/><path class="cls-10" d="M78.19,27.18Q79.1,29.57,80,32" transform="translate(0.37 0)"/><path class="cls-10" d="M85.21,27.83a16.37,16.37,0,0,0,1,5.54" transform="translate(0.37 0)"/><path class="cls-10" d="M91,29a48,48,0,0,1-.06,5.09" transform="translate(0.37 0)"/><path class="cls-10" d="M96.3,35.22a13,13,0,0,0-1,5.55" transform="translate(0.37 0)"/><path class="cls-10" d="M102.4,36.65a27.24,27.24,0,0,0-3,5.52" transform="translate(0.37 0)"/><path class="cls-10" d="M95.94,46.12a18.14,18.14,0,0,0-1,4.36" transform="translate(0.37 0)"/><path class="cls-10" d="M92.42,54.88A14.89,14.89,0,0,0,92.19,59" transform="translate(0.37 0)"/><path class="cls-10" d="M87.12,58.79a13.47,13.47,0,0,1,1.38,5.57" transform="translate(0.37 0)"/><path class="cls-10" d="M97.23,53.48l3.73-5.3" transform="translate(0.37 0)"/><path class="cls-10" d="M103.69,43.07a14.93,14.93,0,0,1,2.16-2.72" transform="translate(0.37 0)"/><path class="cls-10" d="M95.43,21.83a14.74,14.74,0,0,0-1,5.54" transform="translate(0.37 0)"/><path class="cls-10" d="M100.67,22.94a11.23,11.23,0,0,0-1.59,5.58" transform="translate(0.37 0)"/><path class="cls-10" d="M105.37,26.46a12.43,12.43,0,0,0-2.14,4.6" transform="translate(0.37 0)"/><path class="cls-10" d="M88.45,19.73a13.57,13.57,0,0,0-.2,3.71" transform="translate(0.37 0)"/><path class="cls-10" d="M79.14,18.87a13.3,13.3,0,0,1,1.54,3.39" transform="translate(0.37 0)"/><path class="cls-10" d="M71.09,21.36a10.66,10.66,0,0,0,1.24,4.37" transform="translate(0.37 0)"/><path class="cls-10" d="M63.84,23.77a13.31,13.31,0,0,1,2.47,5" transform="translate(0.37 0)"/><path class="cls-10" d="M63,32.78a6.81,6.81,0,0,1,2.66,3.82" transform="translate(0.37 0)"/><path class="cls-10" d="M109.74,31.07a10.71,10.71,0,0,1,2.55-3.24" transform="translate(0.37 0)"/><path class="cls-10" d="M64.19,44.49A8.32,8.32,0,0,1,67,48.4" transform="translate(0.37 0)"/><path class="cls-10" d="M54.84,22.21a10.71,10.71,0,0,1,3.69,4.18" transform="translate(0.37 0)"/><path class="cls-10" d="M110.66,44a18.08,18.08,0,0,1,3.26-3.45" transform="translate(0.37 0)"/><path class="cls-10" d="M94.23,69.21a17,17,0,0,1,2.36-5.06" transform="translate(0.37 0)"/><path class="cls-10" d="M104.36,21.31a24.83,24.83,0,0,1,2.86-2.94" transform="translate(0.37 0)"/><path class="cls-6" d="M24.91,65.1c-3-.74-.26,0,0,0Z" transform="translate(0.37 0)"/><path class="cls-6" d="M77.69,98.23c.22-.57-4,2.78,0,0Z" transform="translate(0.37 0)"/><path class="cls-2" d="M114.62,42.7c2.33.17,1.2-2.62,0,0Z" transform="translate(0.37 0)"/><path class="cls-6" d="M74.47,88.42c-.18-2-.43,0,0,0Z" transform="translate(0.37 0)"/><path class="cls-2" d="M35.57,85.83c-.37-2.72-1.85,0,0,0Z" transform="translate(0.37 0)"/><path class="cls-2" d="M64.56,85.09c2.85,0,0-1.3,0,0Z" transform="translate(0.37 0)"/><path class="cls-6" d="M28.13,80.64c.06-1.4-1.63,0,0,0Z" transform="translate(0.37 0)"/><path class="cls-6" d="M105.7,28.63c-1-.08-1.54,1.34,0,0Z" transform="translate(0.37 0)"/><path class="cls-6" d="M37.3,68.43c-.73-.54,3.3,2.64,0,0Z" transform="translate(0.37 0)"/><path class="cls-2" d="M74.47,68.06c-2.88,2.26,2.31.06,0,0Z" transform="translate(0.37 0)"/><path class="cls-6" d="M40.28,63.62c0-1.56-3,1.63,0,0Z" transform="translate(0.37 0)"/><path class="cls-6" d="M54.4,64c3.51,0-.95-3,0,0Z" transform="translate(0.37 0)"/><path class="cls-6" d="M115.12,62.14c-1.17.61-.31.59,0,0Z" transform="translate(0.37 0)"/><path class="cls-2" d="M29.12,52.14c-.38,0,3,.35,0,0Z" transform="translate(0.37 0)"/><path class="cls-2" d="M108.92,59c3.61,0-2.15-.73,0,0Z" transform="translate(0.37 0)"/><path class="cls-2" d="M62.58,47.69c1.6-.17-5.22-1.23,0,0Z" transform="translate(0.37 0)"/><path class="cls-2" d="M103.22,39.92c1.48-1.15-1.18,0,0,0Z" transform="translate(0.37 0)"/><path class="cls-6" d="M138.91,42.7c-2.8.14,0,.27,0,0Z" transform="translate(0.37 0)"/><path class="cls-2" d="M125,39.74c0,2.36,3.36,0,0,0Z" transform="translate(0.37 0)"/><path class="cls-6" d="M97.27,36.41c2.55.55-.46-2.65,0,0Z" transform="translate(0.37 0)"/><path class="cls-6" d="M100.49,34.37c0,.89.07.05,0,0Z" transform="translate(0.37 0)"/><path class="cls-6" d="M124,32.7c2.75,0,0-1-.17-.2A1.12,1.12,0,0,1,124,32.7Z" transform="translate(0.37 0)"/><path class="cls-2" d="M61.09,27.7c2-1.48-3.14,0,0,0Z" transform="translate(0.37 0)"/><path class="cls-6" d="M100.74,14.93c.52.42,0-1.59,0,0Z" transform="translate(0.37 0)"/><path class="cls-6" d="M97.77,14.56c0-3-2.38.49,0,0Z" transform="translate(0.37 0)"/><path class="cls-2" d="M50.93,8.83c1.37-.64-1.28.14,0,0Z" transform="translate(0.37 0)"/><path class="cls-6" d="M91.57,110.63c-2.18,0,.4,1.69,0,0Z" transform="translate(0.37 0)"/><path class="cls-6" d="M101.48,95.08c-.34-.18-1.41.14,0,0Z" transform="translate(0.37 0)"/><path class="cls-6" d="M86.62,92.31c0-1-1.48-1.77,0,0Z" transform="translate(0.37 0)"/><path class="cls-6" d="M127.26,86.2c0-1.27-3,0,0,0Z" transform="translate(0.37 0)"/><path class="cls-2" d="M63.82,75.28c1.09-2.54-.45,0,0,0Z" transform="translate(0.37 0)"/><path class="cls-6" d="M60.59,65.28c3.31,0,0-1.68,0,0Z" transform="translate(0.37 0)"/><path class="cls-2" d="M120.07,57.69c-3.86.24.09.77,0,0Z" transform="translate(0.37 0)"/><path class="cls-6" d="M109.17,53.44c-.48,1.26,1.25,0,0,0Z" transform="translate(0.37 0)"/><path class="cls-6" d="M152.78,51.59c.12.71,1.69-.29,0,0Z" transform="translate(0.37 0)"/><path class="cls-6" d="M152,48.44c.59,0,.94,0,1.14,0a.38.38,0,0,1-.09-.09C152.58,48.28,151.64,48.27,152,48.44Z" transform="translate(0.37 0)"/><path class="cls-6" d="M71.75,44.18c.11-.4-.36-.35-.75-.37C70.09,44.18,71.77,45.09,71.75,44.18Z" transform="translate(0.37 0)"/><path class="cls-6" d="M130.72,40.48c3.26-.12.26-.63,0,0Z" transform="translate(0.37 0)"/><path class="cls-2" d="M41,36.59c-1.64,0-1.54,1.1,0,0Z" transform="translate(0.37 0)"/><path class="cls-6" d="M111.9,33.82c0,2.85,3-2.35,0,0Z" transform="translate(0.37 0)"/><path class="cls-6" d="M102.72,29.93c0-2.67-2.64,2,0,0Z" transform="translate(0.37 0)"/><path class="cls-2" d="M102.72,27.7c0,.81.4,1.26,0,0Z" transform="translate(0.37 0)"/><path class="cls-2" d="M108.18,25.11c.7.94,0-1.3,0,0Z" transform="translate(0.37 0)"/><path class="cls-6" d="M55.14,19.74c-1.73,1.18,2.35,0,0,0Z" transform="translate(0.37 0)"/><path class="cls-6" d="M122.06,17.16c0,2,1.45-.13,0,0Z" transform="translate(0.37 0)"/><path class="cls-6" d="M36.56,15.86c5.45-2.94-1.51.16,0,0Z" transform="translate(0.37 0)"/><path class="cls-6" d="M61.59,14.56c0,2.42.12-1.49,0,0Z" transform="translate(0.37 0)"/><path class="cls-6" d="M43.74,12.53Z" transform="translate(0.37 0)"/><path class="cls-6" d="M17.4,89.72c.72-2.84-1.54,0,0,0Z" transform="translate(0.37 0)"/><path class="cls-2" d="M22.87,89.23c0-2.69-.13,0,0,0Z" transform="translate(0.37 0)"/><path class="cls-2" d="M22.34,73c-.92,2.93,4.59,0,0,0Z" transform="translate(0.37 0)"/><path class="cls-2" d="M24.45,37.24c-.14,1,2.38.53,0,0Z" transform="translate(0.37 0)"/><path class="cls-6" d="M25.51,83.56c1.54.67,0-2.28,0,0Z" transform="translate(0.37 0)"/><path class="cls-2" d="M29.39,51c-.35-3.14-1.22,0,0,0Z" transform="translate(0.37 0)"/><path class="cls-6" d="M29,94.89c1.79-2.32-.12-.49,0,0Z" transform="translate(0.37 0)"/><path class="cls-6" d="M60.41,65.82c.14,1.12,4,0,0,0Z" transform="translate(0.37 0)"/><path class="cls-6" d="M37.67,34.28c1.11,3.92.25,0,0,0Z" transform="translate(0.37 0)"/><path class="cls-6" d="M38.2,73.46c.08,2.11,1.86,0,0,0Z" transform="translate(0.37 0)"/><path class="cls-6" d="M38.55,30.58c.09,1.26,2.1,0,0,0Z" transform="translate(0.37 0)"/><path class="cls-6" d="M41,70c-.81-1.91-.66,0,0,0Z" transform="translate(0.37 0)"/><path class="cls-2" d="M44,68.29c2.77.15-2.76-2.3,0,0Z" transform="translate(0.37 0)"/><path class="cls-2" d="M49.66,74.19c1.7-.76-3.37-.63,0,0Z" transform="translate(0.37 0)"/><path class="cls-6" d="M61.65,59.41c-1-.91-.21,1.4,0,0Z" transform="translate(0.37 0)"/><path class="cls-6" d="M136.92,90.21c-2.35,3.35.48,0,0,0Z" transform="translate(0.37 0)"/><path class="cls-6" d="M130.75,87.75c-.48,2.54,2.86-1.23,0,0Z" transform="translate(0.37 0)"/><path class="cls-6" d="M68.17,94.4c-.07,2.21.13-1.29,0,0Z" transform="translate(0.37 0)"/><path class="cls-2" d="M72.22,41.92c1.11,0,4.15-.48,0,0Z" transform="translate(0.37 0)"/><path class="cls-2" d="M71.87,38.72c-.25,2.62,1.89-1.76,0,0Z" transform="translate(0.37 0)"/><path class="cls-6" d="M155.6,90.21c.65.76.3-1.56-.17-1.48C155.16,89.55,156.26,89.66,155.6,90.21Z" transform="translate(0.37 0)"/><path class="cls-6" d="M76.1,50.55c1.3-2.65-2.49.14,0,0Z" transform="translate(0.37 0)"/><path class="cls-6" d="M78.57,82.58c-1-1.56-2-2,0,0Z" transform="translate(0.37 0)"/><path class="cls-6" d="M79.63,51.28c.31,0-.31-1,0,0Z" transform="translate(0.37 0)"/><path class="cls-2" d="M79.28,56.21c2.72,0-.14-1.28,0,0Z" transform="translate(0.37 0)"/><path class="cls-6" d="M84.39,58.18c2.34.2-4.36-8.88,0,0Z" transform="translate(0.37 0)"/><path class="cls-2" d="M85.44,37c0,.93.2.27,0,0Z" transform="translate(0.37 0)"/><path class="cls-6" d="M87,63.6c-1.49-2.17-.64.21,0,0Z" transform="translate(0.37 0)"/><path class="cls-6" d="M88.44,98.1c-1.6-3.1-.43.08,0,0Z" transform="translate(0.37 0)"/><path class="cls-6" d="M97.61,106.23c.1-.74-.52-.82,0,0Z" transform="translate(0.37 0)"/><path class="cls-2" d="M108.89,103c.25-3.08-3.51-.45,0,0Z" transform="translate(0.37 0)"/><path class="cls-2" d="M110.48,35.76c.41-.07.4-.66.17-1C110.25,34.58,109.9,36.08,110.48,35.76Z" transform="translate(0.37 0)"/><path class="cls-6" d="M114.71,28.61c1.89-.1-2.58-.19,0,0Z" transform="translate(0.37 0)"/><path class="cls-6" d="M117,48.08c0-1.35-2.87-1,0,0Z" transform="translate(0.37 0)"/><path class="cls-2" d="M124.4,13.83c-.06-.57-.11-1.15-.7-1C123.62,13.62,123.85,13.94,124.4,13.83Z" transform="translate(0.37 0)"/><path class="cls-2" d="M124.76,90.21c0-2.17-.36,2.78,0,0Z" transform="translate(0.37 0)"/><path class="cls-2" d="M126,86.27c-.69,0,.54,3,0,0Z" transform="translate(0.37 0)"/><path class="cls-6" d="M144,49.56c.51-1.46-2,.14,0,0Z" transform="translate(0.37 0)"/><path class="cls-6" d="M126.87,80.36c.51,0-.35-2.35,0,0Z" transform="translate(0.37 0)"/><path class="cls-6" d="M128.63,41.18c0-.15-1.2-.2,0,0Z" transform="translate(0.37 0)"/><path class="cls-2" d="M129.16,12.6c-.07-3-1.43,0,0,0Z" transform="translate(0.37 0)"/><path class="cls-6" d="M130.57,93.91c-2.43,0,.05.24,0,0Z" transform="translate(0.37 0)"/><path class="cls-6" d="M129.87,91.44c-1.06-2.35.76,2.45,0,0Z" transform="translate(0.37 0)"/><path class="cls-6" d="M133.57,13.09c0-2.09-1.59,0,0,0Z" transform="translate(0.37 0)"/><path class="cls-6" d="M14.05,55.72c-.19.06.37,0,0,0Z" transform="translate(0.37 0)"/><path class="cls-6" d="M22.34,93.66c.07.1,1.58-2.36,0,0Z" transform="translate(0.37 0)"/><path class="cls-2" d="M24.81,52.76c0,.18,1.85,0,0,0Z" transform="translate(0.37 0)"/><path class="cls-6" d="M30.45,76.66c.55-1.75-.37-.87,0,0Z" transform="translate(0.37 0)"/><path class="cls-2" d="M33.09,83.8c1.49,0,0-1.82,0,0Z" transform="translate(0.37 0)"/><path class="cls-6" d="M37.85,37c-1.52,2.95,3.2-.31,0,0Z" transform="translate(0.37 0)"/><path class="cls-6" d="M39.61,17.77c.71-.72,1.07-1.44,0,0Z" transform="translate(0.37 0)"/><path class="cls-2" d="M43.14,10.87c1.07,0-1.71-3.72,0,0Z" transform="translate(0.37 0)"/><path class="cls-2" d="M45.78,32.06c1.51.43,0-2.28,0,0Z" transform="translate(0.37 0)"/><path class="cls-6" d="M48.43,44.88c.47,4.8,5.61,0,0,0Z" transform="translate(0.37 0)"/><path class="cls-2" d="M63.41,60.65c-.26-1.48.33,2,0,0Z" transform="translate(0.37 0)"/><path class="cls-6" d="M74.16,100.56c-2.56-3,.18,1.19,0,0Z" transform="translate(0.37 0)"/><path class="cls-6" d="M73.11,52.27c2.53.78,0-.54,0,0Z" transform="translate(0.37 0)"/><path class="cls-6" d="M76.63,79.62c0-2.64-.13.27,0,0Z" transform="translate(0.37 0)"/><path class="cls-6" d="M113,27.14c1.62,2.2-.72-4.38,0,0Z" transform="translate(0.37 0)"/><path class="cls-6" d="M131.45,55.23c.09.23-.18-1.4,0,0Z" transform="translate(0.37 0)"/><path class="cls-2" d="M132.69,19.25c1.83-.42-.22-1.31,0,0Z" transform="translate(0.37 0)"/><path class="cls-2" d="M134.28,22.21c0-.2-.15-.77,0,0Z" transform="translate(0.37 0)"/><path class="cls-6" d="M135.86,29.1c0-2.39-.9.38,0,0Z" transform="translate(0.37 0)"/><path class="cls-2" d="M137.45,62.12c0,1.36,2.44-.74,0,0Z" transform="translate(0.37 0)"/><path class="cls-6" d="M142.56,30.58c0,.34,3.81-1.25,0,0Z" transform="translate(0.37 0)"/><path class="cls-6" d="M151.2,69c-.31.06-.88-.25-.71.5C150.57,70.06,151.53,69.84,151.2,69Z" transform="translate(0.37 0)"/><path class="cls-6" d="M153,48.08a1.29,1.29,0,0,0,.13.24c.3,0,.45.07.09.09.29.23.64-.16,1.19-.08C154.24,47.77,153.38,48.23,153,48.08Z" transform="translate(0.37 0)"/><path class="cls-6" d="M153.09,48.32a.38.38,0,0,0,.09.09C153.54,48.39,153.39,48.35,153.09,48.32Z" transform="translate(0.37 0)"/><path class="cls-6" d="M153.09,48.32a.38.38,0,0,0,.09.09C153.54,48.39,153.39,48.35,153.09,48.32Z" transform="translate(0.37 0)"/><path class="cls-2" d="M155.78,69.76c-.28,2.43,4,0,0,0Z" transform="translate(0.37 0)"/><path class="cls-6" d="M161.77,62.62c0,.74-.1,1.62.53,1.47C162.17,63.54,162.2,62.76,161.77,62.62Z" transform="translate(0.37 0)"/><path class="cls-2" d="M107.9,47.09c.46.39-.22-3.6,0,0Z" transform="translate(0.37 0)"/><path class="cls-6" d="M99.71,42.66c2.76,0-2.85-2.81,0,0Z" transform="translate(0.37 0)"/><path class="cls-6" d="M107.71,87.5c3.52.68-5.19-2.24,0,0Z" transform="translate(0.37 0)"/><path class="cls-6" d="M111.81,40.19c-1.13,0,0,2.44,0,0Z" transform="translate(0.37 0)"/><path class="cls-6" d="M113.3,32.8s0,.43,0,0Z" transform="translate(0.37 0)"/><path class="cls-6" d="M124.09,33.54a1.56,1.56,0,0,0-.13-.84h-.17a.45.45,0,0,1,0-.2.8.8,0,0,0-.44-.19C123.36,33,123.77,33.23,124.09,33.54Z" transform="translate(0.37 0)"/><path class="cls-6" d="M123.79,32.7H124a1.12,1.12,0,0,0-.17-.2A.45.45,0,0,0,123.79,32.7Z" transform="translate(0.37 0)"/><path class="cls-6" d="M123.79,32.7H124a1.12,1.12,0,0,0-.17-.2A.45.45,0,0,0,123.79,32.7Z" transform="translate(0.37 0)"/><path class="cls-6" d="M123.91,51c0,1.7,1.8-.7,0,0Z" transform="translate(0.37 0)"/><path class="cls-2" d="M136.75,41.92c0-3-1.88-2,0,0Z" transform="translate(0.37 0)"/><path class="cls-6" d="M139,76.41c0,.58.36,1,0,1.49C140,78.17,139.45,76.36,139,76.41Z" transform="translate(0.37 0)"/><path class="cls-6" d="M141,62.12c1,0,.22-2.41,0,0Z" transform="translate(0.37 0)"/><path class="cls-6" d="M141.78,25.41c.6-2.88-2-.53,0,0Z" transform="translate(0.37 0)"/><path class="cls-6" d="M157.79,87c.06-.65-.26-.81-.75-.74C157,86.92,157.3,87.08,157.79,87Z" transform="translate(0.37 0)"/><path class="cls-6" d="M161,65.08c-.72-.79-.49,2.69,0,0Z" transform="translate(0.37 0)"/><path class="cls-6" d="M164.86,68.78c.31-4.1-2,.44,0,0Z" transform="translate(0.37 0)"/><path class="cls-6" d="M98,32.8c.68,3.38,1.37-.08,0,0Z" transform="translate(0.37 0)"/><path class="cls-6" d="M102.5,103.52c.13-.19.46-1.21-.19-1C102.18,102.71,101.85,103.74,102.5,103.52Z" transform="translate(0.37 0)"/><path class="cls-6" d="M125.4,89.72c0-1.53-.21,0,0,0Z" transform="translate(0.37 0)"/><path class="cls-6" d="M139.54,20.48c-.19-1.54-1-.79,0,0Z" transform="translate(0.37 0)"/><path class="cls-6" d="M145.88,54.73c2.05-.63,0-1,0,0Z" transform="translate(0.37 0)"/><path class="cls-2" d="M139.17,91.44c0-2,0,.8,0,0Z" transform="translate(0.37 0)"/><path class="cls-6" d="M75.5,76.9c-2.09,7,.79-.3,0,0Z" transform="translate(0.37 0)"/><path class="cls-6" d="M63.61,76.19c.63,4.59,4.15-3.7,0,0Z" transform="translate(0.37 0)"/><path class="cls-6" d="M129.42,81.78c.63-.27-1-3.51,0,0Z" transform="translate(0.37 0)"/><path class="cls-6" d="M107.25,66.35c1.53.91-.39-2.83-1.14-2.42C106.11,65.47,108.05,65,107.25,66.35Z" transform="translate(0.37 0)"/><path class="cls-2" d="M107.59,87.18c.62-.47-2.45-9.22,0,0Z" transform="translate(0.37 0)"/><path class="cls-2" d="M54.83,83.77c-1.22-3.72,1,4.93,0,0Z" transform="translate(0.37 0)"/><path class="cls-2" d="M54.68,76.36c-1.17.4,2.61,4.73,0,0Z" transform="translate(0.37 0)"/><path class="cls-6" d="M52.8,65.82c.87-.29-1.95-3.78,0,0Z" transform="translate(0.37 0)"/><path class="cls-6" d="M66.83,86.76c-4.18,1.34.24.42,0,0Z" transform="translate(0.37 0)"/><path class="cls-6" d="M64.22,83c-3.15-3.42,2.72,3.73,0,0Z" transform="translate(0.37 0)"/><path class="cls-6" d="M109.29,76.36c-1.55-4.57.56,1.83,0,0Z" transform="translate(0.37 0)"/><path class="cls-6" d="M46.23,20.54c.28.35-1.13-2.27,0,0Z" transform="translate(0.37 0)"/><path class="cls-2" d="M60.35,28.87c.79,2.3,3.72-2.64,0,0Z" transform="translate(0.37 0)"/><path class="cls-2" d="M90.57,105.86c2.2,3.74-2.43-4.29,0,0Z" transform="translate(0.37 0)"/><path class="cls-6" d="M86.73,34.07c.44.88,2,0,.92-1.25C87.16,33.1,86,32.9,86.73,34.07Z" transform="translate(0.37 0)"/><path class="cls-6" d="M102,16c.42,1.27.76,2.81,1.74,2.21C103.16,17.32,102.77,16,102,16Z" transform="translate(0.37 0)"/><path class="cls-6" d="M121,62.7c1.5,1.7,2.6-.81,0,0Z" transform="translate(0.37 0)"/><path class="cls-6" d="M148.89,44.59c-1.18-2.92-1.68,1.15,0,0Z" transform="translate(0.37 0)"/><path class="cls-6" d="M24.33,88.79c6.32-.82-10.08-.86,0,0Z" transform="translate(0.37 0)"/><path class="cls-6" d="M71.13,52.28c.43.95,1.2,1.52.85,2.52C73.89,54.68,71.89,51.93,71.13,52.28Z" transform="translate(0.37 0)"/><path class="cls-6" d="M66.44,26.85c1.66-.55-1-4.22,0,0Z" transform="translate(0.37 0)"/><path class="cls-6" d="M109.13,59.66c-.28-1.13-.9-1.22-1.69-.83C107.72,60,108.35,60.06,109.13,59.66Z" transform="translate(0.37 0)"/><path class="cls-6" d="M102,20.63c-1.67-1,.73,4.82,0,0Z" transform="translate(0.37 0)"/><path class="cls-6" d="M110.73,24.69c-1.88-7.1-3.1,1.86,0,0Z" transform="translate(0.37 0)"/><path class="cls-6" d="M55.64,82.56c-.88-2.59-.34.11,0,0Z" transform="translate(0.37 0)"/><path class="cls-2" d="M92.61,79.58c.67.45,1.43.21.67-1.15C92.62,78,91.85,78.22,92.61,79.58Z" transform="translate(0.37 0)"/><path class="cls-2" d="M129.15,33.46c4.27-1.5-.07,0,0,0Z" transform="translate(0.37 0)"/><path class="cls-6" d="M132.67,39.74c.86-.29-.52-1.61,0,0Z" transform="translate(0.37 0)"/><path class="cls-2" d="M159.75,80.53c-3.45,1.22,1.73,3.33,0,0Z" transform="translate(0.37 0)"/><path class="cls-2" d="M80,77.72c-1.23-3.41.38,1.38,0,0Z" transform="translate(0.37 0)"/><path class="cls-2" d="M159.62,53.77c1.36-.45-1.14-5.93,0,0Z" transform="translate(0.37 0)"/><path class="cls-2" d="M25.41,91.76c3-.83,1.82-2.35,0,0Z" transform="translate(0.37 0)"/><path class="cls-6" d="M137.78,51.43c.83-.28-2.32-6.8,0,0Z" transform="translate(0.37 0)"/><path class="cls-6" d="M88.22,25.19c-2.56-2.28,1.48,4.32,0,0Z" transform="translate(0.37 0)"/><path class="cls-2" d="M136.71,12.05c.81,1.91,3.57-1.13,0,0Z" transform="translate(0.37 0)"/><path class="cls-6" d="M91.5,50.25c.21-.07,2.37-1.18,0,0Z" transform="translate(0.37 0)"/><path class="cls-6" d="M60.48,65.2l.3.89C62.86,65.8,62.62,64,60.48,65.2Z" transform="translate(0.37 0)"/><path class="cls-2" d="M49.9,99.18c-.21.18.25-.05,0,0Z" transform="translate(0.37 0)"/><path class="cls-6" d="M120.12,82.46c3.68-2.35-1-3,0,0Z" transform="translate(0.37 0)"/><path class="cls-2" d="M71.46,100.62c5.26-1.77-.53-1.65,0,0Z" transform="translate(0.37 0)"/><path class="cls-6" d="M117.81,96.47c.14.82.91.78,2,.33C119.66,96,118.88,96,117.81,96.47Z" transform="translate(0.37 0)"/><path class="cls-6" d="M108.78,16.7c-.82-2.54-2.54.84,0,0Z" transform="translate(0.37 0)"/><path class="cls-2" d="M130.42,46.26c-6.56,4.56,4.69-1.79,0,0Z" transform="translate(0.37 0)"/><path class="cls-6" d="M35.88,85.3c1.65-.65-3.9,1.24,0,0Z" transform="translate(0.37 0)"/><path class="cls-6" d="M119.45,58.18c-.76-2.14.92,2.69,0,0Z" transform="translate(0.37 0)"/><path class="cls-6" d="M35.1,88.54c-1.18,2.58,3.58-1.2,0,0Z" transform="translate(0.37 0)"/><path class="cls-2" d="M42.65,94.3c-.21,0,3,1.14,0,0Z" transform="translate(0.37 0)"/><path class="cls-6" d="M82.14,100.38c2.76-1.18-.33.06,0,0Z" transform="translate(0.37 0)"/><path class="cls-6" d="M100.23,95.69c0-.35-.06-.13,0,0Z" transform="translate(0.37 0)"/><path class="cls-6" d="M95.65,65.39c.8-.32,1.48-3,.21-2.17C94.8,63.62,95.38,64.55,95.65,65.39Z" transform="translate(0.37 0)"/><path class="cls-6" d="M97.66,68.57c5.44-.64.58-2.19,0,0Z" transform="translate(0.37 0)"/><path class="cls-6" d="M125,98.3c.15,2.25,0,0,0,0Z" transform="translate(0.37 0)"/><path class="cls-6" d="M61.35,80.29c-3.22,2.9,3.51,1.53,0,0Z" transform="translate(0.37 0)"/><path class="cls-6" d="M58,99.59c-2,.75,0,.29,0,0Z" transform="translate(0.37 0)"/></g></svg>