<svg id="Layer_1" data-name="Layer 1" xmlns="http://www.w3.org/2000/svg" viewBox="0 0 549.29 323.12"><defs><style>.cls-1{fill:#b4a890;opacity:0.1;}.cls-2{fill:#fff;}.cls-3{fill:#ce675c;}</style></defs><title>logo-lockup</title><ellipse class="cls-1" cx="274.64" cy="178.1" rx="139.75" ry="277.14" transform="translate(56.02 414.66) rotate(-81.06)"/><path class="cls-2" d="M104.31,12.18c.68,0,1.06.64,1.15,2,0,.5.07,1.15.11,1.94s.07,1.89.09,3.3,0,3.21.06,5.4,0,4.92,0,8.2l0,9.27c.57,0,1.06-.08,1.49-.13s.81-.08,1.15-.1a4.11,4.11,0,0,1,2,.19,1.09,1.09,0,0,1,.61,1,1.17,1.17,0,0,1-.46,1.07,2.73,2.73,0,0,1-1.31.51,10.34,10.34,0,0,1-1.39.15l-2,.13c0,1.57,0,2.91,0,4s0,2.12.08,3.06,0,1.89.08,2.83,0,2,.05,3.28a15.14,15.14,0,0,1,1.59-3,12.75,12.75,0,0,1,2.42-2.68,12.75,12.75,0,0,1,7.58-3,15.28,15.28,0,0,1,6.37.78,11.6,11.6,0,0,1,4.65,3.14,14.89,14.89,0,0,1,3,5.27A27.68,27.68,0,0,1,132.81,66a48.24,48.24,0,0,1-.07,7.11q-.3,3.59-.7,6.92t-.74,6.18a26.9,26.9,0,0,0-.22,4.89,9.19,9.19,0,0,0,.65,3,6.91,6.91,0,0,0,1.77,2.41,10.64,10.64,0,0,0,1.36,1.14l1,.67a5,5,0,0,1,.57.44.61.61,0,0,1,.22.48.48.48,0,0,1-.16.38,1,1,0,0,1-.65.22,5.59,5.59,0,0,1-2-.32c-.77-.25-1.6-.53-2.51-.86s-1.86-.65-2.87-1a15.68,15.68,0,0,0-3.13-.65,33.18,33.18,0,0,0-4.38-.19c-1.49,0-3,.09-4.48.18-1.29.08-2-.17-2-.76a.69.69,0,0,1,.39-.64,5,5,0,0,1,1.06-.41l1.49-.4a9.14,9.14,0,0,0,1.67-.62,11.84,11.84,0,0,0,1.56-.88A7,7,0,0,0,122,92.08,7.5,7.5,0,0,0,123,90.35a12.65,12.65,0,0,0,.79-2.35q.28-1.38.6-3.6c.21-1.48.39-3.16.54-5.06s.25-4,.29-6.17,0-4.53-.17-6.93a41.43,41.43,0,0,0-.78-6,15.27,15.27,0,0,0-1.62-4.5A6.62,6.62,0,0,0,116,52.2a8,8,0,0,0-3.55,1,8.92,8.92,0,0,0-2.5,2.18,11.26,11.26,0,0,0-1.66,2.85,20.2,20.2,0,0,0-1,3,23.08,23.08,0,0,0-.49,2.76c-.09.85-.16,1.51-.2,2q-.09,1.09-.15,2.67c0,1,0,2.17-.06,3.36s0,2.42,0,3.68.09,2.46.17,3.62c0,.59.07,1.13.1,1.63s.09,1,.16,1.49a14.7,14.7,0,0,0,4.55-1.23,9.41,9.41,0,0,0,2.77-2,6,6,0,0,0,1.35-2.32,6.72,6.72,0,0,0,.28-2.23,3.51,3.51,0,0,0-.62-1.89c-.36-.48-.75-.95-1.16-1.41A15,15,0,0,1,112.9,70a3.73,3.73,0,0,1-.62-2,4.63,4.63,0,0,1,.23-1.87,3.7,3.7,0,0,1,.83-1.4,3.65,3.65,0,0,1,1.27-.89,4.62,4.62,0,0,1,1.51-.35,4.13,4.13,0,0,1,3.19,1,5.07,5.07,0,0,1,1.4,3.51,18.45,18.45,0,0,1,0,2.42,15.39,15.39,0,0,1-.53,3,16.33,16.33,0,0,1-1.33,3.29,12.53,12.53,0,0,1-2.4,3.16,15.51,15.51,0,0,1-3.77,2.62,19.66,19.66,0,0,1-5.38,1.73,5,5,0,0,0,.88,2.23,8,8,0,0,0,1.59,1.68,10.3,10.3,0,0,0,1.83,1.18,12.3,12.3,0,0,0,1.56.67c.72.25,1.33.44,1.83.56s.75.35.77.67a.6.6,0,0,1-.29.51,2.34,2.34,0,0,1-1.19.3,9.91,9.91,0,0,1-2-.09l-2.37-.33c-.86-.11-1.79-.21-2.78-.3a21.67,21.67,0,0,0-3.23,0,21,21,0,0,0-3.56.55c-1.22.29-2.37.61-3.47.94l-2.9.9a8.52,8.52,0,0,1-1.88.44q-.58,0-.6-.3c0-.2.08-.4.37-.6a11,11,0,0,1,1.11-.67l1.62-.84a14,14,0,0,0,1.87-1.14,7.12,7.12,0,0,0,2.43-2.75,8.52,8.52,0,0,0,.93-3.39,20.08,20.08,0,0,1-7.58-2.45,15.3,15.3,0,0,1-4.89-4.56,19.33,19.33,0,0,1-2.74-6.32,44.14,44.14,0,0,1-1.14-7.75c-.09-1.31-.11-2.69-.08-4.12s.08-2.82.14-4.15.12-2.56.18-3.68,0-2,0-2.72a4,4,0,0,0-.48-1.87,1.59,1.59,0,0,0-1.55-.53c-.66,0-1.32.12-2,.23s-1.33.24-2,.37-1.33.26-2,.36a16.15,16.15,0,0,1-1.81.22,1.94,1.94,0,0,1-1.35-.25,1.12,1.12,0,0,1-.39-.79c0-.62.38-1,1.25-1.21,1.62-.33,3-.65,4.2-1s2.24-.64,3.16-1a20.94,20.94,0,0,0,2.49-1.06A20.63,20.63,0,0,0,85.4,41a12.59,12.59,0,0,0,3-2.61,31.63,31.63,0,0,0,2-2.79l1.46-2.23c.4-.6.79-.91,1.15-.94s.63.19.65.64a4.73,4.73,0,0,1-.2,1.53c-.17.59-.36,1.23-.58,1.91a20.59,20.59,0,0,0-.56,2.12,7.7,7.7,0,0,0-.18,2.11,3,3,0,0,0,.46,1.48A1.81,1.81,0,0,0,94,43a11.82,11.82,0,0,0,2.32,0c1,0,2.26-.13,3.73-.22l0-3.91V35.24c0-1.14,0-2.17,0-3.08s-.05-1.6-.08-2.07c-.05-.89-.13-1.72-.23-2.51a11.38,11.38,0,0,0-.46-2.17,6.54,6.54,0,0,0-.84-1.74A3.53,3.53,0,0,0,97,22.5a4.67,4.67,0,0,0-2-.38c-.83,0-1.64,0-2.44.05l-2.25.18c-.8.08-1.42.13-1.85.15a3.55,3.55,0,0,1-1.2-.07.61.61,0,0,1-.44-.6c0-.28.14-.47.49-.6a9.49,9.49,0,0,1,1.49-.35c.7-.14,1.39-.28,2.09-.44s1.4-.35,2.12-.58a22.74,22.74,0,0,0,2.2-.82,19.54,19.54,0,0,0,2.26-1.17A15.19,15.19,0,0,0,100.1,16q1.08-1,1.86-1.83c.52-.54,1-1,1.33-1.36A1.69,1.69,0,0,1,104.31,12.18ZM90.65,64q.19,3,.66,5.91a23.11,23.11,0,0,0,1.47,5.37,12.77,12.77,0,0,0,2.74,4.22A8.93,8.93,0,0,0,100,81.93c0-1.32.06-2.9.08-4.74s0-3.79,0-5.85,0-4.14,0-6.24,0-4.09,0-6,0-3.55,0-5,0-2.6,0-3.38V45.28c-1.16,0-2.26,0-3.31.09l-2.61.15a3.93,3.93,0,0,0-1.59.4,2.76,2.76,0,0,0-1,.81,3.45,3.45,0,0,0-.5,1,8.56,8.56,0,0,0-.22,1c-.1.6-.18,1.49-.25,2.68s-.12,2.49-.14,3.93,0,2.9,0,4.41S90.57,62.73,90.65,64Z" transform="translate(0.01 -7.05)"/><path class="cls-2" d="M162.36,65.39a10.18,10.18,0,0,1,1.56,4.7,11.38,11.38,0,0,1-.53,4.49A8.92,8.92,0,0,1,161.26,78a10.5,10.5,0,0,1-3.55,2.29,15.18,15.18,0,0,1-4.79,1,17.3,17.3,0,0,1-7-.86,14.2,14.2,0,0,1-5.35-3.32,16,16,0,0,1-3.51-5.39,21.93,21.93,0,0,1-1.54-7,24.85,24.85,0,0,1,.34-6.39,20.2,20.2,0,0,1,1.71-5.23A17.79,17.79,0,0,1,140.31,49a17.34,17.34,0,0,1,3.43-3,15.85,15.85,0,0,1,3.76-1.86,14.62,14.62,0,0,1,3.77-.77,15.75,15.75,0,0,1,3.77.23,10.41,10.41,0,0,1,3.65,1.4,9.05,9.05,0,0,1,2.84,2.87,9.79,9.79,0,0,1,1.34,4.67,12,12,0,0,1-.45,4.4,10.74,10.74,0,0,1-4.27,5.76,16.1,16.1,0,0,1-3,1.6,16.74,16.74,0,0,1-3,.93,20.55,20.55,0,0,1-2.65.38,22.11,22.11,0,0,1-3.26,0,18,18,0,0,1-2.49-.36,22.86,22.86,0,0,0,1.16,5.06,14.3,14.3,0,0,0,2.26,4.2,9.91,9.91,0,0,0,3.4,2.78,8.72,8.72,0,0,0,4.57.84,7.27,7.27,0,0,0,3.07-.82,6,6,0,0,0,2.05-1.78,6.75,6.75,0,0,0,1.1-2.47,9.85,9.85,0,0,0,.22-2.88,13.46,13.46,0,0,0-.23-1.83,8.47,8.47,0,0,0-.54-1.77c-.16-.33-.29-.64-.4-.93a2.47,2.47,0,0,1-.18-.7c0-.45.16-.69.56-.72a1.3,1.3,0,0,1,.75.26A3,3,0,0,1,162.36,65.39ZM143.43,63a13.46,13.46,0,0,0,2,.33,17.49,17.49,0,0,0,2.83,0,8.66,8.66,0,0,0,3.58-1,8.33,8.33,0,0,0,2.72-2.27,9.79,9.79,0,0,0,1.66-3.36,12.64,12.64,0,0,0,.41-4.29A11.63,11.63,0,0,0,156,49a6.45,6.45,0,0,0-1.35-2.18,4.34,4.34,0,0,0-1.79-1.1,6,6,0,0,0-2-.23,6.2,6.2,0,0,0-2.74,1,7.84,7.84,0,0,0-2.59,2.9,17,17,0,0,0-1.77,5.34A33.83,33.83,0,0,0,143.43,63Z" transform="translate(0.01 -7.05)"/><path class="cls-2" d="M62.4,91.56a9.13,9.13,0,0,1,2.7.79c1.11.48,2.42,1.05,3.94,1.73s3.22,1.4,5.12,2.15,4,1.44,6.2,2.08,4.53,1.2,7,1.68,4.78.9,7,1.25,4.11.64,5.78.88l3.36.5a5.63,5.63,0,0,1,1.28.42.78.78,0,0,1,.43.82.83.83,0,0,1-.59.8,3.43,3.43,0,0,1-1.17.11c-.85-.07-2.09-.22-3.71-.47s-3.35-.43-5.16-.57a14.94,14.94,0,0,0-3.59.09,6,6,0,0,0-2.64,1.05A5.79,5.79,0,0,0,86.54,107a11.08,11.08,0,0,0-1,3.5c-.14.8-.27,1.85-.39,3.13s-.25,2.73-.39,4.31-.29,3.26-.43,5l-.42,5.46L83.43,135,83,140.85c-.14,1.77-.25,3.28-.33,4.51s-.11,2.09-.11,2.55a9.38,9.38,0,0,0,.16,2.46,3.47,3.47,0,0,0,.7,1.51,2.55,2.55,0,0,0,1.16.78,6.19,6.19,0,0,0,1.54.3c1.08.08,2.39.14,3.94.16s3.21,0,5,0,3.54-.06,5.33-.13,3.45-.14,5-.19l4.06-.18c1.17-.06,2-.12,2.45-.16a6.54,6.54,0,0,0,3.23-1.08,6,6,0,0,0,1.89-2.24,11.05,11.05,0,0,0,.94-3.1c.19-1.16.33-2.38.43-3.65.14-1.74.21-3.53.22-5.37s0-3.59-.09-5.27-.14-3.19-.25-4.55-.19-2.4-.25-3.1a10.76,10.76,0,0,0-.77-3.58,5.59,5.59,0,0,0-1.39-2,4.06,4.06,0,0,0-1.67-.89,11.13,11.13,0,0,0-1.58-.27c-1.31-.1-2.65-.17-4-.2s-2.44-.07-3.21-.13a2.89,2.89,0,0,1-1.73-.6,1.45,1.45,0,0,1-.51-1.26,1.83,1.83,0,0,1,.59-1.18,3.48,3.48,0,0,1,2.39-.51c1.16,0,2.47.09,3.92.1s3,0,4.6,0,3.25-.13,4.93-.23,3.33-.26,5-.48c1.49-.23,3.09-.52,4.81-.88l5-1c1.63-.32,3.15-.58,4.57-.8a15.43,15.43,0,0,1,3.44-.23q1.33.11,1.65.54a1.33,1.33,0,0,1,.28.89,1.16,1.16,0,0,1-.75,1.08,3.53,3.53,0,0,1-1.5.2q-.41,0-1.11,0a12.56,12.56,0,0,0-1.46.09,13.58,13.58,0,0,0-1.53.26,3.74,3.74,0,0,0-1.32.54,7.74,7.74,0,0,0-1.87,1.91,11.52,11.52,0,0,0-1.49,3.81c-.3,1.37-.58,3.11-.84,5.2s-.52,4.29-.78,6.6-.5,4.61-.74,6.92-.45,4.36-.63,6.17c-.11.92-.26,2.28-.46,4.06s-.41,3.85-.63,6.18-.47,4.87-.74,7.61-.54,5.55-.8,8.37-.51,5.66-.75,8.49-.46,5.48-.65,8l-.45,5.72c-.14,1.74-.21,3.22-.23,4.46a9.73,9.73,0,0,0,.25,3.07,7,7,0,0,0,.86,2,4.6,4.6,0,0,0,1.16,1.2,11.16,11.16,0,0,0,1.2.7,14.33,14.33,0,0,0,2.66.9c1,.23,2,.53,3.07.88a2.18,2.18,0,0,1,1,.52.89.89,0,0,1,.18.63,1.41,1.41,0,0,1-.08.31.79.79,0,0,1-.29.35,1.62,1.62,0,0,1-.69.24,5.75,5.75,0,0,1-1.28,0c-.46,0-1.28-.15-2.45-.34l-3.93-.66c-1.45-.25-3-.48-4.48-.7s-2.9-.37-4.09-.46c-1.58-.12-3.15-.18-4.7-.17s-3,.06-4.43.12-2.72.12-4,.16a29.07,29.07,0,0,1-3.31-.06c-1.62-.12-2.65-.41-3.08-.85a1.72,1.72,0,0,1-.59-1.35,1.12,1.12,0,0,1,.82-1.13,5,5,0,0,1,1.78-.12c2.2.09,4,.13,5.54.11a13.27,13.27,0,0,0,4.28-.74,8.07,8.07,0,0,0,2.47-1.46,6.54,6.54,0,0,0,1.49-2,9.78,9.78,0,0,0,.76-2.27,19,19,0,0,0,.32-2.27c0-.58.09-1.62.13-3.13s.07-3.28.09-5.31,0-4.21,0-6.51,0-4.56,0-6.75,0-4.2-.08-6-.08-3.26-.15-4.31a13.08,13.08,0,0,0-.51-2.8,4.16,4.16,0,0,0-.92-1.62,2.92,2.92,0,0,0-1.37-.77,9.88,9.88,0,0,0-1.78-.29c-.69,0-1.75-.07-3.16-.07l-4.77.06c-1.77,0-3.62.1-5.54.18s-3.74.17-5.43.27-3.21.22-4.54.35a17.53,17.53,0,0,0-2.76.42,4.66,4.66,0,0,0-1.81.79,3.71,3.71,0,0,0-1,1.17,4.69,4.69,0,0,0-.48,1.36c-.1.48-.18.94-.26,1.4-.09,1.12-.2,2.64-.33,4.57s-.28,4.06-.44,6.39-.32,4.78-.49,7.35-.32,5-.49,7.43-.32,4.6-.46,6.63-.26,3.67-.36,4.94a22.11,22.11,0,0,0,0,4.42,9.18,9.18,0,0,0,.71,2.76,5.27,5.27,0,0,0,1.26,1.73,17.89,17.89,0,0,0,1.65,1.26c.62.4,1.22.76,1.77,1.1a1.31,1.31,0,0,1,.78,1.25.66.66,0,0,1-.43.61,2.18,2.18,0,0,1-.91.1,9.61,9.61,0,0,1-2.49-.54c-.84-.3-1.84-.62-3-1s-2.5-.69-4.08-1a42.8,42.8,0,0,0-5.72-.8,46.56,46.56,0,0,0-6.42-.09c-2,.12-3.74.28-5.3.49s-2.92.4-4.06.58a12,12,0,0,1-2.75.19c-1.43-.11-2.1-.67-2-1.67a1.68,1.68,0,0,1,.59-1.29,4.41,4.41,0,0,1,1.36-.59,11,11,0,0,1,1.18-.2c.55-.07,1.2-.15,2-.22s1.6-.18,2.5-.3l2.76-.42a8,8,0,0,0,3-1,5.23,5.23,0,0,0,1.68-1.7,6.27,6.27,0,0,0,.77-2.12c.14-.77.26-1.53.36-2.3q0-.34.24-2.34t.57-5c.23-2,.49-4.32.77-6.92s.57-5.29.86-8.07.58-5.58.83-8.37.51-5.44.74-7.94c0-.58.13-1.53.25-2.86s.26-2.91.4-4.76.32-3.91.52-6.19.39-4.64.58-7.1q.39-4.92.75-10t.63-9.52c.18-3,.3-5.55.38-7.79a46.77,46.77,0,0,0,0-4.83,19.4,19.4,0,0,0-.4-3,9.34,9.34,0,0,0-.92-2.42,10.5,10.5,0,0,0-1.5-2,15,15,0,0,0-2.15-1.85C66,96.92,65.24,96.41,64.5,96l-2-1.2a6,6,0,0,1-1.34-1.07,1.42,1.42,0,0,1-.44-1.11,1.11,1.11,0,0,1,.41-.81A1.81,1.81,0,0,1,62.4,91.56Z" transform="translate(0.01 -7.05)"/><path class="cls-2" d="M158.29,161.45a10,10,0,0,1-3.95-1.12,9,9,0,0,1-3.08-2.68,12.12,12.12,0,0,1-1.88-4.22,18.31,18.31,0,0,1-.36-5.78,25.11,25.11,0,0,1,1.56-7,17.72,17.72,0,0,1,3.63-5.88,15.71,15.71,0,0,1,5.8-3.88,18.33,18.33,0,0,1,8.13-1,21.26,21.26,0,0,1,6.77,1.55,18.55,18.55,0,0,1,5,3.12,18.13,18.13,0,0,1,3.53,4.26,28.23,28.23,0,0,1,2.32,4.92,36.87,36.87,0,0,1,1.43,5.12q.53,2.57.87,4.86c.13.87.28,2.09.44,3.67s.35,3.41.54,5.48.38,4.28.58,6.65.4,4.75.6,7.17.39,4.77.58,7.05.37,4.37.53,6.26.3,3.52.41,4.86.2,2.28.27,2.79c.14,1.21.31,2.44.5,3.7a20.27,20.27,0,0,0,.83,3.47,8.33,8.33,0,0,0,1.45,2.64,3.38,3.38,0,0,0,2.41,1.17,2.79,2.79,0,0,0,1.54-.28,3,3,0,0,0,1.09-1,5.71,5.71,0,0,0,.68-1.52,9.33,9.33,0,0,0,.31-1.78c.06-.73.09-1.47.12-2.23s0-1.4.09-1.94a4.24,4.24,0,0,1,.35-1.48.91.91,0,0,1,1-.57,1.15,1.15,0,0,1,1,.81,6.46,6.46,0,0,1,.44,1.72,12.46,12.46,0,0,1,.12,1.92c0,.64,0,1.12-.06,1.43a33.58,33.58,0,0,1-.7,4.53,17.5,17.5,0,0,1-1.83,4.8,8.82,8.82,0,0,1-3.78,3.72,10.09,10.09,0,0,1-5.73,1.12,12.61,12.61,0,0,1-4.7-1.18,12.31,12.31,0,0,1-3.26-2.29,13.47,13.47,0,0,1-2.16-2.78,18.78,18.78,0,0,1-1.33-2.73,27.94,27.94,0,0,1-1.92-7c-.37-2.53-.63-4.94-.8-7.24a32.15,32.15,0,0,1-2.91,3.38A25.73,25.73,0,0,1,170,201.8a26.2,26.2,0,0,1-6.27,2.88,20.08,20.08,0,0,1-7.68.8,21.35,21.35,0,0,1-7.79-1.92,14.63,14.63,0,0,1-5.07-3.94,13.86,13.86,0,0,1-2.65-5.45,19.65,19.65,0,0,1-.49-6.4,20.94,20.94,0,0,1,1.89-7.12,17.6,17.6,0,0,1,4.88-6.25,22.83,22.83,0,0,1,8.29-4.18,33.89,33.89,0,0,1,12.08-.91,31,31,0,0,1,3.14.39c1,.17,1.93.35,2.75.53s1.53.35,2.11.51,1,.28,1.29.34q0-5-.09-10c0-1.4-.1-2.88-.15-4.43s-.12-3.12-.19-4.7-.16-3.12-.27-4.64-.26-3-.42-4.28a13.52,13.52,0,0,0-3.06-7.36,9.42,9.42,0,0,0-6.65-3.17,9.13,9.13,0,0,0-4,.5,9.44,9.44,0,0,0-3.05,1.85,8.42,8.42,0,0,0-2,2.73,9.1,9.1,0,0,0-.82,3.1,4.69,4.69,0,0,0,.59,2.87,8.87,8.87,0,0,0,1.84,2.15,25.13,25.13,0,0,0,2.44,1.85,16.73,16.73,0,0,1,2.43,2,9.29,9.29,0,0,1,1.81,2.58,7.21,7.21,0,0,1,.53,3.62,5.78,5.78,0,0,1-2.29,4.39A6.91,6.91,0,0,1,158.29,161.45Zm18.39,13.25a10.94,10.94,0,0,0-1.38-.55c-.66-.22-1.45-.46-2.36-.7s-1.89-.47-2.94-.67a28.46,28.46,0,0,0-3.14-.42,18.16,18.16,0,0,0-5.76.42,12.64,12.64,0,0,0-4.74,2.22,12,12,0,0,0-3.34,4,14.87,14.87,0,0,0-1.56,5.84,11.16,11.16,0,0,0,.61,5.13,8.6,8.6,0,0,0,2.36,3.36,9.88,9.88,0,0,0,3.4,1.89,15.91,15.91,0,0,0,3.75.76,17.05,17.05,0,0,0,5.68-.48,25.17,25.17,0,0,0,4.85-1.78,20.54,20.54,0,0,0,3.48-2.11,14,14,0,0,0,1.68-1.44q-.11-3.9-.2-7.11c0-.93-.08-1.85-.11-2.74s-.06-1.73-.09-2.51-.07-1.44-.11-2S176.7,174.93,176.68,174.7Z" transform="translate(0.01 -7.05)"/><path class="cls-2" d="M223,133.54c.31,0,.58.54.81,1.55a36.44,36.44,0,0,1,.62,3.91c.19,1.61.35,3.45.5,5.54s.29,4.2.43,6.34l1,14.73a34.24,34.24,0,0,1,1.35-4.31,37.67,37.67,0,0,1,2.34-5,35.5,35.5,0,0,1,3.35-5,24.81,24.81,0,0,1,4.38-4.25,19.14,19.14,0,0,1,5.4-2.86,16,16,0,0,1,6.48-.75,16.2,16.2,0,0,1,7.39,2.24,14.68,14.68,0,0,1,4.9,5,20.2,20.2,0,0,1,2.52,7.2,37.78,37.78,0,0,1,.29,8.92,80,80,0,0,1-1.17,8.66q-.84,4.34-1.72,8.5T260.14,192a58.82,58.82,0,0,0-1.07,7.3,16.45,16.45,0,0,0,.07,3.56,10.94,10.94,0,0,0,.83,2.85A8.47,8.47,0,0,0,261.8,208c.74.66,1.45,1.27,2.12,1.85a16.48,16.48,0,0,1,1.73,1.7,2.36,2.36,0,0,1,.65,1.71,1.49,1.49,0,0,1-.36.88,1.17,1.17,0,0,1-1,.29,4.38,4.38,0,0,1-2.23-.95l-2.91-2.21q-1.73-1.32-4.16-2.88a37,37,0,0,0-6-3,39.5,39.5,0,0,0-5.35-1.87,47.17,47.17,0,0,0-6.33-1.2c-1.34-.22-2-.65-1.93-1.31s.53-1.06,1.41-1l2.26.17c1,.08,2,.12,3,.12a6.67,6.67,0,0,0,3.93-1.12q1.6-1.12,2.61-4.42c.23-.87.47-2,.73-3.35s.51-2.8.75-4.36.46-3.13.66-4.74.36-3.15.48-4.62c.1-1.31.2-2.82.29-4.54s.11-3.51.05-5.37a43.39,43.39,0,0,0-.56-5.51,17.18,17.18,0,0,0-1.57-4.9,10.74,10.74,0,0,0-3-3.63,9.14,9.14,0,0,0-9.21-.81,12.3,12.3,0,0,0-3.82,3.11A22,22,0,0,0,231,161a35.29,35.29,0,0,0-2.18,6.35,62.42,62.42,0,0,0-1.42,7.3q-.5,3.76-.79,7.53c-.16,2.12-.25,4.16-.24,6.11s.07,3.77.21,5.43a35.24,35.24,0,0,0,.64,4.44,11,11,0,0,0,1.1,3.11,8.08,8.08,0,0,0,2.19,2.44,12.59,12.59,0,0,0,2.06,1.21,10.33,10.33,0,0,1,1.6.73.79.79,0,0,1,.43.76c0,.23-.22.43-.6.59a4,4,0,0,1-1.84.15,18.76,18.76,0,0,1-2.64-.41l-3-.67c-1-.23-2.1-.46-3.21-.68a25.11,25.11,0,0,0-3.28-.46c-1.07-.09-2.18-.14-3.3-.15l-3.22,0-2.83,0c-.85,0-1.53,0-2-.05-1.5-.11-2.21-.65-2.14-1.62a1.24,1.24,0,0,1,.45-.86,2.26,2.26,0,0,1,1.39-.39h1.46c.42,0,.86,0,1.3,0s.91,0,1.4,0l1.72,0a3.42,3.42,0,0,0,2.62-1.17,5.5,5.5,0,0,0,.89-2.86,67.53,67.53,0,0,0,.06-7.79c-.13-3.07-.36-6.47-.69-10.17s-.77-7.65-1.31-11.82-1.14-8.44-1.77-12.79a18.76,18.76,0,0,0-1.2-5,2.84,2.84,0,0,0-2.45-1.82,5.71,5.71,0,0,0-1.81.18c-.64.17-1.26.35-1.88.55s-1.2.39-1.76.56a4,4,0,0,1-1.53.2c-.73-.05-1.07-.39-1-1a1.11,1.11,0,0,1,.69-1q.63-.27,1.35-.51A33.11,33.11,0,0,0,208,146a29.72,29.72,0,0,0,4.28-2.34,28.75,28.75,0,0,0,4.1-3.28c1.21-1.19,2.27-2.29,3.16-3.31s1.62-1.85,2.18-2.53S222.72,133.52,223,133.54Z" transform="translate(0.01 -7.05)"/><path class="cls-2" d="M329.52,146.18a14.9,14.9,0,0,1,5.25,1.31,12.11,12.11,0,0,1,3.85,2.77,10.76,10.76,0,0,1,2.29,3.84,11.24,11.24,0,0,1,.55,4.52q-.37,4.69-2.79,7.08a7.56,7.56,0,0,1-6.19,2.11,8.64,8.64,0,0,1-2.85-.69,6.36,6.36,0,0,1-2.2-1.57,6.84,6.84,0,0,1-1.39-2.37,7.43,7.43,0,0,1-.34-3.06,10.46,10.46,0,0,1,.75-3.28,9.52,9.52,0,0,0,.72-2.88,3,3,0,0,0-.94-2.81,4.84,4.84,0,0,0-2.6-1,7.19,7.19,0,0,0-4.07,1,10.61,10.61,0,0,0-3.54,3.27,15.1,15.1,0,0,0-1.06,2,5.89,5.89,0,0,0-.52,1.84,1.59,1.59,0,0,0,.44,1.06,17.53,17.53,0,0,0,1.26,1.35c.53.5,1.12,1.08,1.79,1.73a24.13,24.13,0,0,1,1.95,2.22,21.92,21.92,0,0,1,2.95,5.35,16.27,16.27,0,0,1,.94,7.34,28,28,0,0,1-1.67,8,20,20,0,0,1-3.33,5.73,17.09,17.09,0,0,1-4.57,3.83,22.87,22.87,0,0,1-5.44,2.22,29.2,29.2,0,0,1-5.94.93,44.66,44.66,0,0,1-6-.06l-2.25-.18a14.1,14.1,0,0,0-6.29,1.9,5.38,5.38,0,0,0-2.69,4.32,4.21,4.21,0,0,0,.92,3.1,9.43,9.43,0,0,0,2.93,2.29,21.76,21.76,0,0,0,4.38,1.68q2.51.69,5.22,1.28t5.43,1.15c1.82.38,3.5.78,5.06,1.21a55.42,55.42,0,0,1,7.54,2.75,23.5,23.5,0,0,1,6.32,4.07,16.68,16.68,0,0,1,4.15,5.93,17.53,17.53,0,0,1,1.1,8.29,19.29,19.29,0,0,1-1.82,6.92,22.19,22.19,0,0,1-4,5.74,29.13,29.13,0,0,1-5.7,4.58,38,38,0,0,1-6.9,3.36,45.11,45.11,0,0,1-10.36,2.44,58.15,58.15,0,0,1-11.53.2A42.55,42.55,0,0,1,278,257a25.79,25.79,0,0,1-8.18-4.39,18.42,18.42,0,0,1-5.2-6.78,18.66,18.66,0,0,1-1.38-9.12,20.2,20.2,0,0,1,2-7.52,24,24,0,0,1,4-5.82,27.5,27.5,0,0,1,5.22-4.33A47.68,47.68,0,0,1,280,216a46.19,46.19,0,0,1,5-2c1.51-.51,2.68-.88,3.51-1.12a26.5,26.5,0,0,1-4-1.13,15.22,15.22,0,0,1-3.57-1.85,8.31,8.31,0,0,1-2.49-2.73,6.34,6.34,0,0,1-.76-3.75,6,6,0,0,1,2.84-4.63,17.62,17.62,0,0,1,7.15-2.55,24.3,24.3,0,0,1-5.93-3,18.76,18.76,0,0,1-4.6-4.46,18.19,18.19,0,0,1-2.82-6,21.91,21.91,0,0,1-.6-7.55,22.34,22.34,0,0,1,2.54-9.05,20.28,20.28,0,0,1,5.48-6.46,21.47,21.47,0,0,1,7.67-3.71,27.58,27.58,0,0,1,9.19-.76c1,.08,1.94.2,2.94.38s1.93.36,2.8.56,1.69.39,2.43.54a15.2,15.2,0,0,0,1.81.29,6.28,6.28,0,0,0,2.43-.22,4.08,4.08,0,0,0,1.9-1.59c.87-1.18,1.81-2.34,2.83-3.5a18.06,18.06,0,0,1,3.5-3.07,15.23,15.23,0,0,1,4.49-2A16.87,16.87,0,0,1,329.52,146.18Zm-51.31,88a24.48,24.48,0,0,0,.63,8,18.58,18.58,0,0,0,3.16,6.7,17.61,17.61,0,0,0,5.62,4.8,19.59,19.59,0,0,0,8,2.22,22.16,22.16,0,0,0,9.09-1,17.84,17.84,0,0,0,6.53-3.85,17.2,17.2,0,0,0,4.06-5.9,23,23,0,0,0,1.73-7.16,24.72,24.72,0,0,0-.39-6.93,17.86,17.86,0,0,0-6.94-10.95,24.82,24.82,0,0,0-6.93-3.59,43.53,43.53,0,0,0-5.11-1.54q-2.46-.57-4.47-.9a36.89,36.89,0,0,0-4.61,2.81,27.57,27.57,0,0,0-4.69,4.23,24.33,24.33,0,0,0-3.76,5.72A20.39,20.39,0,0,0,278.21,234.22Zm24.14-75.17a10.07,10.07,0,0,0-8.58,3.72,19.56,19.56,0,0,0-3.25,5.88,34,34,0,0,0-1.79,9.11,26.7,26.7,0,0,0,.36,7.68,16.53,16.53,0,0,0,2.08,5.39,9.87,9.87,0,0,0,3.2,3.28,8.35,8.35,0,0,0,3.68,1.24,10.4,10.4,0,0,0,3.76-.49,9.71,9.71,0,0,0,4.17-2.67,18.42,18.42,0,0,0,3.62-5.82,32.2,32.2,0,0,0,2.09-10q.65-8.21-1.89-12.6A9,9,0,0,0,302.35,159.05Z" transform="translate(0.01 -7.05)"/><path class="cls-2" d="M383.48,190.17a15.63,15.63,0,0,1,1.19,3.7,16,16,0,0,1,.31,4.62,19.43,19.43,0,0,1-2,7.43,15.14,15.14,0,0,1-4.42,5.3,18,18,0,0,1-6.55,3,26.11,26.11,0,0,1-8.33.57,29.6,29.6,0,0,1-11.59-3.14,24.14,24.14,0,0,1-8.21-6.9,27.24,27.24,0,0,1-4.63-9.92,38,38,0,0,1-.91-12.26,42.8,42.8,0,0,1,2.12-10.71,34.75,34.75,0,0,1,4.15-8.39A30.48,30.48,0,0,1,356.73,153a28.18,28.18,0,0,1,6.8-2.23,25.32,25.32,0,0,1,6.54-.39,26.93,26.93,0,0,1,6.3,1.31,17.57,17.57,0,0,1,5.82,3.25,15.18,15.18,0,0,1,4.1,5.52,16.66,16.66,0,0,1,1.14,8.2,20.44,20.44,0,0,1-1.82,7.31,18.36,18.36,0,0,1-8.59,8.69,28.16,28.16,0,0,1-5.45,2,29,29,0,0,1-5.36.84,36.17,36.17,0,0,1-4.56,0,37.41,37.41,0,0,1-5.49-.84,31.65,31.65,0,0,1-4.12-1.19,39.44,39.44,0,0,0,.73,8.8,24.62,24.62,0,0,0,2.81,7.64,17,17,0,0,0,5.06,5.51,15,15,0,0,0,7.51,2.51,12.39,12.39,0,0,0,5.37-.63,10.3,10.3,0,0,0,3.89-2.51,11.6,11.6,0,0,0,2.46-3.91,16.94,16.94,0,0,0,1.07-4.8,25.08,25.08,0,0,0,0-3.14,14.32,14.32,0,0,0-.48-3.12c-.19-.6-.34-1.15-.45-1.66a4.4,4.4,0,0,1-.14-1.23c.06-.78.44-1.13,1.13-1.08a2.29,2.29,0,0,1,1.21.62A5.22,5.22,0,0,1,383.48,190.17Zm-31.38-8.56a26.12,26.12,0,0,0,3.35,1,30.35,30.35,0,0,0,4.78.69,14.87,14.87,0,0,0,6.28-.79,14,14,0,0,0,5.13-3.17,16.7,16.7,0,0,0,3.61-5.27A21.51,21.51,0,0,0,377,167a19.68,19.68,0,0,0-.32-6,11,11,0,0,0-1.75-4,7.28,7.28,0,0,0-2.76-2.27,9.56,9.56,0,0,0-3.34-.88,10.46,10.46,0,0,0-4.84,1,13.3,13.3,0,0,0-5.07,4.26,29.57,29.57,0,0,0-4.28,8.59A59.29,59.29,0,0,0,352.1,181.61Z" transform="translate(0.01 -7.05)"/><path class="cls-2" d="M447.19,107.93c.31,0,.49.32.54.88a15.13,15.13,0,0,1,0,2.3c-.24,3-.52,6.25-.85,9.73s-.69,7.12-1.06,10.91-.76,7.67-1.17,11.65-.83,7.95-1.25,11.91q-.84,8.37-1.63,16.33t-1.43,14.63q-.65,6.67-1.12,11.63c-.31,3.31-.54,5.78-.66,7.39a18.85,18.85,0,0,0,.1,4.61,9.84,9.84,0,0,0,1,3,5.24,5.24,0,0,0,1.63,1.84,14,14,0,0,0,2,1.15,14.45,14.45,0,0,0,2.75.94q1.34.32,2.37.51a7.12,7.12,0,0,1,1.62.47.87.87,0,0,1,.54.92c-.05.58-.49.91-1.33,1a13.74,13.74,0,0,1-2.65,0q-2-.15-5.4-.74c-2.3-.39-4.95-.71-8-.94a43.14,43.14,0,0,0-4.41-.11l-4.69.12c-1.65,0-3.45.07-5.41.08s-4.17-.1-6.64-.29a36.18,36.18,0,0,1-9.67-2,22,22,0,0,1-7.66-4.64,18.84,18.84,0,0,1-4.82-7.53,25.74,25.74,0,0,1-1.14-10.7,23.25,23.25,0,0,1,2.76-9.64,21.31,21.31,0,0,1,6-6.83,24.37,24.37,0,0,1,8.39-3.88,30.4,30.4,0,0,1,9.86-.8,39.75,39.75,0,0,1,8.92,1.57,46.11,46.11,0,0,1,5.67,2.19q.44-5.55.77-11.31t.62-11.23q.28-5.47.52-10.34t.38-8.58q.13-3.7.21-6t.09-2.67c0-.58,0-1.15,0-1.71a8.61,8.61,0,0,0-.17-1.53,2.48,2.48,0,0,0-.53-1.09,1.59,1.59,0,0,0-1.07-.46,6.37,6.37,0,0,0-2,.22c-.75.2-1.52.41-2.29.64s-1.54.44-2.29.64a6.4,6.4,0,0,1-2,.22,2.47,2.47,0,0,1-1-.28.83.83,0,0,1-.4-.88,1.5,1.5,0,0,1,.65-1.17,7,7,0,0,1,1.66-.8,16,16,0,0,1,1.78-.53c.68-.16,1.5-.4,2.47-.73s2.15-.77,3.51-1.3,3-1.27,4.88-2.21a53.41,53.41,0,0,0,4.71-2.54q1.92-1.18,3.18-2.07c.84-.6,1.5-1.07,2-1.42A1.92,1.92,0,0,1,447.19,107.93Zm-18.46,94.79c.13-1.69.26-3.53.4-5.52s.27-4,.42-6.07.26-4.12.36-6.17.21-4,.31-5.79A19.22,19.22,0,0,0,426,177.3a25.38,25.38,0,0,0-5.74-1.06,16.38,16.38,0,0,0-6.92.8A13.72,13.72,0,0,0,408,180.4a16.73,16.73,0,0,0-3.53,5.6,26.27,26.27,0,0,0-1.63,7.55,31.6,31.6,0,0,0,.34,8.25,18.36,18.36,0,0,0,2.43,6.5,12.93,12.93,0,0,0,4.57,4.4,15.81,15.81,0,0,0,6.77,2,12.56,12.56,0,0,0,5.6-.64,8.68,8.68,0,0,0,3.53-2.43,9.16,9.16,0,0,0,1.84-3.75A31.29,31.29,0,0,0,428.73,202.72Z" transform="translate(0.01 -7.05)"/><path class="cls-2" d="M403.15,227.66a3.28,3.28,0,0,1,2.16,1,3.82,3.82,0,0,1,.66,3,27,27,0,0,1-.72,4.05q-.6,2.47-1.32,5c-.48,1.67-.94,3.19-1.38,4.58s-.73,2.33-.89,2.86c-.1.34-.3.93-.57,1.76s-.62,1.75-1,2.77-.84,2.07-1.3,3.15-.91,2.09-1.36,3a18,18,0,0,1-1.31,2.2c-.41.56-.77.84-1.08.81a.57.57,0,0,1-.47-.33,2.56,2.56,0,0,1-.1-1.28c.05-.66.18-1.57.39-2.74s.42-2.46.65-3.9.46-2.93.7-4.48.41-3,.52-4.41a15.21,15.21,0,0,0-.27-5,6,6,0,0,0-1.69-2.92,6.34,6.34,0,0,0-2.92-1.45,27.29,27.29,0,0,0-3.88-.57,60.68,60.68,0,0,0-6.3-.11,45.5,45.5,0,0,0-6.59.67,4.76,4.76,0,0,0-3.5,1.94,9.13,9.13,0,0,0-1.09,4c0,.27-.09,1.35-.2,3.24s-.24,4.32-.4,7.29-.33,6.38-.53,10.23-.41,7.82-.62,12c1.09,0,2.19,0,3.32-.06a9.78,9.78,0,0,0,2.89-.51,6.54,6.54,0,0,0,2.16-1.19,8.17,8.17,0,0,0,1.5-1.69,12.45,12.45,0,0,0,1-1.87c.26-.64.47-1.22.63-1.75.81-2.42,1.42-4.13,1.85-5.12s.93-1.47,1.51-1.42c.73.05,1,.8.93,2.22a17,17,0,0,1-.43,2.47c-.23,1-.5,2-.8,3.22s-.6,2.52-.86,4a45,45,0,0,0-.6,4.67c-.12,1.5-.21,3-.28,4.63s-.11,3.05-.14,4.41-.05,2.56-.08,3.63-.05,1.82-.09,2.28a8.65,8.65,0,0,1-.61,2.92c-.3.64-.66.94-1.09.91s-.82-.42-1.07-1.16a12.67,12.67,0,0,1-.19-4.18c.07-1.5.1-2.89.06-4.15a13.22,13.22,0,0,0-.49-3.35,6.8,6.8,0,0,0-1.35-2.49A6.52,6.52,0,0,0,374,278.6a11.23,11.23,0,0,0-2.48-.58c-1-.13-2-.24-3-.32q-.31,6.19-.59,12.34t-.51,11.39c-.16,3.49-.28,6.56-.37,9.18s-.14,4.55-.16,5.75a20.55,20.55,0,0,0,.34,4.53,7.75,7.75,0,0,0,1.18,2.86,5.56,5.56,0,0,0,1.9,1.72,18.59,18.59,0,0,0,2.58,1.13A9,9,0,0,0,374,327a7.62,7.62,0,0,1,1.21.44,3.87,3.87,0,0,1,1,.63,1.12,1.12,0,0,1,0,1.65,2,2,0,0,1-.84.37,5.22,5.22,0,0,1-1.06.1c-.37,0-.72,0-1.07-.06a18.4,18.4,0,0,1-2.41-.39c-1-.22-2.21-.45-3.55-.69l-4.31-.74c-1.53-.25-3.08-.44-4.66-.57-1.43-.11-2.8-.17-4.12-.17s-2.67,0-4.07,0-2.85,0-4.36,0-3.15-.1-4.93-.24a15.78,15.78,0,0,1-2.58-.37,5.77,5.77,0,0,1-1.47-.55,1.43,1.43,0,0,1-.65-.67,1.44,1.44,0,0,1-.12-.7c.07-.89.83-1.39,2.27-1.51.35,0,.91,0,1.69,0h2.59c1,0,1.93,0,2.94-.08a23.79,23.79,0,0,0,2.7-.29,14.27,14.27,0,0,0,2.5-.76,6.94,6.94,0,0,0,2.27-1.51,8.15,8.15,0,0,0,1.72-2.72,14.47,14.47,0,0,0,.93-4.43c.24-3.08.4-6.64.46-10.66s.06-8.23,0-12.59-.18-8.76-.36-13.18-.4-8.59-.65-12.55-.53-7.5-.82-10.65-.59-5.63-.87-7.48a9.84,9.84,0,0,0-1.23-3.67,8,8,0,0,0-2.05-2.31,9.54,9.54,0,0,0-2.63-1.37,30.49,30.49,0,0,0-3-.85,11.3,11.3,0,0,1-2.63-1,1.56,1.56,0,0,1-.89-1.58,1.33,1.33,0,0,1,.89-1.27,4.71,4.71,0,0,1,1.9-.2q4.91.39,12.37.27a131.82,131.82,0,0,0,17-1.52q7.35-1,12.35-2.12c3.33-.7,6.12-1.32,8.37-1.84s4.09-.93,5.53-1.23A14.42,14.42,0,0,1,403.15,227.66Z" transform="translate(0.01 -7.05)"/><path class="cls-2" d="M403.86,260.12a32.39,32.39,0,0,1,2.94-11.54,24.67,24.67,0,0,1,15.8-13.48A32.32,32.32,0,0,1,434.34,234a28.62,28.62,0,0,1,10.4,2.73,24.22,24.22,0,0,1,7.93,6.12,25.22,25.22,0,0,1,4.84,9,30.76,30.76,0,0,1,1.11,11.52A30.32,30.32,0,0,1,455.16,276a26.14,26.14,0,0,1-7,8.23,24.55,24.55,0,0,1-9,4.33,29.29,29.29,0,0,1-9.43.86,31.07,31.07,0,0,1-10.41-2.64,27.06,27.06,0,0,1-8.52-6,25.92,25.92,0,0,1-5.54-9A27.14,27.14,0,0,1,403.86,260.12Zm29.5-23.92a9.85,9.85,0,0,0-5.82,1.2,13,13,0,0,0-4.31,4.14,22.07,22.07,0,0,0-2.8,6.36,41.31,41.31,0,0,0-1.33,7.77,58.82,58.82,0,0,0-.13,6.91,46.16,46.16,0,0,0,.72,6.77,38.25,38.25,0,0,0,1.61,6.18,20.66,20.66,0,0,0,2.59,5.12,13.23,13.23,0,0,0,3.71,3.57,10.28,10.28,0,0,0,4.84,1.57,10.51,10.51,0,0,0,6.05-1.12,12.12,12.12,0,0,0,4.17-3.86,19.18,19.18,0,0,0,2.51-5.62,35,35,0,0,0,1.11-6.4,73.89,73.89,0,0,0-.07-14,35.85,35.85,0,0,0-2.47-10.05,16,16,0,0,0-4.43-6.19A10.66,10.66,0,0,0,433.36,236.2Z" transform="translate(0.01 -7.05)"/><path class="cls-2" d="M458.32,233.73c.54.05,1.15.11,1.82.21s1.45.17,2.33.24c1.47.11,3.33.21,5.59.29a52.76,52.76,0,0,0,8.27-.49,76.36,76.36,0,0,0,7.66-1.29q3.31-.76,5.73-1.5l4-1.22a7.68,7.68,0,0,1,2.68-.41,1.22,1.22,0,0,1,.9.34.86.86,0,0,1,.18.62,1,1,0,0,1-.79.87,9.7,9.7,0,0,1-1.57.34c-.75.18-1.51.38-2.28.61a7.59,7.59,0,0,0-2.15,1,5.8,5.8,0,0,0-1.65,1.79,6.4,6.4,0,0,0-.8,2.85,20.08,20.08,0,0,0,.28,5.28c.33,1.79.67,3.36,1,4.71.17.71.47,1.75.89,3.12s.86,2.74,1.33,4.12.92,2.57,1.32,3.59.7,1.53.9,1.55.32-.2.74-.61.92-.94,1.49-1.57l1.88-2.06c.68-.74,1.31-1.45,1.91-2.12l1.53-1.74c.43-.49.68-.79.77-.9.26-.41.57-.88.92-1.41a3.49,3.49,0,0,0,.6-1.67,2.84,2.84,0,0,0-.34-1.57,3.35,3.35,0,0,0-1.7-1.32,12.14,12.14,0,0,0-2.18-.73c-.71-.15-1.33-.3-1.86-.46-1-.32-1.5-.86-1.44-1.63a1.07,1.07,0,0,1,.45-.89,1.37,1.37,0,0,1,.92-.22,12.9,12.9,0,0,1,2,.36c.82.2,1.74.42,2.77.65l3.32.76a32.74,32.74,0,0,0,3.61.6c1,.15,1.83.26,2.62.32l2.23.17a43.75,43.75,0,0,0,4.49.18c1.14,0,2.18,0,3.11.07a3,3,0,0,1,1.33.37.89.89,0,0,1,.48.94c-.08,1-1.1,1.48-3.08,1.44-1.35,0-2.55,0-3.6,0a17.7,17.7,0,0,0-2.88.3,15,15,0,0,0-4,1.55,19,19,0,0,0-4.72,3.87q-3,3.15-5.12,5.56c-1.43,1.62-2.47,2.88-3.12,3.8a7.89,7.89,0,0,0-.82,1.53,6.33,6.33,0,0,0-.36,1.69,7.46,7.46,0,0,0,0,1.4c.05.51.12,1,.19,1.59.14.74.35,1.66.63,2.75s.6,2.25.95,3.48.72,2.46,1.1,3.72.75,2.4,1.1,3.45.64,2,.89,2.78a13.88,13.88,0,0,0,.57,1.61A8.76,8.76,0,0,0,503,289a8.85,8.85,0,0,0,2.05,1.73,10,10,0,0,0,2.44,1.1c.87.26,1.76.5,2.68.73,2.05.47,3.48.84,4.27,1.12s1.17.68,1.13,1.22-.52,1-1.4,1.14a15.73,15.73,0,0,1-3.7,0c-.69-.05-1.48-.13-2.36-.24s-1.87-.2-2.95-.29-2.32-.14-3.62-.17-2.67,0-4.11.15a25.23,25.23,0,0,0-4.51.78c-1.52.4-3,.81-4.34,1.23s-2.6.78-3.69,1.08a7.79,7.79,0,0,1-2.62.37,1.76,1.76,0,0,1-1.89-1.83,1.74,1.74,0,0,1,.75-1.42,5,5,0,0,1,1.57-.67c.67-.14,1.46-.28,2.39-.42a23.87,23.87,0,0,0,2.65-.55,9.38,9.38,0,0,0,2.19-.82,1.55,1.55,0,0,0,1-1.23,8.15,8.15,0,0,0-.43-2.65c-.34-1.15-.73-2.31-1.18-3.49s-.9-2.26-1.35-3.25-.75-1.62-.92-1.9a1.73,1.73,0,0,0-1.54-1.17,2.19,2.19,0,0,0-.8.11,2.85,2.85,0,0,0-.94.57c-.29.25-.73.7-1.33,1.35l-1.87,2.06c-.66.73-1.28,1.4-1.85,2s-1,1.08-1.18,1.33l-.39.46q-.25.3-.51.66a4.94,4.94,0,0,0-.43.67,1,1,0,0,0-.18.48c0,.19.08.33.31.43a6.66,6.66,0,0,0,.79.26,7.52,7.52,0,0,0,.92.19,4.33,4.33,0,0,1,.74.15,5.77,5.77,0,0,1,1.19.38.67.67,0,0,1,.41.73.73.73,0,0,1-.51.66,2.37,2.37,0,0,1-1.12.14c-.93-.07-1.83-.18-2.71-.33s-1.93-.26-3.17-.36a27.18,27.18,0,0,0-3.28,0c-1.23.06-2.44.12-3.65.2l-3.31.24a14.56,14.56,0,0,1-2.18.06,1.39,1.39,0,0,1-1-.39,1,1,0,0,1-.28-.81c.05-.73.61-1.11,1.65-1.15a17.05,17.05,0,0,0,2.11-.12c.82-.1,1.69-.23,2.62-.41s1.82-.39,2.69-.63a10,10,0,0,0,2.29-.93,30,30,0,0,0,3.09-2.05c1-.79,2.07-1.64,3-2.53s1.91-1.81,2.8-2.74a33.28,33.28,0,0,0,2.3-2.67,19.75,19.75,0,0,0,1.58-2.35,4.74,4.74,0,0,0,.67-1.78,5.1,5.1,0,0,0,0-1.05,5.66,5.66,0,0,0-.29-1.07c-.29-.84-.69-1.92-1.2-3.26s-1.09-2.81-1.72-4.41-1.3-3.26-2-5-1.36-3.37-2-4.93-1.22-3-1.78-4.3-1-2.33-1.39-3.1c-.3-.6-.66-1.25-1.1-1.95a20.3,20.3,0,0,0-1.49-2.09,21.89,21.89,0,0,0-1.85-2,13.44,13.44,0,0,0-2.1-1.71,11.75,11.75,0,0,0-4.05-1.71,32.61,32.61,0,0,0-4.32-.63c-1.35-.11-2-.58-1.92-1.43a1.35,1.35,0,0,1,.35-.82A1.36,1.36,0,0,1,458.32,233.73Z" transform="translate(0.01 -7.05)"/><path class="cls-3" d="M101.22,7.05c.67,0,1.06.64,1.15,2,0,.5.07,1.14.11,1.93s.07,1.9.09,3.3,0,3.21.05,5.4,0,4.93,0,8.2l-.05,9.28c.56,0,1.06-.08,1.49-.13s.81-.09,1.15-.11a4.22,4.22,0,0,1,2,.2,1.07,1.07,0,0,1,.61,1,1.18,1.18,0,0,1-.46,1.07,2.78,2.78,0,0,1-1.31.51,12.26,12.26,0,0,1-1.39.16l-2,.13c0,1.57,0,2.9,0,4s.05,2.13.08,3.07.05,1.88.07,2.82,0,2,.06,3.29a15.33,15.33,0,0,1,1.58-3,13,13,0,0,1,2.42-2.68,12.91,12.91,0,0,1,7.58-3,15.47,15.47,0,0,1,6.38.79,11.4,11.4,0,0,1,4.65,3.14,14.81,14.81,0,0,1,3,5.27,28.11,28.11,0,0,1,1.31,7.14,48.27,48.27,0,0,1-.07,7.11q-.3,3.59-.7,6.91l-.75,6.19A26.79,26.79,0,0,0,128,86a9.13,9.13,0,0,0,.65,3,6.73,6.73,0,0,0,1.77,2.41,11.38,11.38,0,0,0,1.35,1.14l1,.67c.25.18.44.33.57.44a.68.68,0,0,1,.22.48.52.52,0,0,1-.16.39,1,1,0,0,1-.65.21,5.52,5.52,0,0,1-2-.31c-.77-.25-1.6-.54-2.51-.87s-1.87-.65-2.88-1a15.58,15.58,0,0,0-3.12-.65,33.16,33.16,0,0,0-4.38-.2c-1.5,0-3,.09-4.49.19-1.29.08-2-.17-2-.76a.65.65,0,0,1,.39-.64,5,5,0,0,1,1.06-.41l1.49-.4A9.94,9.94,0,0,0,116,89a13.1,13.1,0,0,0,1.56-.88,6.72,6.72,0,0,0,1.35-1.22A7.13,7.13,0,0,0,120,85.22a12.2,12.2,0,0,0,.78-2.35c.19-.92.4-2.12.61-3.6s.39-3.17.54-5.06.25-4,.29-6.17,0-4.53-.17-6.93a44.39,44.39,0,0,0-.78-6,15.35,15.35,0,0,0-1.62-4.5,7.24,7.24,0,0,0-2.68-2.75,7.12,7.12,0,0,0-4-.76,7.78,7.78,0,0,0-3.55,1,9.24,9.24,0,0,0-2.51,2.17,11.53,11.53,0,0,0-1.65,2.85,19.56,19.56,0,0,0-1,3,21.24,21.24,0,0,0-.49,2.76c-.1.84-.16,1.5-.2,2q-.11,1.11-.15,2.67t-.06,3.36c0,1.2,0,2.42,0,3.68s.09,2.47.16,3.62c0,.59.08,1.14.11,1.63a14.75,14.75,0,0,0,.16,1.49,14.1,14.1,0,0,0,4.54-1.23,9.09,9.09,0,0,0,2.77-2,5.85,5.85,0,0,0,1.35-2.32,6.49,6.49,0,0,0,.29-2.23,3.51,3.51,0,0,0-.62-1.89A17.37,17.37,0,0,0,111,66.28a13.61,13.61,0,0,1-1.17-1.44,3.73,3.73,0,0,1-.62-2,4.84,4.84,0,0,1,.22-1.87,4,4,0,0,1,.83-1.4,3.66,3.66,0,0,1,1.28-.88,4.62,4.62,0,0,1,1.51-.35,4.06,4.06,0,0,1,3.18,1,5,5,0,0,1,1.4,3.5,18.38,18.38,0,0,1,0,2.43A14.86,14.86,0,0,1,117,68.4a16.15,16.15,0,0,1-1.32,3.29,12.73,12.73,0,0,1-2.4,3.15,15.73,15.73,0,0,1-3.77,2.63,19.33,19.33,0,0,1-5.38,1.72,5,5,0,0,0,.87,2.23,8.32,8.32,0,0,0,1.6,1.69A11.24,11.24,0,0,0,110,85c.72.25,1.33.44,1.82.57s.76.35.78.66a.63.63,0,0,1-.29.52,2.37,2.37,0,0,1-1.19.3,10,10,0,0,1-2-.1l-2.38-.32c-.86-.12-1.78-.22-2.78-.3a21.47,21.47,0,0,0-3.22,0,21,21,0,0,0-3.56.56c-1.22.29-2.38.6-3.47.93l-2.91.91A8.88,8.88,0,0,1,89,89.1c-.38,0-.58-.08-.6-.3s.09-.41.38-.61a9.56,9.56,0,0,1,1.11-.66q.69-.37,1.62-.84a14.66,14.66,0,0,0,1.87-1.14,7.36,7.36,0,0,0,2.43-2.75,8.51,8.51,0,0,0,.92-3.4A20,20,0,0,1,89.11,77a15.44,15.44,0,0,1-4.89-4.57,19.27,19.27,0,0,1-2.74-6.31,44.26,44.26,0,0,1-1.15-7.75c-.08-1.32-.11-2.69-.07-4.12s.08-2.82.14-4.15.12-2.56.17-3.68a25.31,25.31,0,0,0,0-2.73,4,4,0,0,0-.48-1.86,1.6,1.6,0,0,0-1.55-.53,19.06,19.06,0,0,0-2,.23c-.66.11-1.33.23-2,.37l-2,.36a18.15,18.15,0,0,1-1.81.22,1.86,1.86,0,0,1-1.34-.26,1.1,1.1,0,0,1-.39-.79c0-.61.37-1,1.25-1.2,1.61-.33,3-.66,4.2-1s2.23-.64,3.16-1a21.73,21.73,0,0,0,2.48-1.06,21.5,21.5,0,0,0,2.16-1.28,12.74,12.74,0,0,0,3-2.61,33.49,33.49,0,0,0,2.06-2.8c.57-.87,1-1.61,1.46-2.22s.79-.92,1.15-.94.62.18.65.64a4.5,4.5,0,0,1-.21,1.53c-.16.59-.36,1.23-.57,1.91s-.41,1.39-.57,2.12a8,8,0,0,0-.17,2.1,3,3,0,0,0,.46,1.49,1.85,1.85,0,0,0,1.36.75,12.64,12.64,0,0,0,2.32,0l3.73-.22c0-1.3,0-2.6,0-3.91s0-2.53,0-3.68,0-2.18,0-3.08,0-1.6-.08-2.08c-.06-.88-.13-1.71-.23-2.5a11.21,11.21,0,0,0-.46-2.17,6.41,6.41,0,0,0-.85-1.74,3.5,3.5,0,0,0-1.4-1.17,4.67,4.67,0,0,0-2-.38c-.84,0-1.65,0-2.44.05s-1.45.1-2.25.18l-1.85.15a3.51,3.51,0,0,1-1.2-.08.6.6,0,0,1-.45-.6c0-.27.15-.47.49-.59a8.63,8.63,0,0,1,1.5-.35l2.08-.44c.7-.16,1.41-.36,2.13-.58s1.46-.51,2.2-.83a21.1,21.1,0,0,0,2.26-1.16A15.75,15.75,0,0,0,97,10.81c.72-.67,1.34-1.28,1.86-1.82s1-1,1.33-1.37A1.67,1.67,0,0,1,101.22,7.05ZM87.56,58.89q.19,3,.65,5.9a24.23,24.23,0,0,0,1.47,5.38,13.1,13.1,0,0,0,2.74,4.22,9,9,0,0,0,4.47,2.41c0-1.32,0-2.9.07-4.75s0-3.79,0-5.84,0-4.14,0-6.24,0-4.09,0-6,0-3.55,0-5,0-2.6,0-3.38V40.15c-1.16,0-2.26,0-3.3.09l-2.61.15a3.87,3.87,0,0,0-1.6.39,2.82,2.82,0,0,0-1,.81,3.45,3.45,0,0,0-.5,1,8.33,8.33,0,0,0-.22,1.06c-.1.6-.18,1.49-.26,2.67s-.11,2.5-.14,3.93,0,2.91,0,4.42S87.48,57.59,87.56,58.89Z" transform="translate(0.01 -7.05)"/><path class="cls-3" d="M159.27,60.25a9.32,9.32,0,0,1,1,2,9.5,9.5,0,0,1,.56,2.66,11.33,11.33,0,0,1-.53,4.48,8.88,8.88,0,0,1-2.13,3.45,10.6,10.6,0,0,1-3.55,2.29,15.82,15.82,0,0,1-4.79,1,17.34,17.34,0,0,1-7-.87A14.12,14.12,0,0,1,137.49,72,15.89,15.89,0,0,1,134,66.63a22.2,22.2,0,0,1-1.55-7,25.41,25.41,0,0,1,.34-6.4A21,21,0,0,1,134.48,48a18.45,18.45,0,0,1,2.74-4.1,17.92,17.92,0,0,1,3.42-3A16.71,16.71,0,0,1,144.41,39a15.06,15.06,0,0,1,3.77-.77,15.7,15.7,0,0,1,3.76.24,10.26,10.26,0,0,1,3.66,1.4,9.05,9.05,0,0,1,2.84,2.87,9.87,9.87,0,0,1,1.34,4.67,12.17,12.17,0,0,1-.45,4.39,10.82,10.82,0,0,1-1.72,3.35,10.59,10.59,0,0,1-2.55,2.41,16.15,16.15,0,0,1-3,1.61,16.74,16.74,0,0,1-3,.93,20.49,20.49,0,0,1-2.66.37,22,22,0,0,1-3.25,0,18.44,18.44,0,0,1-2.5-.35,23.44,23.44,0,0,0,1.16,5.06,14.55,14.55,0,0,0,2.27,4.2,10,10,0,0,0,3.4,2.78A8.81,8.81,0,0,0,152,73a7.33,7.33,0,0,0,3.06-.81,6,6,0,0,0,2.05-1.78,6.82,6.82,0,0,0,1.11-2.48,9.8,9.8,0,0,0,.22-2.88,15.44,15.44,0,0,0-.24-1.82,8.89,8.89,0,0,0-.53-1.77,8.68,8.68,0,0,1-.4-.93,2.22,2.22,0,0,1-.19-.71c0-.45.16-.69.57-.71a1.32,1.32,0,0,1,.75.25A3.11,3.11,0,0,1,159.27,60.25Zm-18.94-2.36a16.76,16.76,0,0,0,2,.33,17.64,17.64,0,0,0,2.83,0,8.86,8.86,0,0,0,3.58-1A8.33,8.33,0,0,0,151.5,55a9.79,9.79,0,0,0,1.66-3.36,12.56,12.56,0,0,0,.41-4.28,11.3,11.3,0,0,0-.69-3.45,6.3,6.3,0,0,0-1.35-2.19,4.25,4.25,0,0,0-1.79-1.09,5.71,5.71,0,0,0-2-.23,6.16,6.16,0,0,0-2.73,1,7.72,7.72,0,0,0-2.59,2.89,17.17,17.17,0,0,0-1.77,5.35A34.24,34.24,0,0,0,140.33,57.89Z" transform="translate(0.01 -7.05)"/><path class="cls-3" d="M59.31,86.42a9.2,9.2,0,0,1,2.7.8c1.1.47,2.41,1,3.93,1.73s3.23,1.4,5.12,2.14,4,1.45,6.21,2.09,4.53,1.2,7,1.68,4.79.9,7,1.24,4.11.64,5.77.89l3.37.5a5.52,5.52,0,0,1,1.27.42.76.76,0,0,1,.43.82.8.8,0,0,1-.58.79,3,3,0,0,1-1.17.11c-.85-.06-2.09-.22-3.72-.46s-3.35-.44-5.16-.58a15.34,15.34,0,0,0-3.58.1,6.13,6.13,0,0,0-2.64,1,6,6,0,0,0-1.77,2.16,11.16,11.16,0,0,0-1,3.5c-.14.8-.27,1.85-.39,3.14s-.25,2.72-.4,4.3-.28,3.27-.42,5.06l-.43,5.46-.51,6.53-.46,5.84c-.13,1.77-.24,3.27-.32,4.51s-.11,2.08-.11,2.55a9.33,9.33,0,0,0,.16,2.45,3.41,3.41,0,0,0,.69,1.51,2.54,2.54,0,0,0,1.16.79,6.29,6.29,0,0,0,1.55.29c1.08.09,2.39.14,3.94.17s3.2,0,5,0,3.54-.06,5.33-.14l5-.19c1.53,0,2.89-.11,4-.18s2-.11,2.46-.15a6.41,6.41,0,0,0,3.22-1.09,5.8,5.8,0,0,0,1.89-2.23,10.73,10.73,0,0,0,.94-3.1c.19-1.17.34-2.39.44-3.66.13-1.73.2-3.52.21-5.36s0-3.6-.08-5.27-.15-3.19-.25-4.56-.2-2.4-.26-3.1a10.85,10.85,0,0,0-.76-3.58,5.68,5.68,0,0,0-1.39-2,4.13,4.13,0,0,0-1.68-.88,11,11,0,0,0-1.57-.27c-1.31-.1-2.66-.17-4-.2s-2.45-.07-3.22-.13a2.85,2.85,0,0,1-1.72-.6,1.5,1.5,0,0,1-.52-1.27,1.88,1.88,0,0,1,.59-1.17,3.53,3.53,0,0,1,2.4-.51c1.15,0,2.46.09,3.91.1s3,0,4.6,0,3.26-.12,4.93-.22,3.34-.26,5-.48c1.49-.24,3.1-.53,4.81-.88l5-1c1.63-.32,3.16-.59,4.57-.81a15.38,15.38,0,0,1,3.45-.22c.89.07,1.43.25,1.64.53a1.3,1.3,0,0,1,.28.9,1.13,1.13,0,0,1-.75,1.07,3.38,3.38,0,0,1-1.5.21c-.27,0-.64,0-1.1,0a12.42,12.42,0,0,0-1.46.09,11.65,11.65,0,0,0-1.53.26,3.77,3.77,0,0,0-1.32.53,7.62,7.62,0,0,0-1.87,1.92,11.1,11.1,0,0,0-1.49,3.81q-.45,2.05-.84,5.2t-.78,6.59q-.39,3.47-.74,6.92t-.63,6.18c-.11.92-.27,2.27-.47,4.06s-.4,3.84-.62,6.17-.47,4.87-.75,7.62-.54,5.54-.8,8.37-.51,5.66-.75,8.49-.45,5.48-.65,7.94l-.44,5.73c-.14,1.73-.22,3.22-.24,4.46a9.73,9.73,0,0,0,.26,3.07,6.69,6.69,0,0,0,.86,2,4.26,4.26,0,0,0,1.16,1.19,10.61,10.61,0,0,0,1.19.71,15.11,15.11,0,0,0,2.66.9c1,.23,2,.52,3.07.88a2,2,0,0,1,1,.52.86.86,0,0,1,.18.62.94.94,0,0,1-.08.31.71.71,0,0,1-.29.36,1.81,1.81,0,0,1-.68.24,5.31,5.31,0,0,1-1.28,0c-.47,0-1.28-.15-2.45-.33l-3.93-.66c-1.46-.25-3-.48-4.48-.7s-2.9-.37-4.1-.46c-1.58-.13-3.14-.18-4.69-.17s-3,.06-4.43.12-2.73.12-4,.15a29.31,29.31,0,0,1-3.31,0c-1.62-.13-2.64-.41-3.07-.85a1.73,1.73,0,0,1-.59-1.36,1.1,1.1,0,0,1,.81-1.12,5.23,5.23,0,0,1,1.78-.13c2.21.1,4,.14,5.55.12a13.48,13.48,0,0,0,4.27-.74,7.78,7.78,0,0,0,2.47-1.47,6.23,6.23,0,0,0,1.49-2,9.55,9.55,0,0,0,.76-2.26,19.12,19.12,0,0,0,.33-2.27c0-.58.08-1.63.12-3.13s.08-3.28.1-5.32,0-4.2,0-6.51,0-4.55,0-6.74-.05-4.2-.08-6-.09-3.26-.16-4.31a12,12,0,0,0-.51-2.81,4.06,4.06,0,0,0-.92-1.61,2.9,2.9,0,0,0-1.36-.78,11.08,11.08,0,0,0-1.78-.28c-.69-.05-1.75-.08-3.17-.07s-3,0-4.77.06-3.61.1-5.54.18-3.73.17-5.43.27-3.2.21-4.53.34a16.28,16.28,0,0,0-2.77.43,4.4,4.4,0,0,0-1.8.79,3.48,3.48,0,0,0-1,1.17,5.09,5.09,0,0,0-.49,1.35c-.09.48-.18.95-.25,1.41-.09,1.12-.2,2.64-.33,4.57s-.28,4.06-.44,6.39-.33,4.78-.49,7.35-.33,5-.49,7.43-.33,4.6-.46,6.62-.26,3.67-.36,5a23,23,0,0,0,0,4.42,9,9,0,0,0,.72,2.76A5.12,5.12,0,0,0,78,203.11a15.17,15.17,0,0,0,1.64,1.27c.63.39,1.22.76,1.78,1.09a1.34,1.34,0,0,1,.77,1.26.61.61,0,0,1-.42.6,2.19,2.19,0,0,1-.91.11,10.07,10.07,0,0,1-2.49-.55c-.85-.3-1.84-.62-3-1s-2.49-.69-4.07-1a41.39,41.39,0,0,0-5.73-.8,46.53,46.53,0,0,0-6.42-.09c-2,.11-3.73.28-5.3.48s-2.92.4-4.06.59a12.48,12.48,0,0,1-2.74.19c-1.43-.11-2.1-.67-2-1.67a1.59,1.59,0,0,1,.59-1.29,4.19,4.19,0,0,1,1.36-.59,10.24,10.24,0,0,1,1.17-.2c.55-.08,1.21-.15,2-.23s1.59-.17,2.49-.3,1.83-.26,2.77-.42a7.85,7.85,0,0,0,3-1A5.22,5.22,0,0,0,60,197.81a6.35,6.35,0,0,0,.78-2.12c.14-.76.26-1.53.35-2.29,0-.24.1-1,.25-2.34s.33-3,.56-5,.49-4.33.78-6.92.56-5.29.86-8.08.57-5.57.83-8.36.5-5.44.74-7.94c0-.58.12-1.53.25-2.86s.26-2.92.4-4.77.31-3.91.51-6.18.39-4.64.59-7.11q.38-4.91.75-10t.63-9.51c.17-3,.3-5.55.37-7.8a46.54,46.54,0,0,0,0-4.82,18.27,18.27,0,0,0-.4-3,9.26,9.26,0,0,0-.91-2.43,10.44,10.44,0,0,0-1.5-2,15.08,15.08,0,0,0-2.15-1.86c-.81-.56-1.59-1.07-2.33-1.52s-1.4-.84-2-1.2a6.26,6.26,0,0,1-1.34-1.06,1.48,1.48,0,0,1-.44-1.11,1.08,1.08,0,0,1,.42-.81A1.79,1.79,0,0,1,59.31,86.42Z" transform="translate(0.01 -7.05)"/><path class="cls-3" d="M155.2,156.32a10,10,0,0,1-4-1.12,8.86,8.86,0,0,1-3.07-2.69,11.89,11.89,0,0,1-1.88-4.21,17.78,17.78,0,0,1-.36-5.79,24.35,24.35,0,0,1,1.56-6.94,17.72,17.72,0,0,1,3.63-5.88,15.59,15.59,0,0,1,5.79-3.88,18.09,18.09,0,0,1,8.14-1,21.61,21.61,0,0,1,6.77,1.54,18.52,18.52,0,0,1,5,3.13,17.55,17.55,0,0,1,3.54,4.26,28.62,28.62,0,0,1,2.32,4.92,38.6,38.6,0,0,1,1.43,5.11c.35,1.72.64,3.34.87,4.87.13.86.27,2.08.44,3.67s.34,3.41.53,5.48.38,4.28.59,6.64.4,4.75.6,7.17.39,4.77.58,7.06.37,4.37.53,6.26.3,3.51.4,4.86.2,2.27.28,2.78c.14,1.21.3,2.45.5,3.7a19.83,19.83,0,0,0,.83,3.47,7.93,7.93,0,0,0,1.45,2.64,3.37,3.37,0,0,0,2.41,1.18,2.65,2.65,0,0,0,1.53-.29,2.88,2.88,0,0,0,1.1-1,5.52,5.52,0,0,0,.67-1.52,8.6,8.6,0,0,0,.31-1.78c.06-.73.1-1.48.12-2.23s0-1.4.09-1.94a4.8,4.8,0,0,1,.35-1.49.91.91,0,0,1,1-.56,1.13,1.13,0,0,1,.95.8,6.55,6.55,0,0,1,.45,1.72,14,14,0,0,1,.11,1.93c0,.64,0,1.11,0,1.42a34.1,34.1,0,0,1-.71,4.54,16.88,16.88,0,0,1-1.83,4.8,8.93,8.93,0,0,1-3.78,3.72,10.15,10.15,0,0,1-5.72,1.12,12.91,12.91,0,0,1-4.71-1.18,12.48,12.48,0,0,1-3.25-2.29,13.93,13.93,0,0,1-2.17-2.79,20.41,20.41,0,0,1-1.33-2.72,28.81,28.81,0,0,1-1.92-7q-.54-3.79-.8-7.24a31,31,0,0,1-2.91,3.37,25.34,25.34,0,0,1-4.68,3.77,27,27,0,0,1-6.27,2.88,20.08,20.08,0,0,1-7.68.79,21.51,21.51,0,0,1-7.79-1.91,14.65,14.65,0,0,1-5.07-4,13.91,13.91,0,0,1-2.66-5.44,20.28,20.28,0,0,1-.49-6.41,21.08,21.08,0,0,1,1.9-7.12,17.46,17.46,0,0,1,4.88-6.24,22.75,22.75,0,0,1,8.29-4.18,33.85,33.85,0,0,1,12.08-.92c1.08.09,2.13.22,3.14.39s1.93.36,2.75.54,1.52.35,2.11.51,1,.28,1.28.33q0-5-.09-10c0-1.4-.09-2.88-.14-4.44s-.12-3.12-.19-4.69-.16-3.13-.28-4.65-.25-2.94-.42-4.27a13.44,13.44,0,0,0-3.06-7.37,9.39,9.39,0,0,0-6.64-3.16,9.13,9.13,0,0,0-4,.5,9.59,9.59,0,0,0-3.06,1.85,8.61,8.61,0,0,0-2,2.72,9.41,9.41,0,0,0-.83,3.11,4.77,4.77,0,0,0,.59,2.87,9.1,9.1,0,0,0,1.84,2.15,26.35,26.35,0,0,0,2.44,1.84,16.35,16.35,0,0,1,2.44,2,9,9,0,0,1,1.8,2.58,7.08,7.08,0,0,1,.53,3.62A5.75,5.75,0,0,1,160,155,6.84,6.84,0,0,1,155.2,156.32Zm18.38,13.24a13.32,13.32,0,0,0-1.38-.54c-.66-.23-1.44-.46-2.36-.71s-1.89-.47-2.94-.66a28.29,28.29,0,0,0-3.13-.42,18.2,18.2,0,0,0-5.77.42,12.81,12.81,0,0,0-4.73,2.21,11.91,11.91,0,0,0-3.34,4,15,15,0,0,0-1.57,5.84,11.15,11.15,0,0,0,.62,5.13,8.62,8.62,0,0,0,2.35,3.35,9.83,9.83,0,0,0,3.4,1.9,16.54,16.54,0,0,0,3.75.76,17,17,0,0,0,5.68-.49,25.6,25.6,0,0,0,4.85-1.77,21.21,21.21,0,0,0,3.48-2.11,14.16,14.16,0,0,0,1.68-1.44q-.09-3.9-.2-7.11c0-.94-.07-1.85-.1-2.74s-.06-1.73-.1-2.51-.07-1.44-.1-2S173.6,169.8,173.58,169.56Z" transform="translate(0.01 -7.05)"/><path class="cls-3" d="M219.89,128.41c.31,0,.58.54.81,1.54a39,39,0,0,1,.63,3.92c.18,1.6.35,3.45.49,5.53s.3,4.2.44,6.35l.94,14.73a33,33,0,0,1,1.36-4.32,38.76,38.76,0,0,1,2.33-5,35,35,0,0,1,3.36-5,24.74,24.74,0,0,1,4.37-4.25,19.44,19.44,0,0,1,5.4-2.87,17.57,17.57,0,0,1,13.87,1.5,14.65,14.65,0,0,1,4.9,5,19.94,19.94,0,0,1,2.52,7.21,37.26,37.26,0,0,1,.29,8.92,75.61,75.61,0,0,1-1.17,8.66q-.82,4.32-1.71,8.5T257,186.91a60.35,60.35,0,0,0-1.06,7.3,15.75,15.75,0,0,0,.07,3.55,11.12,11.12,0,0,0,.82,2.86,8.82,8.82,0,0,0,1.83,2.26c.74.66,1.45,1.28,2.12,1.86a14.73,14.73,0,0,1,1.73,1.7,2.3,2.3,0,0,1,.65,1.71,1.32,1.32,0,0,1-.36.87,1.14,1.14,0,0,1-1,.3,4.33,4.33,0,0,1-2.22-1c-.79-.58-1.76-1.32-2.91-2.2s-2.54-1.85-4.16-2.89a38.33,38.33,0,0,0-6-3,40.55,40.55,0,0,0-5.35-1.88,47.6,47.6,0,0,0-6.33-1.19c-1.34-.22-2-.66-1.94-1.31s.53-1.07,1.42-1l2.25.18c1,.07,2,.11,3,.11a6.6,6.6,0,0,0,3.93-1.11q1.59-1.14,2.61-4.42c.22-.88.46-2,.73-3.35s.51-2.81.74-4.36.46-3.13.67-4.75.36-3.15.47-4.61c.11-1.31.2-2.82.3-4.54s.11-3.51,0-5.38a42,42,0,0,0-.56-5.51,16.79,16.79,0,0,0-1.56-4.89,10.74,10.74,0,0,0-3-3.63,8.57,8.57,0,0,0-4.7-1.68,8.4,8.4,0,0,0-4.52.87,12.37,12.37,0,0,0-3.81,3.1,21.39,21.39,0,0,0-3.06,4.91,34.42,34.42,0,0,0-2.19,6.34,60.58,60.58,0,0,0-1.41,7.31c-.33,2.51-.6,5-.79,7.52q-.25,3.18-.25,6.12c0,2,.08,3.76.22,5.42a33.5,33.5,0,0,0,.64,4.44,10.93,10.93,0,0,0,1.09,3.11,8.12,8.12,0,0,0,2.2,2.44,11.51,11.51,0,0,0,2.05,1.21,9.34,9.34,0,0,1,1.6.74.8.8,0,0,1,.44.76c0,.23-.22.43-.6.59A4.18,4.18,0,0,1,229,202a20.74,20.74,0,0,1-2.65-.41l-3-.67c-1-.24-2.09-.47-3.2-.69a29.37,29.37,0,0,0-3.28-.46c-1.08-.08-2.18-.13-3.3-.14l-3.23,0h-2.82c-.85,0-1.53,0-2,0-1.51-.12-2.22-.66-2.14-1.62a1.19,1.19,0,0,1,.44-.87,2.3,2.3,0,0,1,1.4-.38h1.45c.43,0,.87,0,1.31,0l1.39,0c.49,0,1.06,0,1.72,0a3.4,3.4,0,0,0,2.62-1.16,5.54,5.54,0,0,0,.9-2.87,67.78,67.78,0,0,0,.05-7.79c-.13-3.07-.35-6.46-.68-10.17s-.77-7.65-1.32-11.82-1.13-8.43-1.76-12.78a18.14,18.14,0,0,0-1.21-5,2.81,2.81,0,0,0-2.44-1.82,5.25,5.25,0,0,0-1.82.18c-.63.16-1.26.34-1.87.55l-1.76.56a4.3,4.3,0,0,1-1.53.2c-.73-.06-1.07-.39-1-1a1.11,1.11,0,0,1,.69-1c.43-.18.87-.35,1.35-.51,1.11-.34,2.32-.79,3.63-1.34a29.72,29.72,0,0,0,4.28-2.34,28,28,0,0,0,4.09-3.29q1.83-1.77,3.17-3.3c.89-1,1.62-1.86,2.17-2.53S219.62,128.39,219.89,128.41Z" transform="translate(0.01 -7.05)"/><path class="cls-3" d="M326.43,141a15,15,0,0,1,5.25,1.32,12.22,12.22,0,0,1,3.85,2.77,10.82,10.82,0,0,1,2.29,3.84,11.19,11.19,0,0,1,.54,4.52q-.36,4.68-2.79,7.08a7.51,7.51,0,0,1-6.18,2.1,9,9,0,0,1-2.86-.68,6.46,6.46,0,0,1-2.2-1.57A6.62,6.62,0,0,1,323,158a7.52,7.52,0,0,1-.35-3,10.68,10.68,0,0,1,.75-3.28,9,9,0,0,0,.72-2.88,3,3,0,0,0-.94-2.81,4.81,4.81,0,0,0-2.6-1,7.16,7.16,0,0,0-4.06,1,10.41,10.41,0,0,0-3.54,3.27,15.64,15.64,0,0,0-1.06,2,5.68,5.68,0,0,0-.52,1.85,1.51,1.51,0,0,0,.44,1,14.49,14.49,0,0,0,1.26,1.35l1.78,1.74a19.57,19.57,0,0,1,1.95,2.22,21.74,21.74,0,0,1,3,5.35,16.25,16.25,0,0,1,.93,7.34,27.79,27.79,0,0,1-1.67,8,19.93,19.93,0,0,1-3.32,5.73,17.13,17.13,0,0,1-4.58,3.83,22.63,22.63,0,0,1-5.43,2.22,29.3,29.3,0,0,1-5.95.93,46.22,46.22,0,0,1-6-.06l-2.26-.18a14.14,14.14,0,0,0-6.28,1.89,5.38,5.38,0,0,0-2.69,4.33,4.15,4.15,0,0,0,.92,3.09,9.22,9.22,0,0,0,2.93,2.3A21.66,21.66,0,0,0,290.7,206c1.67.46,3.41.88,5.23,1.28s3.62.78,5.43,1.15,3.49.78,5.05,1.21a56.89,56.89,0,0,1,7.55,2.74,23.52,23.52,0,0,1,6.31,4.07,16.66,16.66,0,0,1,4.16,5.94,17.6,17.6,0,0,1,1.1,8.28,19.49,19.49,0,0,1-1.82,6.93,22,22,0,0,1-4,5.73,29.49,29.49,0,0,1-5.71,4.58,36.93,36.93,0,0,1-6.89,3.36,45.08,45.08,0,0,1-10.37,2.45,58.9,58.9,0,0,1-11.53.2,42.65,42.65,0,0,1-10.31-2,25.35,25.35,0,0,1-8.17-4.39,17.78,17.78,0,0,1-6.58-15.89,20.19,20.19,0,0,1,2-7.52,24.6,24.6,0,0,1,4-5.82,27.19,27.19,0,0,1,5.23-4.33,47.68,47.68,0,0,1,5.53-3.06,47.15,47.15,0,0,1,4.95-2c1.51-.5,2.69-.87,3.52-1.12a25.09,25.09,0,0,1-4-1.13,15.27,15.27,0,0,1-3.58-1.84,8.64,8.64,0,0,1-2.49-2.73,6.43,6.43,0,0,1-.75-3.75,6.07,6.07,0,0,1,2.83-4.64,17.68,17.68,0,0,1,7.15-2.55,24.45,24.45,0,0,1-5.93-3,19.08,19.08,0,0,1-4.59-4.46,18.24,18.24,0,0,1-2.82-6,24.14,24.14,0,0,1,1.94-16.59,20.29,20.29,0,0,1,5.47-6.47,21.58,21.58,0,0,1,7.68-3.7,27.3,27.3,0,0,1,9.19-.76c1,.07,1.94.2,2.93.37s1.93.37,2.81.57l2.43.54a16.78,16.78,0,0,0,1.81.29,6.3,6.3,0,0,0,2.43-.22,4.1,4.1,0,0,0,1.9-1.6c.86-1.17,1.81-2.34,2.83-3.5a18.1,18.1,0,0,1,3.5-3.07,15.24,15.24,0,0,1,4.49-2A16.82,16.82,0,0,1,326.43,141Zm-51.32,88a24.44,24.44,0,0,0,.63,8,18.52,18.52,0,0,0,3.17,6.7,17.33,17.33,0,0,0,5.61,4.8,19.53,19.53,0,0,0,8,2.23,22.34,22.34,0,0,0,9.09-1A17.94,17.94,0,0,0,308.1,246a17.19,17.19,0,0,0,4.07-5.9,23,23,0,0,0,1.72-7.17,24.65,24.65,0,0,0-.39-6.92,17.78,17.78,0,0,0-6.93-10.95,25.12,25.12,0,0,0-6.93-3.6,45.54,45.54,0,0,0-5.12-1.53c-1.63-.38-3.12-.68-4.46-.9a35.73,35.73,0,0,0-4.61,2.81,26.72,26.72,0,0,0-4.69,4.22,24.74,24.74,0,0,0-3.77,5.73A20.55,20.55,0,0,0,275.11,229.08Zm24.14-75.16a10.35,10.35,0,0,0-4.44.67,10.12,10.12,0,0,0-4.13,3,19.32,19.32,0,0,0-3.26,5.88,34,34,0,0,0-1.78,9.11,25.93,25.93,0,0,0,.36,7.67,16.91,16.91,0,0,0,2.07,5.4,9.85,9.85,0,0,0,3.21,3.27,8.37,8.37,0,0,0,3.68,1.25,10.65,10.65,0,0,0,3.76-.49,9.69,9.69,0,0,0,4.16-2.67,18.66,18.66,0,0,0,3.63-5.82,32.3,32.3,0,0,0,2.08-10q.65-8.21-1.89-12.59A9,9,0,0,0,299.25,153.92Z" transform="translate(0.01 -7.05)"/><path class="cls-3" d="M380.38,185a15.59,15.59,0,0,1,1.2,3.7,16.31,16.31,0,0,1,.3,4.62,19.42,19.42,0,0,1-2,7.43,15.13,15.13,0,0,1-4.43,5.29,17.88,17.88,0,0,1-6.54,3,26.15,26.15,0,0,1-8.34.57A29.38,29.38,0,0,1,349,206.51a24.26,24.26,0,0,1-8.22-6.89,27.38,27.38,0,0,1-4.63-9.93,38.25,38.25,0,0,1-.9-12.25,42.36,42.36,0,0,1,2.12-10.71,35.36,35.36,0,0,1,4.14-8.4,30.53,30.53,0,0,1,12.1-10.45,27.75,27.75,0,0,1,6.8-2.23,25.42,25.42,0,0,1,6.55-.39,26.75,26.75,0,0,1,6.29,1.31,17.49,17.49,0,0,1,5.83,3.24,15.54,15.54,0,0,1,4.1,5.53,16.65,16.65,0,0,1,1.13,8.2,20.38,20.38,0,0,1-1.82,7.3,18.13,18.13,0,0,1-8.59,8.69,28.12,28.12,0,0,1-5.44,2,29,29,0,0,1-5.36.83,32.89,32.89,0,0,1-4.57,0,36.18,36.18,0,0,1-5.48-.83,30.14,30.14,0,0,1-4.13-1.2,39.48,39.48,0,0,0,.74,8.81,24.8,24.8,0,0,0,2.8,7.63,17,17,0,0,0,5.07,5.52,14.89,14.89,0,0,0,7.51,2.5,12.4,12.4,0,0,0,5.37-.62,10.48,10.48,0,0,0,3.89-2.52,11.63,11.63,0,0,0,2.45-3.91,16.8,16.8,0,0,0,1.08-4.8,24.92,24.92,0,0,0,0-3.13,14.32,14.32,0,0,0-.48-3.12c-.19-.6-.34-1.15-.46-1.67a4.26,4.26,0,0,1-.13-1.23c.06-.77.44-1.13,1.13-1.07a2.2,2.2,0,0,1,1.2.61A5.13,5.13,0,0,1,380.38,185ZM349,176.48a25.62,25.62,0,0,0,3.35,1.05,30,30,0,0,0,4.77.69,15.08,15.08,0,0,0,6.29-.79,14.32,14.32,0,0,0,5.13-3.17,16.81,16.81,0,0,0,3.61-5.27,21.51,21.51,0,0,0,1.72-7.14,19.35,19.35,0,0,0-.32-6,10.83,10.83,0,0,0-1.75-4,7.14,7.14,0,0,0-2.76-2.28,9.65,9.65,0,0,0-3.33-.87,10.41,10.41,0,0,0-4.84,1,13.22,13.22,0,0,0-5.08,4.25,29.64,29.64,0,0,0-4.27,8.6A58.19,58.19,0,0,0,349,176.48Z" transform="translate(0.01 -7.05)"/><path class="cls-3" d="M444.09,102.79c.31,0,.49.32.55.89a14,14,0,0,1,0,2.29c-.23,3-.52,6.25-.85,9.74s-.68,7.11-1.05,10.9-.77,7.68-1.18,11.66-.82,7.95-1.25,11.91q-.82,8.37-1.62,16.33c-.54,5.31-1,10.18-1.44,14.63s-.79,8.32-1.11,11.63-.54,5.77-.67,7.39a18.7,18.7,0,0,0,.11,4.6,9.65,9.65,0,0,0,1,3,5.44,5.44,0,0,0,1.63,1.84,14.06,14.06,0,0,0,2,1.15,15.09,15.09,0,0,0,2.74.94c.9.2,1.69.37,2.38.5a7.39,7.39,0,0,1,1.62.48.87.87,0,0,1,.54.91c-.05.58-.49.92-1.33,1a14.57,14.57,0,0,1-2.65,0q-2-.15-5.41-.74c-2.29-.39-4.94-.71-7.95-.94a40.59,40.59,0,0,0-4.41-.12L421,213c-1.65,0-3.46.07-5.42.07s-4.17-.09-6.63-.28a36.58,36.58,0,0,1-9.67-2,22,22,0,0,1-7.66-4.64,19,19,0,0,1-4.82-7.53,25.74,25.74,0,0,1-1.14-10.7,22.92,22.92,0,0,1,2.76-9.64,21,21,0,0,1,6-6.83,24.05,24.05,0,0,1,8.38-3.88,30.21,30.21,0,0,1,9.87-.8,39.3,39.3,0,0,1,8.92,1.57,44.54,44.54,0,0,1,5.67,2.19q.43-5.55.77-11.31c.22-3.84.43-7.59.61-11.23s.36-7.1.52-10.34.28-6.11.38-8.58.17-4.49.21-6,.08-2.44.09-2.67c0-.58,0-1.15,0-1.72a7.67,7.67,0,0,0-.17-1.52,2.32,2.32,0,0,0-.52-1.09,1.59,1.59,0,0,0-1.07-.46,6.14,6.14,0,0,0-2,.22c-.75.19-1.51.41-2.29.64s-1.53.44-2.28.63a5.91,5.91,0,0,1-2,.22,2.32,2.32,0,0,1-1-.28.81.81,0,0,1-.39-.87,1.51,1.51,0,0,1,.64-1.17,6.77,6.77,0,0,1,1.66-.8,16.25,16.25,0,0,1,1.79-.53c.67-.16,1.49-.41,2.47-.74s2.14-.76,3.5-1.29,3-1.27,4.89-2.21,3.42-1.75,4.7-2.54,2.35-1.48,3.19-2.08,1.5-1.06,2-1.41A1.91,1.91,0,0,1,444.09,102.79Zm-18.46,94.8c.13-1.69.27-3.54.4-5.52s.28-4,.42-6.07.27-4.12.37-6.17.2-4,.3-5.79a19,19,0,0,0-4.27-1.88,25.2,25.2,0,0,0-5.73-1,16.45,16.45,0,0,0-6.93.79,13.94,13.94,0,0,0-5.26,3.37,16.46,16.46,0,0,0-3.52,5.6,26.19,26.19,0,0,0-1.64,7.55,31.62,31.62,0,0,0,.35,8.25,18.17,18.17,0,0,0,2.43,6.5,12.93,12.93,0,0,0,4.57,4.4,15.63,15.63,0,0,0,6.76,2,12.48,12.48,0,0,0,5.61-.63,8.75,8.75,0,0,0,3.53-2.43,9.25,9.25,0,0,0,1.83-3.76A31.15,31.15,0,0,0,425.63,197.59Z" transform="translate(0.01 -7.05)"/><path class="cls-3" d="M400.05,222.53a3.32,3.32,0,0,1,2.17.95,3.9,3.9,0,0,1,.66,3.05,26.64,26.64,0,0,1-.72,4q-.6,2.49-1.32,5c-.48,1.67-.94,3.19-1.38,4.57s-.73,2.34-.89,2.87c-.1.34-.3.93-.57,1.76s-.63,1.75-1,2.77-.85,2.06-1.3,3.15-.91,2.08-1.36,3a17.77,17.77,0,0,1-1.31,2.19c-.41.57-.77.84-1.08.82a.62.62,0,0,1-.47-.33,2.58,2.58,0,0,1-.1-1.29c0-.65.18-1.56.38-2.73s.43-2.47.66-3.9.46-2.93.7-4.48.41-3,.52-4.41a15.17,15.17,0,0,0-.28-5.05,6,6,0,0,0-1.69-2.93,6.34,6.34,0,0,0-2.91-1.44,25.93,25.93,0,0,0-3.88-.57,58,58,0,0,0-6.3-.12,45.47,45.47,0,0,0-6.59.68,4.73,4.73,0,0,0-3.5,1.94,9.12,9.12,0,0,0-1.1,4c0,.27-.08,1.35-.19,3.24s-.24,4.33-.4,7.3-.33,6.38-.53,10.22-.41,7.83-.62,12c1.08,0,2.19,0,3.32-.06a9.8,9.8,0,0,0,2.89-.5A6.48,6.48,0,0,0,374,267a7.56,7.56,0,0,0,1.49-1.68,10.86,10.86,0,0,0,1-1.87,17.73,17.73,0,0,0,.64-1.76c.8-2.41,1.42-4.12,1.85-5.11s.93-1.47,1.51-1.43,1,.8.93,2.23a16.84,16.84,0,0,1-.43,2.46c-.23,1-.5,2-.8,3.23s-.6,2.52-.87,4a44.83,44.83,0,0,0-.59,4.66c-.12,1.51-.21,3.05-.28,4.64s-.11,3.05-.14,4.4-.05,2.57-.08,3.63-.06,1.83-.09,2.29a8.77,8.77,0,0,1-.61,2.92c-.3.64-.66.94-1.09.9s-.82-.42-1.07-1.16a12.78,12.78,0,0,1-.2-4.17c.08-1.51.1-2.89.07-4.15a12.91,12.91,0,0,0-.5-3.36,6.52,6.52,0,0,0-1.34-2.48,6.66,6.66,0,0,0-2.43-1.68,11.84,11.84,0,0,0-2.49-.57c-1-.14-2-.25-3-.32q-.31,6.19-.59,12.34c-.18,4.09-.36,7.89-.51,11.38s-.28,6.56-.37,9.19-.15,4.55-.16,5.75a20,20,0,0,0,.34,4.53,8,8,0,0,0,1.17,2.85,5.58,5.58,0,0,0,1.91,1.72,16.47,16.47,0,0,0,2.58,1.13,7.61,7.61,0,0,0,1.14.38,6.79,6.79,0,0,1,1.21.45,3.54,3.54,0,0,1,1,.63,1,1,0,0,1,.34.87,1.08,1.08,0,0,1-.38.78,2,2,0,0,1-.85.37,4.47,4.47,0,0,1-1.05.09c-.37,0-.72,0-1.07,0a22.62,22.62,0,0,1-2.41-.39c-1-.22-2.22-.45-3.55-.69s-2.78-.49-4.31-.74-3.08-.45-4.66-.57-2.8-.17-4.12-.18l-4.07,0c-1.4,0-2.85,0-4.36,0s-3.16-.1-4.93-.24a14.61,14.61,0,0,1-2.58-.38,5.42,5.42,0,0,1-1.47-.55,1.46,1.46,0,0,1-.65-.66,1.48,1.48,0,0,1-.12-.71c.07-.88.83-1.38,2.27-1.5.35,0,.91,0,1.69,0h2.59q1.43,0,2.94-.09a26.53,26.53,0,0,0,2.7-.28,13.75,13.75,0,0,0,2.5-.77,6.91,6.91,0,0,0,2.27-1.5,8.31,8.31,0,0,0,1.72-2.72,14.47,14.47,0,0,0,.93-4.43c.24-3.09.39-6.64.46-10.67s.06-8.22,0-12.59-.18-8.75-.36-13.17-.4-8.6-.65-12.55-.53-7.51-.82-10.65-.59-5.64-.87-7.48a10,10,0,0,0-1.23-3.67A8,8,0,0,0,347,235.5a9.61,9.61,0,0,0-2.62-1.37c-1-.32-2-.6-3-.84a11.3,11.3,0,0,1-2.63-1,1.55,1.55,0,0,1-.89-1.58,1.31,1.31,0,0,1,.88-1.27,4.61,4.61,0,0,1,1.91-.2c3.27.26,7.39.34,12.36.27A133.78,133.78,0,0,0,370,228q7.35-1,12.35-2.12c3.33-.71,6.12-1.32,8.37-1.85s4.09-.93,5.53-1.22A14,14,0,0,1,400.05,222.53Z" transform="translate(0.01 -7.05)"/><path class="cls-3" d="M400.77,255a32.39,32.39,0,0,1,2.94-11.55,25.43,25.43,0,0,1,6.42-8.48,25.06,25.06,0,0,1,9.38-5,32.32,32.32,0,0,1,11.74-1.09,28.62,28.62,0,0,1,10.4,2.73,24.05,24.05,0,0,1,7.92,6.11,25.28,25.28,0,0,1,4.85,9.05,30.68,30.68,0,0,1,1.11,11.51,30.28,30.28,0,0,1-3.46,12.58,26.18,26.18,0,0,1-7,8.24,24.84,24.84,0,0,1-9,4.33,29.24,29.24,0,0,1-9.43.86,31,31,0,0,1-10.4-2.65,27,27,0,0,1-8.52-6,25.87,25.87,0,0,1-5.54-9A27.09,27.09,0,0,1,400.77,255Zm29.49-23.92a9.89,9.89,0,0,0-5.82,1.2,12.84,12.84,0,0,0-4.3,4.14,22.12,22.12,0,0,0-2.8,6.35,41.42,41.42,0,0,0-1.33,7.78,58.77,58.77,0,0,0-.14,6.91,49.23,49.23,0,0,0,.72,6.77,41.06,41.06,0,0,0,1.61,6.18,21,21,0,0,0,2.6,5.11,13.37,13.37,0,0,0,3.7,3.58,11.42,11.42,0,0,0,10.9.44,11.93,11.93,0,0,0,4.17-3.86,18.79,18.79,0,0,0,2.5-5.62,34.09,34.09,0,0,0,1.12-6.39,73.09,73.09,0,0,0-.08-14,35.18,35.18,0,0,0-2.47-10.05,15.85,15.85,0,0,0-4.43-6.19A10.62,10.62,0,0,0,430.26,231.07Z" transform="translate(0.01 -7.05)"/><path class="cls-3" d="M455.23,228.6c.54,0,1.14.11,1.82.2s1.45.17,2.33.24c1.47.12,3.33.21,5.59.29a53.85,53.85,0,0,0,8.27-.48c2.89-.36,5.45-.79,7.66-1.29s4.12-1,5.73-1.5,3-.91,4.05-1.23a7.88,7.88,0,0,1,2.68-.4,1.27,1.27,0,0,1,.9.33.9.9,0,0,1,.18.63,1,1,0,0,1-.79.87,9.7,9.7,0,0,1-1.57.34c-.75.17-1.51.37-2.29.6a7.56,7.56,0,0,0-2.14,1A5.58,5.58,0,0,0,486,230a6.39,6.39,0,0,0-.81,2.84,20.58,20.58,0,0,0,.29,5.29c.32,1.79.67,3.36,1,4.7.17.71.47,1.75.89,3.12s.86,2.75,1.33,4.12.91,2.57,1.32,3.59.7,1.54.9,1.56a2.73,2.73,0,0,0,.74-.61c.42-.42.92-.94,1.49-1.57s1.2-1.32,1.88-2.07,1.31-1.44,1.91-2.12l1.53-1.74c.43-.49.68-.79.77-.9l.92-1.41a3.56,3.56,0,0,0,.6-1.67,2.8,2.8,0,0,0-.34-1.56,3.41,3.41,0,0,0-1.7-1.33,11.2,11.2,0,0,0-2.19-.72c-.7-.15-1.32-.31-1.85-.47q-1.53-.47-1.44-1.62a1.1,1.1,0,0,1,.45-.9,1.4,1.4,0,0,1,.91-.21,13,13,0,0,1,2,.36c.82.2,1.74.42,2.77.65l3.31.75a32.93,32.93,0,0,0,3.62.61c1,.15,1.83.26,2.62.32l2.23.17a43.65,43.65,0,0,0,4.49.18,27.83,27.83,0,0,1,3.1.07,3.17,3.17,0,0,1,1.34.36.94.94,0,0,1,.48.94c-.08,1-1.1,1.49-3.08,1.45-1.35,0-2.55,0-3.6,0a18.94,18.94,0,0,0-2.88.29,15.32,15.32,0,0,0-4,1.55,19.1,19.1,0,0,0-4.73,3.88c-2,2.09-3.69,3.94-5.11,5.56a47.67,47.67,0,0,0-3.12,3.8,7.62,7.62,0,0,0-.82,1.53,6.25,6.25,0,0,0-.36,1.69,7.42,7.42,0,0,0,0,1.4c.06.51.13,1,.2,1.58q.19,1.13.63,2.76c.28,1.08.6,2.24,1,3.47s.71,2.47,1.1,3.72.75,2.41,1.1,3.46.64,2,.89,2.77a11.92,11.92,0,0,0,.57,1.62,8.89,8.89,0,0,0,1.54,2.59,9.06,9.06,0,0,0,2,1.73,10.18,10.18,0,0,0,2.45,1.09c.87.27,1.76.51,2.67.74,2.06.47,3.49.84,4.28,1.12s1.17.68,1.12,1.22-.51,1-1.39,1.14a16.9,16.9,0,0,1-3.7,0c-.69-.06-1.48-.14-2.36-.24s-1.87-.21-3-.29-2.32-.15-3.62-.17-2.67,0-4.11.14a25.12,25.12,0,0,0-4.51.79c-1.52.4-3,.81-4.34,1.23s-2.6.77-3.69,1.07a7.84,7.84,0,0,1-2.62.38,1.76,1.76,0,0,1-1.89-1.83,1.76,1.76,0,0,1,.75-1.43,5.19,5.19,0,0,1,1.57-.66c.67-.14,1.46-.28,2.38-.42a26.59,26.59,0,0,0,2.66-.55,10.81,10.81,0,0,0,2.19-.82,1.55,1.55,0,0,0,1-1.23,8.12,8.12,0,0,0-.43-2.65c-.34-1.15-.73-2.32-1.18-3.5s-.9-2.26-1.35-3.24-.76-1.62-.93-1.91a1.69,1.69,0,0,0-1.53-1.16,2.19,2.19,0,0,0-.8.11,2.71,2.71,0,0,0-.94.56,17.19,17.19,0,0,0-1.33,1.35c-.59.66-1.22,1.34-1.88,2.07l-1.84,2c-.58.64-1,1.08-1.18,1.34l-.39.46q-.26.3-.51.66a5.6,5.6,0,0,0-.43.66,1.32,1.32,0,0,0-.19.48.42.42,0,0,0,.32.43,5.17,5.17,0,0,0,.79.27,9.37,9.37,0,0,0,.92.19,6.18,6.18,0,0,1,.74.14,6.37,6.37,0,0,1,1.19.39.67.67,0,0,1,.41.73.72.72,0,0,1-.52.65,2.46,2.46,0,0,1-1.11.15c-.93-.07-1.83-.18-2.71-.33s-1.94-.27-3.17-.36a25.13,25.13,0,0,0-3.28,0c-1.23.06-2.45.13-3.65.21l-3.31.24a16.08,16.08,0,0,1-2.18.06,1.38,1.38,0,0,1-1-.4,1,1,0,0,1-.29-.8c.06-.73.61-1.12,1.66-1.15a19.71,19.71,0,0,0,2.11-.13c.82-.09,1.69-.22,2.62-.4s1.82-.39,2.69-.64a10,10,0,0,0,2.28-.92,29.18,29.18,0,0,0,3.1-2.06c1.05-.79,2.07-1.63,3.05-2.52s1.91-1.81,2.8-2.75a33.28,33.28,0,0,0,2.3-2.67,18.26,18.26,0,0,0,1.58-2.35,4.42,4.42,0,0,0,.66-1.78,4.47,4.47,0,0,0,0-1,6.28,6.28,0,0,0-.29-1.07q-.44-1.26-1.2-3.27t-1.72-4.4q-.94-2.4-2-5c-.7-1.72-1.36-3.36-2-4.92s-1.23-3-1.78-4.3-1-2.34-1.39-3.1c-.3-.61-.67-1.26-1.1-1.95a22,22,0,0,0-1.49-2.09,23.5,23.5,0,0,0-1.85-2,13.84,13.84,0,0,0-2.1-1.7,11.63,11.63,0,0,0-4.06-1.72,34.16,34.16,0,0,0-4.31-.62c-1.35-.11-2-.59-1.92-1.43a1.35,1.35,0,0,1,.35-.82A1.36,1.36,0,0,1,455.23,228.6Z" transform="translate(0.01 -7.05)"/></svg>