<svg id="Layer_1" data-name="Layer 1" xmlns="http://www.w3.org/2000/svg" viewBox="0 0 467.23 292.62"><defs><style>.cls-1{fill:#fff;}.cls-2{fill:#cd675b;}</style></defs><title>logotype</title><path class="cls-1" d="M-56.55,329.54c.66-.1,1.08.53,1.28,1.88.06.48.15,1.11.25,1.87s.21,1.83.34,3.2.28,3.1.46,5.22.39,4.78.62,8l.65,9,1.44-.24c.41-.08.78-.15,1.1-.19a4.1,4.1,0,0,1,1.95,0,1,1,0,0,1,.66.89,1.16,1.16,0,0,1-.36,1.07,2.71,2.71,0,0,1-1.24.59,10.45,10.45,0,0,1-1.33.26l-2,.28c.11,1.52.22,2.82.32,3.88s.21,2.05.31,3,.19,1.83.29,2.74.2,2,.31,3.18a14.49,14.49,0,0,1,1.3-3A12.66,12.66,0,0,1-48,368.33,12.31,12.31,0,0,1-45,366.14a12.47,12.47,0,0,1,4.06-1.25,15,15,0,0,1,6.24.27,11.21,11.21,0,0,1,4.74,2.7,14.13,14.13,0,0,1,3.27,4.88,27.33,27.33,0,0,1,1.82,6.82,47.9,47.9,0,0,1,.47,6.9q0,3.5-.16,6.76t-.25,6a26,26,0,0,0,.16,4.75,9,9,0,0,0,.85,2.82,6.64,6.64,0,0,0,1.91,2.2,10.25,10.25,0,0,0,1.39,1l1,.58c.25.15.45.28.59.38a.67.67,0,0,1,.24.45.5.5,0,0,1-.12.39,1,1,0,0,1-.62.25,5.31,5.31,0,0,1-2-.15c-.76-.18-1.59-.4-2.5-.64s-1.86-.5-2.86-.73a15,15,0,0,0-3.08-.4,33.9,33.9,0,0,0-4.25.14c-1.45.14-2.9.32-4.34.52-1.24.18-1.91,0-2-.58a.63.63,0,0,1,.33-.65,4.45,4.45,0,0,1,1-.48l1.41-.5A10.48,10.48,0,0,0-36,407.9a13.62,13.62,0,0,0,1.45-1,6.48,6.48,0,0,0,1.22-1.28,7.22,7.22,0,0,0,.92-1.75,12.12,12.12,0,0,0,.58-2.34c.12-.9.22-2.08.31-3.53s.14-3.1.15-4.95-.06-3.85-.19-6-.36-4.38-.69-6.7a41.51,41.51,0,0,0-1.22-5.79,14.76,14.76,0,0,0-1.91-4.24,7,7,0,0,0-2.8-2.45,6.89,6.89,0,0,0-3.94-.44,7.63,7.63,0,0,0-3.36,1.25A8.78,8.78,0,0,0-47.79,371a11.2,11.2,0,0,0-1.4,2.89,20.07,20.07,0,0,0-.72,3,23.47,23.47,0,0,0-.26,2.71c0,.83,0,1.48,0,1.94,0,.72,0,1.59.05,2.6s.12,2.11.2,3.27.2,2.34.33,3.56.27,2.38.43,3.49c.08.57.16,1.1.23,1.57s.16,1,.27,1.44a14,14,0,0,0,4.31-1.54,9.18,9.18,0,0,0,2.53-2.13,5.88,5.88,0,0,0,1.14-2.35,6.63,6.63,0,0,0,.1-2.19,3.37,3.37,0,0,0-.74-1.78c-.39-.45-.8-.87-1.23-1.28a12.86,12.86,0,0,1-1.24-1.31,3.63,3.63,0,0,1-.75-1.84,4.65,4.65,0,0,1,.07-1.84,3.86,3.86,0,0,1,.7-1.42,3.48,3.48,0,0,1,1.17-.95,4.79,4.79,0,0,1,1.43-.46,4,4,0,0,1,3.17.77,4.87,4.87,0,0,1,1.62,3.3,16.55,16.55,0,0,1,.16,2.35,15.33,15.33,0,0,1-.29,3,16.35,16.35,0,0,1-1,3.29,12.28,12.28,0,0,1-2.1,3.24,15,15,0,0,1-3.45,2.83,18.89,18.89,0,0,1-5.08,2.08,5,5,0,0,0,1,2.1,7.91,7.91,0,0,0,1.67,1.51,10.37,10.37,0,0,0,1.87,1,10.44,10.44,0,0,0,1.56.52c.72.19,1.32.33,1.81.41s.76.28.81.59a.61.61,0,0,1-.25.52,2.24,2.24,0,0,1-1.13.38,10.26,10.26,0,0,1-2,.06l-2.32-.14c-.84,0-1.75-.07-2.72-.07a20.49,20.49,0,0,0-3.12.23,19.07,19.07,0,0,0-3.41.8c-1.16.38-2.26.77-3.29,1.17l-2.75,1.1a8.56,8.56,0,0,1-1.79.57c-.37.05-.57,0-.61-.25s.06-.39.32-.61a10.66,10.66,0,0,1,1-.73c.43-.28.93-.58,1.5-.93a14.42,14.42,0,0,0,1.73-1.25,7.1,7.1,0,0,0,2.15-2.85,8.3,8.3,0,0,0,.63-3.37A19.31,19.31,0,0,1-63,398.22a15,15,0,0,1-5.09-4.05,18.79,18.79,0,0,1-3.13-5.92,42.66,42.66,0,0,1-1.7-7.43c-.18-1.26-.31-2.59-.39-4s-.13-2.74-.17-4-.08-2.49-.11-3.57a25.64,25.64,0,0,0-.2-2.65,3.83,3.83,0,0,0-.6-1.77,1.55,1.55,0,0,0-1.55-.39,18.71,18.71,0,0,0-1.9.37c-.63.15-1.27.32-1.91.5s-1.27.35-1.89.51-1.19.27-1.73.35a1.85,1.85,0,0,1-1.33-.15,1.1,1.1,0,0,1-.44-.74c-.08-.59.29-1,1.12-1.26,1.55-.44,2.88-.86,4-1.26s2.12-.78,3-1.18a18.65,18.65,0,0,0,2.33-1.22,17.87,17.87,0,0,0,2-1.4A12,12,0,0,0-70,356.19c.7-1,1.29-2,1.78-2.86s.9-1.65,1.25-2.27.69-.95,1-1,.62.13.68.57a4.68,4.68,0,0,1-.08,1.5q-.18.87-.42,1.89a20,20,0,0,0-.38,2.1,7.42,7.42,0,0,0,0,2.05,2.89,2.89,0,0,0,.55,1.41,1.8,1.8,0,0,0,1.38.62,11.78,11.78,0,0,0,2.25-.14c1-.12,2.18-.29,3.6-.49l-.27-3.79c-.09-1.27-.19-2.46-.28-3.57s-.18-2.11-.27-3-.17-1.55-.24-2c-.12-.85-.26-1.65-.41-2.41a11.46,11.46,0,0,0-.62-2.07,6.12,6.12,0,0,0-.95-1.62,3.41,3.41,0,0,0-1.45-1,4.67,4.67,0,0,0-2-.22c-.81.05-1.59.13-2.35.24l-2.18.34-1.78.29a3.5,3.5,0,0,1-1.16,0,.59.59,0,0,1-.48-.55c0-.26.1-.47.43-.62a10.13,10.13,0,0,1,1.42-.45c.66-.18,1.33-.38,2-.58s1.33-.45,2-.73a19.14,19.14,0,0,0,2.07-1,18.41,18.41,0,0,0,2.1-1.3,14.87,14.87,0,0,0,2.4-2.07c.64-.7,1.2-1.34,1.66-1.91s.86-1,1.19-1.42A1.6,1.6,0,0,1-56.55,329.54Zm-9.3,51.28q.41,2.88,1.08,5.67a22.57,22.57,0,0,0,1.83,5.1,12.63,12.63,0,0,0,3,3.89,8.68,8.68,0,0,0,4.51,2c-.07-1.28-.17-2.81-.29-4.6s-.26-3.68-.41-5.67-.31-4-.47-6.05-.31-4-.46-5.78-.28-3.44-.41-4.87-.21-2.52-.25-3.27l-.42-5.29c-1.12.1-2.19.21-3.19.34l-2.53.34a3.82,3.82,0,0,0-1.51.51,2.65,2.65,0,0,0-.87.86,3.28,3.28,0,0,0-.4,1,6.43,6.43,0,0,0-.13,1c0,.59-.07,1.46,0,2.61s.08,2.43.16,3.82.21,2.82.35,4.28S-66,379.57-65.85,380.82Z" transform="translate(99.52 -324.78)"/><path class="cls-1" d="M3.76,376.71a8.89,8.89,0,0,1,1.13,1.91,9.07,9.07,0,0,1,.74,2.53,11.18,11.18,0,0,1-.17,4.39A8.74,8.74,0,0,1,3.65,389a10.35,10.35,0,0,1-3.27,2.49,15.23,15.23,0,0,1-4.56,1.35,16.87,16.87,0,0,1-6.85-.31,13.93,13.93,0,0,1-5.43-2.81,15.52,15.52,0,0,1-3.81-4.95,21.48,21.48,0,0,1-2-6.71,24.44,24.44,0,0,1-.16-6.23,20.34,20.34,0,0,1,1.26-5.19,17.82,17.82,0,0,1,2.35-4.18,17.43,17.43,0,0,1,3.09-3.15,15.87,15.87,0,0,1,3.51-2.09,14.77,14.77,0,0,1,3.59-1A16,16,0,0,1-5,356.17a10,10,0,0,1,3.65,1.09,8.8,8.8,0,0,1,3,2.56,9.47,9.47,0,0,1,1.65,4.43,11.71,11.71,0,0,1-.1,4.29,10.68,10.68,0,0,1-1.41,3.38,10.66,10.66,0,0,1-2.29,2.53,16,16,0,0,1-2.79,1.78,15.61,15.61,0,0,1-2.88,1.13,20.43,20.43,0,0,1-2.54.57,22.69,22.69,0,0,1-3.16.22,16.43,16.43,0,0,1-2.44-.16,22.71,22.71,0,0,0,1.5,4.82,14.24,14.24,0,0,0,2.52,3.9,9.85,9.85,0,0,0,3.5,2.44,8.68,8.68,0,0,0,4.5.46,7.27,7.27,0,0,0,2.91-1,5.85,5.85,0,0,0,1.85-1.89,6.68,6.68,0,0,0,.88-2.48,9.45,9.45,0,0,0,0-2.81A13.37,13.37,0,0,0,3,379.66,7.94,7.94,0,0,0,2.31,378a9.38,9.38,0,0,1-.46-.87,2.41,2.41,0,0,1-.23-.67c-.06-.44.1-.69.49-.74a1.26,1.26,0,0,1,.75.19A3,3,0,0,1,3.76,376.71Zm-18.53-.86a14.49,14.49,0,0,0,2,.17,19,19,0,0,0,2.75-.21,8.6,8.6,0,0,0,3.4-1.22,8.08,8.08,0,0,0,2.46-2.41,9.49,9.49,0,0,0,1.35-3.39,12.11,12.11,0,0,0,.07-4.18,11.16,11.16,0,0,0-.92-3.29,6.25,6.25,0,0,0-1.47-2A4.2,4.2,0,0,0-7,358.38a5.68,5.68,0,0,0-2-.07,5.93,5.93,0,0,0-2.58,1.14,7.56,7.56,0,0,0-2.29,3,16.73,16.73,0,0,0-1.31,5.31A33.61,33.61,0,0,0-14.77,375.85Z" transform="translate(99.52 -324.78)"/><path class="cls-1" d="M-91.17,409.72a8.76,8.76,0,0,1,2.68.57c1.11.37,2.42.83,3.95,1.38s3.23,1.11,5.12,1.69,4,1.1,6.18,1.55,4.48.81,6.9,1.1,4.71.5,6.85.67l5.67.43,3.29.22a5.74,5.74,0,0,1,1.27.31.75.75,0,0,1,.48.76.78.78,0,0,1-.51.82,3.06,3.06,0,0,1-1.12.2c-.83,0-2-.06-3.64-.17s-3.28-.17-5-.17a14.37,14.37,0,0,0-3.47.37A5.77,5.77,0,0,0-65,420.66a5.58,5.58,0,0,0-1.55,2.22,10.83,10.83,0,0,0-.68,3.47c-.07.79-.12,1.81-.14,3.07s0,2.66,0,4.2,0,3.19,0,4.93v17.39c0,1.73,0,3.2,0,4.4s0,2,.08,2.48a9.36,9.36,0,0,0,.34,2.37,3.41,3.41,0,0,0,.79,1.41,2.46,2.46,0,0,0,1.18.67,5.94,5.94,0,0,0,1.52.17c1,0,2.33,0,3.84-.14s3.11-.21,4.82-.36,3.42-.33,5.15-.54l4.82-.56c1.49-.17,2.79-.33,3.92-.48s1.92-.26,2.37-.34a6.3,6.3,0,0,0,3-1.3,5.87,5.87,0,0,0,1.67-2.31,10.75,10.75,0,0,0,.67-3.07c.1-1.15.14-2.34.14-3.58,0-1.69-.06-3.43-.19-5.21s-.3-3.49-.48-5.1-.39-3.09-.6-4.4-.36-2.31-.47-3a10.48,10.48,0,0,0-1-3.41,5.42,5.42,0,0,0-1.49-1.8,4,4,0,0,0-1.69-.74A10.44,10.44,0,0,0-40.6,431c-1.28,0-2.59,0-3.92.11s-2.38.12-3.13.12a2.8,2.8,0,0,1-1.72-.45,1.44,1.44,0,0,1-.59-1.19,1.81,1.81,0,0,1,.48-1.18,3.41,3.41,0,0,1,2.28-.68c1.13,0,2.4-.1,3.81-.19s2.89-.23,4.45-.4,3.15-.36,4.76-.59,3.21-.51,4.79-.85,3-.74,4.6-1.21,3.23-.92,4.79-1.35,3-.81,4.37-1.13a15,15,0,0,1,3.32-.48c.87,0,1.41.13,1.64.4a1.29,1.29,0,0,1,.34.84,1.11,1.11,0,0,1-.65,1.1,3.24,3.24,0,0,1-1.44.31c-.26,0-.62,0-1.07.06a12.57,12.57,0,0,0-1.41.2,13.11,13.11,0,0,0-1.47.36,4,4,0,0,0-1.24.62,7.72,7.72,0,0,0-1.66,2,10.84,10.84,0,0,0-1.15,3.81c-.19,1.35-.33,3.05-.43,5.1s-.18,4.2-.25,6.45-.14,4.51-.2,6.77-.1,4.26-.14,6c0,.9-.08,2.23-.14,4s-.1,3.76-.14,6-.09,4.75-.14,7.44-.11,5.41-.14,8.17-.07,5.52-.09,8.29,0,5.34,0,7.75v5.58c0,1.69,0,3.14.12,4.34a9.19,9.19,0,0,0,.48,3,6.71,6.71,0,0,0,1,1.86A4.31,4.31,0,0,0-19.32,513a10.23,10.23,0,0,0,1.21.59,14.27,14.27,0,0,0,2.65.68c.94.15,2,.35,3,.62a2,2,0,0,1,1,.42.92.92,0,0,1,.22.59,1.1,1.1,0,0,1-.06.31.72.72,0,0,1-.25.37,1.74,1.74,0,0,1-.65.28,5.09,5.09,0,0,1-1.24.11c-.45,0-1.25,0-2.39-.14s-2.44-.21-3.86-.34-2.9-.24-4.4-.33-2.84-.15-4-.15c-1.55,0-3.07.07-4.57.2s-2.93.28-4.28.45-2.63.32-3.84.45a30.26,30.26,0,0,1-3.21.2,5.14,5.14,0,0,1-3-.59,1.68,1.68,0,0,1-.68-1.27,1.07,1.07,0,0,1,.7-1.15,5.1,5.1,0,0,1,1.72-.26c2.15-.07,3.94-.18,5.39-.31a13,13,0,0,0,4.08-1,7.72,7.72,0,0,0,2.29-1.61,6.13,6.13,0,0,0,1.29-2,9.78,9.78,0,0,0,.57-2.25,19.21,19.21,0,0,0,.14-2.23c0-.56,0-1.58-.12-3s-.17-3.19-.31-5.16-.28-4.08-.45-6.31-.34-4.42-.53-6.54-.37-4.07-.54-5.84-.33-3.15-.48-4.17a11.75,11.75,0,0,0-.7-2.68,4,4,0,0,0-1-1.49,2.85,2.85,0,0,0-1.38-.65,10.31,10.31,0,0,0-1.74-.14c-.68,0-1.7.06-3.08.17s-2.91.25-4.62.42-3.49.37-5.35.59-3.61.46-5.25.68-3.09.45-4.36.68a15.41,15.41,0,0,0-2.65.62,4.41,4.41,0,0,0-1.7.9,3.7,3.7,0,0,0-.9,1.21,4.58,4.58,0,0,0-.36,1.35c-.06.48-.11.93-.14,1.39,0,1.09,0,2.57,0,4.45s0,4,.06,6.23,0,4.66.08,7.16.07,4.91.09,7.24,0,4.48.06,6.45,0,3.58,0,4.82a22.36,22.36,0,0,0,.34,4.29,9.36,9.36,0,0,0,.9,2.62,5.16,5.16,0,0,0,1.36,1.58,15.86,15.86,0,0,0,1.69,1.1l1.8.93a1.27,1.27,0,0,1,.85,1.15.63.63,0,0,1-.37.62,2.08,2.08,0,0,1-.87.17,9.39,9.39,0,0,1-2.46-.34c-.84-.22-1.83-.46-3-.7s-2.48-.48-4-.71a40.9,40.9,0,0,0-5.61-.33,45.93,45.93,0,0,0-6.23.39q-2.85.39-5.1.87c-1.51.32-2.8.61-3.89.88a12,12,0,0,1-2.65.39c-1.39,0-2.09-.49-2.09-1.46a1.59,1.59,0,0,1,.48-1.3,4.3,4.3,0,0,1,1.27-.68c.22-.07.6-.16,1.13-.28s1.15-.23,1.88-.36l2.4-.48c.86-.19,1.75-.4,2.65-.62a7.71,7.71,0,0,0,2.82-1.24A5.16,5.16,0,0,0-82,517.64a6.09,6.09,0,0,0,.59-2.11c.08-.76.14-1.51.17-2.26q0-.33.06-2.28c0-1.3.09-2.93.17-4.91s.15-4.22.22-6.76.15-5.17.23-7.89.13-5.45.17-8.17.07-5.31.11-7.76q0-.84,0-2.79t0-4.65q0-2.7,0-6c0-2.21,0-4.53,0-6.93,0-3.19,0-6.45,0-9.75s-.06-6.4-.12-9.28-.13-5.4-.22-7.58-.22-3.74-.37-4.68a18.56,18.56,0,0,0-.62-2.9,8.7,8.7,0,0,0-1.07-2.28,9.78,9.78,0,0,0-1.61-1.86,14.53,14.53,0,0,0-2.22-1.64q-1.25-.74-2.37-1.29l-2-1a6.11,6.11,0,0,1-1.38-.93,1.42,1.42,0,0,1-.51-1,1.05,1.05,0,0,1,.34-.82A1.78,1.78,0,0,1-91.17,409.72Z" transform="translate(99.52 -324.78)"/><path class="cls-1" d="M7.08,470.21a9.86,9.86,0,0,1-3.91-.79A8.69,8.69,0,0,1,0,467.05a11.72,11.72,0,0,1-2.14-3.95,17.51,17.51,0,0,1-.79-5.58,24.1,24.1,0,0,1,1-6.85,17.28,17.28,0,0,1,3.07-6,15.05,15.05,0,0,1,5.33-4.2,17.7,17.7,0,0,1,7.8-1.58,20.64,20.64,0,0,1,6.68,1,17.84,17.84,0,0,1,5.1,2.65,17.15,17.15,0,0,1,3.75,3.86A26.59,26.59,0,0,1,32.39,451a36.35,36.35,0,0,1,1.78,4.85c.47,1.63.87,3.18,1.21,4.65.19.83.42,2,.71,3.52s.59,3.28.93,5.27.69,4.13,1.07,6.4.75,4.58,1.12,6.91.75,4.59,1.1,6.79l1,6c.3,1.82.55,3.38.76,4.68s.37,2.19.48,2.68c.23,1.16.48,2.35.76,3.55a19.65,19.65,0,0,0,1.07,3.3A7.84,7.84,0,0,0,46,512.09a3.29,3.29,0,0,0,2.42,1,2.61,2.61,0,0,0,1.47-.4,2.92,2.92,0,0,0,1-1.07,5.46,5.46,0,0,0,.53-1.52,9.11,9.11,0,0,0,.17-1.75c0-.71,0-1.44-.06-2.17s0-1.36,0-1.89a4.27,4.27,0,0,1,.22-1.46.87.87,0,0,1,.9-.62,1.09,1.09,0,0,1,1,.7,6.58,6.58,0,0,1,.56,1.64,11.89,11.89,0,0,1,.26,1.86c0,.62,0,1.08,0,1.38a34.08,34.08,0,0,1-.33,4.45A17,17,0,0,1,52.69,517a8.62,8.62,0,0,1-3.39,3.89,9.81,9.81,0,0,1-5.46,1.52,12.43,12.43,0,0,1-4.65-.78,12,12,0,0,1-3.33-2,13.28,13.28,0,0,1-2.31-2.53,18.62,18.62,0,0,1-1.49-2.54,27.14,27.14,0,0,1-2.4-6.68c-.54-2.43-1-4.74-1.32-7a30.85,30.85,0,0,1-2.57,3.49,24.58,24.58,0,0,1-4.26,4,25.52,25.52,0,0,1-5.86,3.27,19.28,19.28,0,0,1-7.38,1.36,21,21,0,0,1-7.7-1.27,14.2,14.2,0,0,1-5.21-3.44,13.66,13.66,0,0,1-3-5.07,19.6,19.6,0,0,1-1-6.18,20.52,20.52,0,0,1,1.3-7A17,17,0,0,1-3,483.62a22.32,22.32,0,0,1,7.72-4.68,33,33,0,0,1,11.64-1.8c1.05,0,2.07.05,3.07.14s1.9.2,2.71.31,1.5.23,2.08.34,1,.19,1.27.22c-.22-3.23-.51-6.46-.84-9.69-.16-1.35-.31-2.78-.48-4.29s-.35-3-.54-4.53-.39-3-.62-4.48-.47-2.84-.73-4.12a13.16,13.16,0,0,0-3.53-6.91A9.17,9.17,0,0,0,12,441.57a8.87,8.87,0,0,0-3.86.79,9.18,9.18,0,0,0-2.82,2,8.09,8.09,0,0,0-1.71,2.79,8.85,8.85,0,0,0-.57,3.07A4.57,4.57,0,0,0,3.87,453a8.76,8.76,0,0,0,2,1.94,26.23,26.23,0,0,0,2.5,1.61,15.35,15.35,0,0,1,2.51,1.74,9,9,0,0,1,1.95,2.37,7,7,0,0,1,.79,3.47,5.6,5.6,0,0,1-1.89,4.42A6.71,6.71,0,0,1,7.08,470.21Zm18.83,11.44a11.25,11.25,0,0,0-1.38-.42q-1-.25-2.34-.51c-.9-.17-1.87-.31-2.9-.42a26.69,26.69,0,0,0-3.07-.17,17.75,17.75,0,0,0-5.56.84,12.4,12.4,0,0,0-4.42,2.51,11.59,11.59,0,0,0-2.93,4.17,14.54,14.54,0,0,0-1.07,5.78,10.82,10.82,0,0,0,1,4.93,8.43,8.43,0,0,0,2.54,3.07A9.39,9.39,0,0,0,9.2,503a15.9,15.9,0,0,0,3.69.45,16.56,16.56,0,0,0,5.47-.9,24.13,24.13,0,0,0,4.56-2.08,20.6,20.6,0,0,0,3.22-2.31,14.13,14.13,0,0,0,1.52-1.53c-.26-2.51-.51-4.81-.73-6.87-.12-.91-.22-1.79-.31-2.65s-.19-1.67-.29-2.43-.17-1.39-.25-1.91S26,481.87,25.91,481.65Z" transform="translate(99.52 -324.78)"/><path class="cls-1" d="M67.68,438.24q.45,0,.9,1.44c.3,1,.6,2.21.91,3.75s.6,3.32.9,5.33.6,4.05.9,6.11l2,14.21a34.12,34.12,0,0,1,1-4.29,37.19,37.19,0,0,1,1.89-5,34.47,34.47,0,0,1,2.88-5.08A24.1,24.1,0,0,1,83,450.25a18.87,18.87,0,0,1,5-3.18,15.46,15.46,0,0,1,6.23-1.22,15.75,15.75,0,0,1,7.33,1.61,14.29,14.29,0,0,1,5.13,4.45,19.64,19.64,0,0,1,3,6.8,36.42,36.42,0,0,1,.95,8.62,77.88,77.88,0,0,1-.47,8.48q-.48,4.26-1,8.38c-.36,2.74-.69,5.39-1,7.94a58,58,0,0,0-.48,7.16,15.16,15.16,0,0,0,.34,3.44,10.45,10.45,0,0,0,1,2.71,8.25,8.25,0,0,0,2,2.05c.76.59,1.5,1.13,2.19,1.64a15.23,15.23,0,0,1,1.81,1.52,2.29,2.29,0,0,1,.76,1.61,1.41,1.41,0,0,1-.28.87,1.13,1.13,0,0,1-1,.37,4.34,4.34,0,0,1-2.23-.76c-.81-.51-1.8-1.15-3-1.92s-2.6-1.6-4.25-2.48a36.68,36.68,0,0,0-6-2.45,40,40,0,0,0-5.33-1.41,46.33,46.33,0,0,0-6.23-.68c-1.32-.11-2-.49-2-1.13s.43-1.07,1.29-1.07h2.2c.94,0,1.9,0,2.88-.11a6.41,6.41,0,0,0,3.72-1.38,8,8,0,0,0,2.2-4.48c.15-.87.3-2,.45-3.3s.28-2.76.39-4.28.21-3.08.28-4.65.12-3.08.12-4.51c0-1.28,0-2.76-.06-4.43s-.16-3.41-.37-5.21a38.66,38.66,0,0,0-1-5.3,16.52,16.52,0,0,0-1.88-4.62,10.29,10.29,0,0,0-3.16-3.3,8.86,8.86,0,0,0-9-.09,12,12,0,0,0-3.47,3.3,21.08,21.08,0,0,0-2.59,5,34.39,34.39,0,0,0-1.64,6.31,59.88,59.88,0,0,0-.81,7.19c-.13,2.46-.2,4.92-.2,7.36,0,2.06.08,4.05.23,5.94s.35,3.65.62,5.25a33.94,33.94,0,0,0,1,4.25,10.8,10.8,0,0,0,1.3,2.93,7.81,7.81,0,0,0,2.31,2.2,11.46,11.46,0,0,0,2.09,1,9.21,9.21,0,0,1,1.6.59.77.77,0,0,1,.48.7c0,.23-.18.44-.53.62a4,4,0,0,1-1.78.29,19,19,0,0,1-2.59-.2l-2.93-.42c-1-.15-2.07-.3-3.16-.43a27.07,27.07,0,0,0-3.21-.19c-1,0-2.13,0-3.22.11l-3.12.22c-1,.08-1.91.15-2.74.23s-1.48.11-2,.11c-1.47,0-2.2-.47-2.2-1.41a1.16,1.16,0,0,1,.37-.87,2.21,2.21,0,0,1,1.32-.48l1.41-.11c.41,0,.84-.07,1.27-.09s.88,0,1.35-.08l1.67-.17a3.29,3.29,0,0,0,2.45-1.33,5.35,5.35,0,0,0,.65-2.84,64.43,64.43,0,0,0-.54-7.56q-.54-4.44-1.44-9.8t-2.17-11.36q-1.26-6-2.68-12.26a17.6,17.6,0,0,0-1.55-4.79,2.71,2.71,0,0,0-2.5-1.58,5.26,5.26,0,0,0-1.75.31c-.6.2-1.19.43-1.78.67s-1.13.47-1.66.68a4,4,0,0,1-1.47.31c-.71,0-1.07-.3-1.07-.9a1.07,1.07,0,0,1,.6-1q.59-.32,1.26-.6a33.24,33.24,0,0,0,3.41-1.58,27.92,27.92,0,0,0,7.7-6.08q1.63-1.86,2.82-3.44c.79-1.05,1.43-1.93,1.91-2.62S67.42,438.24,67.68,438.24Z" transform="translate(99.52 -324.78)"/><path class="cls-1" d="M171.91,442.42a14.58,14.58,0,0,1,5.18.87,11.69,11.69,0,0,1,3.95,2.4,10.3,10.3,0,0,1,2.51,3.55,10.89,10.89,0,0,1,.87,4.34q0,4.56-2.17,7.07a7.32,7.32,0,0,1-5.83,2.51,8.51,8.51,0,0,1-2.82-.45,6.18,6.18,0,0,1-2.25-1.35,6.79,6.79,0,0,1-1.53-2.2,7.4,7.4,0,0,1-.56-2.93,10.13,10.13,0,0,1,.48-3.24,9,9,0,0,0,.48-2.85,2.92,2.92,0,0,0-1.13-2.65,4.64,4.64,0,0,0-2.59-.73,6.93,6.93,0,0,0-3.86,1.29,10.25,10.25,0,0,0-3.19,3.44,14.22,14.22,0,0,0-.87,2,5.54,5.54,0,0,0-.37,1.83,1.51,1.51,0,0,0,.51,1,15.43,15.43,0,0,0,1.32,1.21l1.86,1.55a20.33,20.33,0,0,1,5.33,7,15.85,15.85,0,0,1,1.47,7.05,27.06,27.06,0,0,1-1,7.86,19.24,19.24,0,0,1-2.79,5.81,16.61,16.61,0,0,1-4.14,4.06,21.76,21.76,0,0,1-5.1,2.56,29.07,29.07,0,0,1-5.7,1.36,44.48,44.48,0,0,1-5.83.39h-2.2a13.82,13.82,0,0,0-5.95,2.31,5.25,5.25,0,0,0-2.28,4.4,4.1,4.1,0,0,0,1.13,2.93,8.94,8.94,0,0,0,3,2,20.9,20.9,0,0,0,4.37,1.3q2.49.48,5.16.84c1.78.25,3.57.48,5.35.71s3.45.49,5,.79a54.22,54.22,0,0,1,7.53,2.08,23.2,23.2,0,0,1,6.43,3.47,16.3,16.3,0,0,1,4.48,5.44,17.23,17.23,0,0,1,1.69,8,18.89,18.89,0,0,1-1.24,6.85,21.54,21.54,0,0,1-3.44,5.86,28.43,28.43,0,0,1-5.19,4.87,36.08,36.08,0,0,1-6.42,3.78,44.39,44.39,0,0,1-9.87,3.16,57.1,57.1,0,0,1-11.16,1.07,41.73,41.73,0,0,1-10.15-1.18,25,25,0,0,1-8.25-3.64,17.28,17.28,0,0,1-7.59-14.91,19.64,19.64,0,0,1,1.36-7.44,23.74,23.74,0,0,1,3.46-6,26.36,26.36,0,0,1,4.74-4.59,44.67,44.67,0,0,1,5.13-3.38,47.75,47.75,0,0,1,4.65-2.32q2.14-.9,3.33-1.35a24.58,24.58,0,0,1-4-.79,14.68,14.68,0,0,1-3.61-1.52,8.2,8.2,0,0,1-2.62-2.45,6.28,6.28,0,0,1-1-3.58,5.9,5.9,0,0,1,2.39-4.71,17.25,17.25,0,0,1,6.74-3,24.06,24.06,0,0,1-6-2.46,18.59,18.59,0,0,1-4.79-4,17.74,17.74,0,0,1-3.18-5.58,23.41,23.41,0,0,1,.62-16.23,19.66,19.66,0,0,1,4.82-6.68,20.77,20.77,0,0,1,7.16-4.18,26.84,26.84,0,0,1,8.85-1.43,28.12,28.12,0,0,1,2.87.14c1,.09,1.9.2,2.76.34s1.67.24,2.4.33a13.65,13.65,0,0,0,1.78.15,6.05,6.05,0,0,0,2.33-.4,3.94,3.94,0,0,0,1.72-1.69c.75-1.2,1.58-2.41,2.48-3.61a18.27,18.27,0,0,1,3.16-3.24,14.66,14.66,0,0,1,4.2-2.31A16.45,16.45,0,0,1,171.91,442.42Zm-43.07,89.23a24,24,0,0,0,1.21,7.69,18.28,18.28,0,0,0,3.58,6.26,17.13,17.13,0,0,0,5.81,4.23,19.05,19.05,0,0,0,7.89,1.55,21.68,21.68,0,0,0,8.74-1.61,17.39,17.39,0,0,0,6-4.23,16.71,16.71,0,0,0,3.5-6,22.4,22.4,0,0,0,1.12-7.07,24,24,0,0,0-.9-6.68,17.31,17.31,0,0,0-7.55-10.09,24.26,24.26,0,0,0-7-3,42.36,42.36,0,0,0-5.08-1.1c-1.61-.25-3.08-.42-4.39-.54a34.85,34.85,0,0,0-4.26,3.08,26.45,26.45,0,0,0-4.23,4.45,24.22,24.22,0,0,0-3.21,5.83A19.94,19.94,0,0,0,128.84,531.65ZM146.54,457a9.78,9.78,0,0,0-8,4.25,19,19,0,0,0-2.71,6,33.41,33.41,0,0,0-1,9,25.84,25.84,0,0,0,.93,7.42,16.17,16.17,0,0,0,2.43,5.07,9.46,9.46,0,0,0,3.35,2.93,8.14,8.14,0,0,0,3.66.93,10.35,10.35,0,0,0,3.61-.76,9.45,9.45,0,0,0,3.83-2.9,18.06,18.06,0,0,0,3.08-5.92,31.65,31.65,0,0,0,1.27-9.81c0-5.33-.94-9.36-2.8-12.06A8.72,8.72,0,0,0,146.54,457Z" transform="translate(99.52 -324.78)"/><path class="cls-1" d="M227.55,481a17.09,17.09,0,0,1,2.08,7.95,19,19,0,0,1-1.35,7.36,14.74,14.74,0,0,1-3.89,5.47,17.5,17.5,0,0,1-6.12,3.41,25.72,25.72,0,0,1-8,1.18,28.72,28.72,0,0,1-11.47-2.17,23.65,23.65,0,0,1-8.48-6.06,26.6,26.6,0,0,1-5.25-9.27,37.08,37.08,0,0,1-1.8-11.81,41.42,41.42,0,0,1,1.24-10.54,34.29,34.29,0,0,1,3.38-8.46,29.87,29.87,0,0,1,5-6.48,29.24,29.24,0,0,1,6-4.57,27.27,27.27,0,0,1,6.42-2.68,24.57,24.57,0,0,1,6.32-.87,25.77,25.77,0,0,1,6.2.79,17.25,17.25,0,0,1,5.89,2.7A14.9,14.9,0,0,1,228,452a16.15,16.15,0,0,1,1.72,7.86,19.72,19.72,0,0,1-1.21,7.22,18,18,0,0,1-3.18,5.35,17.81,17.81,0,0,1-4.48,3.72,27.32,27.32,0,0,1-5.13,2.34,28,28,0,0,1-5.13,1.22,34.55,34.55,0,0,1-4.43.33,36.53,36.53,0,0,1-5.38-.39,27.82,27.82,0,0,1-4.09-.85,38.31,38.31,0,0,0,1.38,8.49,24.09,24.09,0,0,0,3.3,7.19,16.61,16.61,0,0,0,5.33,5,14.53,14.53,0,0,0,7.47,1.86,12,12,0,0,0,5.15-1,10.13,10.13,0,0,0,3.58-2.73,11.31,11.31,0,0,0,2.09-4,16.39,16.39,0,0,0,.68-4.73,25,25,0,0,0-.2-3.05,13.65,13.65,0,0,0-.71-3c-.22-.57-.41-1.09-.56-1.58A4.28,4.28,0,0,1,224,480c0-.75.34-1.12,1-1.12a2.24,2.24,0,0,1,1.21.5A5.15,5.15,0,0,1,227.55,481Zm-31.06-5.92a24.48,24.48,0,0,0,3.32.76,28.87,28.87,0,0,0,4.68.31,14.49,14.49,0,0,0,6-1.24,13.83,13.83,0,0,0,4.74-3.46,16.35,16.35,0,0,0,3.1-5.39,20.84,20.84,0,0,0,1.12-7,18.83,18.83,0,0,0-.76-5.78,10.39,10.39,0,0,0-2-3.75,7,7,0,0,0-2.84-2,9.61,9.61,0,0,0-3.3-.59,10,10,0,0,0-4.62,1.3,12.78,12.78,0,0,0-4.6,4.5,28.77,28.77,0,0,0-3.49,8.66A57.05,57.05,0,0,0,196.49,475.05Z" transform="translate(99.52 -324.78)"/><path class="cls-1" d="M283.07,396.42c.3,0,.5.27.59.82a14.11,14.11,0,0,1,.14,2.22q0,4.4-.08,9.5t-.2,10.65c-.08,3.71-.16,7.5-.25,11.39s-.2,7.77-.31,11.64q-.18,8.17-.34,15.95t-.28,14.29c-.08,4.34-.14,8.13-.2,11.36s-.09,5.64-.09,7.22a17.72,17.72,0,0,0,.46,4.45,9.33,9.33,0,0,0,1.18,2.85,5.21,5.21,0,0,0,1.72,1.66,12.86,12.86,0,0,0,2.06,1,14.07,14.07,0,0,0,2.73.7c.88.13,1.66.24,2.34.31a7.07,7.07,0,0,1,1.61.34.84.84,0,0,1,.59.85c0,.56-.41.92-1.21,1.07a14.14,14.14,0,0,1-2.57.22c-1.28,0-3-.1-5.3-.31s-4.85-.31-7.78-.31a41.06,41.06,0,0,0-4.28.23l-4.54.48c-1.6.17-3.34.33-5.24.48s-4.05.22-6.45.22a35.24,35.24,0,0,1-9.53-1.24,21.23,21.23,0,0,1-7.78-3.92,18.26,18.26,0,0,1-5.24-6.93,24.9,24.9,0,0,1-1.92-10.29,22.57,22.57,0,0,1,1.94-9.55,20.73,20.73,0,0,1,5.3-7.08,23.58,23.58,0,0,1,7.84-4.39,29.19,29.19,0,0,1,9.5-1.52,38.54,38.54,0,0,1,8.76.84,45.55,45.55,0,0,1,5.67,1.69c0-3.6,0-7.28-.11-11s-.17-7.38-.26-10.93-.19-6.91-.28-10.07-.19-5.93-.28-8.34-.18-4.36-.26-5.86-.11-2.37-.11-2.59c0-.57-.08-1.12-.14-1.67a8.23,8.23,0,0,0-.28-1.46,2.31,2.31,0,0,0-.59-1,1.54,1.54,0,0,0-1.07-.36,6.06,6.06,0,0,0-1.92.36c-.71.25-1.44.51-2.17.79s-1.46.55-2.17.79a5.88,5.88,0,0,1-1.92.37,2.39,2.39,0,0,1-1-.2.8.8,0,0,1-.45-.82,1.46,1.46,0,0,1,.54-1.18,6.4,6.4,0,0,1,1.55-.9,15,15,0,0,1,1.69-.65q1-.31,2.34-.9c.92-.4,2-.9,3.3-1.52s2.8-1.46,4.56-2.51,3.19-2,4.37-2.82,2.16-1.62,2.93-2.26,1.37-1.14,1.81-1.52A1.87,1.87,0,0,1,283.07,396.42Zm-10.71,93.29c0-1.65,0-3.45,0-5.38s0-3.91-.06-5.92,0-4-.11-6-.1-3.87-.14-5.63a18.81,18.81,0,0,0-4.28-1.5,25.11,25.11,0,0,0-5.64-.59,15.94,15.94,0,0,0-6.65,1.3,13.32,13.32,0,0,0-4.85,3.66,16.13,16.13,0,0,0-3,5.7,25.6,25.6,0,0,0-1,7.44,30.71,30.71,0,0,0,1,8,17.83,17.83,0,0,0,2.84,6.12,12.72,12.72,0,0,0,4.77,3.92,15.3,15.3,0,0,0,6.7,1.38,12.12,12.12,0,0,0,5.39-1.05,8.35,8.35,0,0,0,3.24-2.62,8.87,8.87,0,0,0,1.49-3.77A30.17,30.17,0,0,0,272.36,489.71Z" transform="translate(99.52 -324.78)"/><path class="cls-1" d="M249.46,515.82a3.2,3.2,0,0,1,2.16.76,3.76,3.76,0,0,1,.88,2.91,25.36,25.36,0,0,1-.4,4c-.26,1.63-.56,3.28-.9,4.93s-.67,3.17-1,4.54-.54,2.32-.65,2.85c-.08.33-.22.92-.43,1.74s-.47,1.75-.78,2.77-.66,2.06-1,3.15-.72,2.09-1.1,3a16,16,0,0,1-1.1,2.23c-.35.58-.68.87-1,.87a.56.56,0,0,1-.48-.28,2.39,2.39,0,0,1-.2-1.24c0-.64.06-1.53.17-2.68s.22-2.42.34-3.83.22-2.88.34-4.4.16-3,.16-4.31a14.8,14.8,0,0,0-.64-4.88,5.93,5.93,0,0,0-1.86-2.7,6.25,6.25,0,0,0-2.94-1.19,26,26,0,0,0-3.8-.25,55.49,55.49,0,0,0-6.12.37,43.51,43.51,0,0,0-6.34,1.15,4.64,4.64,0,0,0-3.24,2.14,8.82,8.82,0,0,0-.76,4c0,.26,0,1.32.06,3.16s.09,4.21.16,7.1.16,6.21.26,10,.2,7.62.31,11.64c1-.08,2.12-.18,3.21-.31a9.4,9.4,0,0,0,2.76-.71,6.17,6.17,0,0,0,2-1.32,7.72,7.72,0,0,0,1.33-1.75,11.14,11.14,0,0,0,.82-1.89q.3-1,.48-1.74.9-3.62,1.41-5.11c.33-1,.79-1.49,1.35-1.49.71,0,1.07.7,1.07,2.09a15.82,15.82,0,0,1-.23,2.42c-.15.94-.33,2-.53,3.18s-.39,2.49-.54,3.92a43.89,43.89,0,0,0-.22,4.57c0,1.46,0,3,.08,4.51s.12,3,.2,4.28.14,2.49.2,3.53.08,1.77.08,2.22a8.39,8.39,0,0,1-.37,2.88c-.24.64-.57,1-1,1s-.83-.34-1.13-1a12.44,12.44,0,0,1-.51-4c0-1.46-.12-2.81-.25-4a12.87,12.87,0,0,0-.73-3.21,6.05,6.05,0,0,0-4-3.75,11.14,11.14,0,0,0-2.45-.37c-1,0-2-.08-3-.08q.17,6,.37,12t.36,11.07q.18,5.1.34,8.94c.12,2.55.21,4.41.28,5.58a20,20,0,0,0,.68,4.37,7.68,7.68,0,0,0,1.35,2.67,5.49,5.49,0,0,0,2,1.53,18.93,18.93,0,0,0,2.59.9,9.33,9.33,0,0,0,1.13.28,6.62,6.62,0,0,1,1.21.34,4.18,4.18,0,0,1,1,.53,1.1,1.1,0,0,1,.08,1.61,1.93,1.93,0,0,1-.79.42,4.18,4.18,0,0,1-1,.17l-1.05,0a20,20,0,0,1-2.36-.2c-1-.13-2.18-.26-3.5-.39s-2.72-.27-4.23-.4-3-.19-4.56-.19-2.73,0-4,.14-2.59.2-3.94.34-2.76.24-4.23.33-3.06.14-4.79.14A14.51,14.51,0,0,1,194,617a5.4,5.4,0,0,1-1.46-.42,1.4,1.4,0,0,1-.68-.59,1.55,1.55,0,0,1-.17-.68c0-.86.7-1.41,2.09-1.63.34,0,.88-.09,1.63-.14l2.51-.2c.92-.07,1.87-.18,2.85-.31a23.28,23.28,0,0,0,2.59-.48,12.92,12.92,0,0,0,2.37-.93,6.65,6.65,0,0,0,2.08-1.63,8.12,8.12,0,0,0,1.47-2.77,14.39,14.39,0,0,0,.56-4.36q0-4.51-.36-10.38t-1-12.2q-.6-6.35-1.35-12.74t-1.58-12.12c-.55-3.81-1.08-7.23-1.61-10.26s-1-5.42-1.41-7.19a9.89,9.89,0,0,0-1.46-3.46,7.93,7.93,0,0,0-2.17-2.09,9.76,9.76,0,0,0-2.65-1.13c-1-.24-2-.44-3-.59a10.47,10.47,0,0,1-2.62-.73,1.52,1.52,0,0,1-1-1.47,1.27,1.27,0,0,1,.76-1.29,4.43,4.43,0,0,1,1.83-.34q4.8,0,12-.68a128,128,0,0,0,16.35-2.76q7-1.57,11.81-3c3.17-.94,5.83-1.74,8-2.42s3.9-1.21,5.27-1.61A13.66,13.66,0,0,1,249.46,515.82Z" transform="translate(99.52 -324.78)"/><path class="cls-1" d="M252.61,547.23a31.5,31.5,0,0,1,2-11.41,24.76,24.76,0,0,1,5.59-8.71,24.38,24.38,0,0,1,8.7-5.56,31.66,31.66,0,0,1,11.31-1.94,27.68,27.68,0,0,1,10.28,1.86,23.48,23.48,0,0,1,8.15,5.33,24.45,24.45,0,0,1,5.38,8.4,29.9,29.9,0,0,1,1.95,11.07,29.5,29.5,0,0,1-2.4,12.46,25.36,25.36,0,0,1-6.14,8.51,24.1,24.1,0,0,1-8.37,4.88,28.59,28.59,0,0,1-9.08,1.55,30,30,0,0,1-10.29-1.78,26.24,26.24,0,0,1-8.71-5.15,25.5,25.5,0,0,1-6.06-8.32A26.39,26.39,0,0,1,252.61,547.23Zm26.78-25.42a9.53,9.53,0,0,0-5.56,1.61,12.54,12.54,0,0,0-3.86,4.34,21.47,21.47,0,0,0-2.22,6.36,40.19,40.19,0,0,0-.71,7.64,56.3,56.3,0,0,0,.4,6.71,46,46,0,0,0,1.21,6.51,37.37,37.37,0,0,0,2,5.86,20.15,20.15,0,0,0,2.9,4.77,13,13,0,0,0,3.86,3.18,10.13,10.13,0,0,0,4.82,1.16A10.28,10.28,0,0,0,288,568.4a11.7,11.7,0,0,0,3.75-4.06,18.49,18.49,0,0,0,2-5.64,34.06,34.06,0,0,0,.59-6.28,71.2,71.2,0,0,0-1.13-13.53,34.67,34.67,0,0,0-3.15-9.56,15.49,15.49,0,0,0-4.77-5.66A10.34,10.34,0,0,0,279.39,521.81Z" transform="translate(99.52 -324.78)"/><path class="cls-1" d="M303.4,517.52c.53,0,1.12,0,1.78.06s1.41.06,2.28.06c1.43,0,3.24,0,5.44-.14a52.48,52.48,0,0,0,8-1.1,74.79,74.79,0,0,0,7.32-1.84q3.17-1,5.44-1.88l3.84-1.5a7.58,7.58,0,0,1,2.56-.59,1.24,1.24,0,0,1,.9.25.88.88,0,0,1,.23.6,1,1,0,0,1-.71.9,8.61,8.61,0,0,1-1.49.45c-.71.22-1.44.48-2.17.76a7.26,7.26,0,0,0-2,1.16,5.47,5.47,0,0,0-1.47,1.86,6.33,6.33,0,0,0-.56,2.81,19.57,19.57,0,0,0,.68,5.11c.45,1.71.9,3.2,1.35,4.48.22.67.59,1.66,1.1,3s1,2.59,1.6,3.89,1.08,2.42,1.55,3.38.8,1.44,1,1.44.3-.22.68-.65.81-1,1.32-1.64,1.06-1.37,1.67-2.14,1.16-1.5,1.69-2.2l1.35-1.8c.37-.51.6-.82.67-.93l.79-1.44a3.41,3.41,0,0,0,.46-1.66,2.75,2.75,0,0,0-.46-1.5,3.25,3.25,0,0,0-1.74-1.15,12.06,12.06,0,0,0-2.17-.54c-.7-.09-1.31-.19-1.84-.31-1-.22-1.52-.71-1.52-1.46a1,1,0,0,1,.37-.9,1.36,1.36,0,0,1,.87-.29,13,13,0,0,1,2,.2l2.74.42,3.27.48a29.64,29.64,0,0,0,3.55.31c.94.08,1.79.12,2.56.12h2.17c1.81,0,3.26-.06,4.37-.17a28.18,28.18,0,0,1,3-.17,3,3,0,0,1,1.32.25.89.89,0,0,1,.54.87c0,1-1,1.53-2.88,1.64-1.31.08-2.48.17-3.49.28a17,17,0,0,0-2.76.51,14.9,14.9,0,0,0-3.78,1.8,18.79,18.79,0,0,0-4.28,4.12c-1.77,2.18-3.28,4.1-4.54,5.78s-2.17,3-2.74,3.91a7.57,7.57,0,0,0-.67,1.55,5.91,5.91,0,0,0-.23,1.67,7.55,7.55,0,0,0,.14,1.35c.1.49.2,1,.31,1.52.19.72.46,1.59.82,2.62s.75,2.14,1.18,3.3.89,2.34,1.36,3.52.91,2.28,1.32,3.27.77,1.87,1.07,2.62a14.32,14.32,0,0,0,.68,1.53,8.84,8.84,0,0,0,1.69,2.39,8.63,8.63,0,0,0,2.11,1.52,9.88,9.88,0,0,0,2.46.88c.86.19,1.74.35,2.65.5,2,.31,3.43.56,4.22.77s1.19.57,1.19,1.09-.43,1-1.27,1.22a16.36,16.36,0,0,1-3.58.31q-1,0-2.31-.06t-2.88-.06c-1.09,0-2.26,0-3.52.12a36.86,36.86,0,0,0-4,.45,24,24,0,0,0-4.32,1.1c-1.44.5-2.82,1-4.11,1.52s-2.46.95-3.5,1.32a7.68,7.68,0,0,1-2.51.57,1.8,1.8,0,0,1-1.54-.57,1.75,1.75,0,0,1-.43-1.07,1.68,1.68,0,0,1,.62-1.43,5,5,0,0,1,1.47-.77c.64-.18,1.4-.38,2.28-.59a24.21,24.21,0,0,0,2.54-.73,9.9,9.9,0,0,0,2.06-1,1.52,1.52,0,0,0,.84-1.27,7.87,7.87,0,0,0-.62-2.53q-.62-1.63-1.41-3.3c-.53-1.11-1-2.12-1.55-3s-.85-1.51-1-1.77a1.67,1.67,0,0,0-1.58-1,2.1,2.1,0,0,0-.76.17,3,3,0,0,0-.88.62c-.26.27-.65.74-1.18,1.41l-1.66,2.14c-.58.76-1.13,1.46-1.64,2.12l-1,1.38c-.07.11-.19.27-.34.48s-.3.43-.45.68a5.67,5.67,0,0,0-.36.67,1.25,1.25,0,0,0-.15.48c0,.19.12.32.34.4a6.13,6.13,0,0,0,.79.19,6.94,6.94,0,0,0,.9.12,5.76,5.76,0,0,1,.74.08,6.87,6.87,0,0,1,1.18.28.66.66,0,0,1,.45.68.71.71,0,0,1-.45.67,2.25,2.25,0,0,1-1.07.23c-.9,0-1.79,0-2.65-.11s-1.9-.12-3.1-.12a25.55,25.55,0,0,0-3.18.23c-1.19.15-2.36.31-3.53.48l-3.18.48a15.17,15.17,0,0,1-2.12.22,1.37,1.37,0,0,1-1-.31,1,1,0,0,1-.33-.76c0-.71.5-1.12,1.52-1.24a15.9,15.9,0,0,0,2-.28c.79-.15,1.62-.35,2.51-.59s1.73-.52,2.56-.82a9.5,9.5,0,0,0,2.14-1.07,28.52,28.52,0,0,0,2.85-2.23q1.44-1.26,2.76-2.67c.88-.94,1.72-1.9,2.51-2.88a34.2,34.2,0,0,0,2-2.76,19,19,0,0,0,1.35-2.4,4.49,4.49,0,0,0,.51-1.77,5.69,5.69,0,0,0-.08-1,5.39,5.39,0,0,0-.37-1c-.34-.79-.81-1.81-1.41-3.07s-1.27-2.64-2-4.15-1.5-3.06-2.31-4.68-1.58-3.15-2.31-4.62-1.42-2.81-2.06-4-1.17-2.19-1.58-2.9c-.34-.56-.74-1.17-1.21-1.8a21,21,0,0,0-1.61-1.92,22.51,22.51,0,0,0-1.94-1.83,13.81,13.81,0,0,0-2.17-1.5,11.39,11.39,0,0,0-4.06-1.35A32.08,32.08,0,0,0,304,520c-1.31,0-2-.41-2-1.24a1.31,1.31,0,0,1,.28-.82A1.3,1.3,0,0,1,303.4,517.52Z" transform="translate(99.52 -324.78)"/><path class="cls-2" d="M-59.93,324.79c.65-.09,1.07.54,1.27,1.89.07.48.15,1.11.25,1.87s.21,1.83.34,3.19.28,3.11.46,5.23.39,4.78.62,7.95l.65,9q.83-.12,1.44-.24l1.11-.2a4.2,4.2,0,0,1,1.94,0,1.06,1.06,0,0,1,.66.9,1.14,1.14,0,0,1-.36,1.07,2.81,2.81,0,0,1-1.24.59,12.07,12.07,0,0,1-1.33.26l-2,.28c.1,1.52.21,2.81.32,3.88s.21,2.05.3,3,.2,1.83.29,2.73.2,2,.31,3.19a14.32,14.32,0,0,1,1.31-3,12.35,12.35,0,0,1,2.14-2.79,13,13,0,0,1,3.06-2.19,12.79,12.79,0,0,1,4.06-1.25,15,15,0,0,1,6.24.28,11.25,11.25,0,0,1,4.75,2.7A14.42,14.42,0,0,1-30,368a27.34,27.34,0,0,1,1.81,6.82,47.9,47.9,0,0,1,.47,6.9c0,2.33-.07,4.58-.16,6.75s-.17,4.19-.25,6a27,27,0,0,0,.16,4.76,9,9,0,0,0,.86,2.82,6.6,6.6,0,0,0,1.9,2.2,9.69,9.69,0,0,0,1.4,1l1,.58c.26.15.45.28.59.38a.66.66,0,0,1,.25.45.51.51,0,0,1-.13.39,1,1,0,0,1-.62.25,5.33,5.33,0,0,1-2-.15c-.76-.18-1.59-.4-2.49-.65s-1.86-.49-2.86-.72a15.11,15.11,0,0,0-3.09-.4,34,34,0,0,0-4.25.14c-1.45.14-2.9.32-4.34.52-1.24.18-1.9,0-2-.58a.65.65,0,0,1,.33-.65,4.68,4.68,0,0,1,1-.48l1.42-.5a9.94,9.94,0,0,0,1.56-.72,12.68,12.68,0,0,0,1.45-1,6.21,6.21,0,0,0,1.22-1.28,7.41,7.41,0,0,0,.92-1.75,12.12,12.12,0,0,0,.58-2.34c.12-.91.22-2.09.32-3.54s.14-3.09.14-4.94-.06-3.85-.19-6-.36-4.39-.69-6.7a43.08,43.08,0,0,0-1.21-5.79,15,15,0,0,0-1.91-4.24,7,7,0,0,0-2.81-2.45,6.89,6.89,0,0,0-3.94-.44A7.51,7.51,0,0,0-48.92,364a8.78,8.78,0,0,0-2.26,2.29,11.18,11.18,0,0,0-1.39,2.89,20.07,20.07,0,0,0-.72,3,23.62,23.62,0,0,0-.27,2.71c0,.83,0,1.47,0,1.94,0,.72,0,1.58.06,2.6s.11,2.11.2,3.26.19,2.35.32,3.57.28,2.38.44,3.49c.08.57.15,1.09.22,1.57s.16,1,.27,1.44a13.9,13.9,0,0,0,4.31-1.54,9,9,0,0,0,2.53-2.13,5.72,5.72,0,0,0,1.14-2.36,6.31,6.31,0,0,0,.1-2.18,3.29,3.29,0,0,0-.74-1.78A14.81,14.81,0,0,0-46,381.47a12.86,12.86,0,0,1-1.24-1.31,3.62,3.62,0,0,1-.75-1.85,4.61,4.61,0,0,1,.07-1.83,3.94,3.94,0,0,1,.7-1.42,3.48,3.48,0,0,1,1.17-.95,4.85,4.85,0,0,1,1.44-.46,4,4,0,0,1,3.16.77,4.91,4.91,0,0,1,1.63,3.29,18.67,18.67,0,0,1,.15,2.35,15.35,15.35,0,0,1-.29,3,15.92,15.92,0,0,1-1,3.29,12.28,12.28,0,0,1-2.1,3.24,15,15,0,0,1-3.45,2.83,18.89,18.89,0,0,1-5.08,2.08,4.91,4.91,0,0,0,1,2.1,7.7,7.7,0,0,0,1.67,1.51,9.91,9.91,0,0,0,1.86,1,9.91,9.91,0,0,0,1.56.53c.72.19,1.32.33,1.82.41s.75.28.8.59a.63.63,0,0,1-.24.52,2.28,2.28,0,0,1-1.14.38,10.16,10.16,0,0,1-1.94.06l-2.33-.14c-.84,0-1.75-.07-2.72-.08a21.85,21.85,0,0,0-3.12.23,20.25,20.25,0,0,0-3.41.81c-1.16.38-2.26.77-3.29,1.17s-1.95.77-2.75,1.1a9.23,9.23,0,0,1-1.79.57c-.37.05-.57,0-.6-.25s0-.4.31-.61a9.16,9.16,0,0,1,1-.73c.43-.28.93-.59,1.51-.94a14,14,0,0,0,1.72-1.25,6.92,6.92,0,0,0,2.15-2.84,8.34,8.34,0,0,0,.64-3.37,19.31,19.31,0,0,1-7.53-1.8,15,15,0,0,1-5.09-4.05,18.83,18.83,0,0,1-3.13-5.91,43.59,43.59,0,0,1-1.7-7.43c-.18-1.26-.31-2.59-.38-4s-.14-2.73-.18-4-.08-2.49-.11-3.58a23.09,23.09,0,0,0-.2-2.64,3.72,3.72,0,0,0-.6-1.77,1.56,1.56,0,0,0-1.54-.4c-.64.09-1.27.22-1.91.37l-1.91.51-1.88.51a16.57,16.57,0,0,1-1.74.34,1.79,1.79,0,0,1-1.32-.14,1.07,1.07,0,0,1-.44-.74c-.09-.59.29-1,1.12-1.26q2.31-.66,4-1.26c1.13-.39,2.13-.79,3-1.18a21.12,21.12,0,0,0,2.34-1.22,20.31,20.31,0,0,0,2-1.4,11.84,11.84,0,0,0,2.68-2.76,29.36,29.36,0,0,0,1.78-2.86c.49-.89.9-1.65,1.25-2.26s.69-.95,1-1,.62.13.68.57a4.35,4.35,0,0,1-.08,1.49c-.12.59-.26,1.22-.42,1.9s-.28,1.38-.38,2.1a7.42,7.42,0,0,0,0,2.05,3,3,0,0,0,.55,1.41,1.8,1.8,0,0,0,1.38.62,11.74,11.74,0,0,0,2.25-.14c1-.13,2.19-.29,3.61-.5-.09-1.25-.19-2.51-.28-3.78s-.18-2.46-.27-3.57-.19-2.11-.28-3-.17-1.54-.24-2c-.12-.85-.26-1.66-.41-2.41a11.47,11.47,0,0,0-.61-2.07,6.71,6.71,0,0,0-1-1.62,3.47,3.47,0,0,0-1.45-1,4.58,4.58,0,0,0-2-.22c-.8.05-1.59.13-2.35.24s-1.4.21-2.17.34l-1.78.29a3.26,3.26,0,0,1-1.17,0,.58.58,0,0,1-.48-.55c0-.26.11-.46.43-.61a8.94,8.94,0,0,1,1.42-.45c.67-.18,1.33-.38,2-.59s1.33-.44,2-.72,1.37-.6,2.07-1a18.88,18.88,0,0,0,2.1-1.31,14.27,14.27,0,0,0,2.39-2.06c.65-.7,1.2-1.34,1.67-1.91s.86-1,1.18-1.42A1.66,1.66,0,0,1-59.93,324.79Zm-9.31,51.29q.42,2.88,1.08,5.67a23.25,23.25,0,0,0,1.83,5.1,12.63,12.63,0,0,0,3,3.89,8.76,8.76,0,0,0,4.51,2c-.07-1.28-.17-2.81-.29-4.6s-.26-3.68-.41-5.67-.31-4-.46-6-.31-4-.46-5.78-.29-3.44-.42-4.87-.21-2.52-.25-3.27l-.42-5.29c-1.12.09-2.18.21-3.19.34l-2.52.34a3.82,3.82,0,0,0-1.52.5,2.71,2.71,0,0,0-.86.86,3.22,3.22,0,0,0-.41,1,7.77,7.77,0,0,0-.13,1c0,.58-.07,1.46,0,2.61s.08,2.43.17,3.82.2,2.82.34,4.28S-69.42,374.83-69.24,376.08Z" transform="translate(99.52 -324.78)"/><path class="cls-2" d="M.37,372a8.5,8.5,0,0,1,1.13,1.91,9.07,9.07,0,0,1,.74,2.53,11,11,0,0,1-.17,4.38,8.65,8.65,0,0,1-1.8,3.5A10.06,10.06,0,0,1-3,386.78a15,15,0,0,1-4.57,1.36,17,17,0,0,1-6.85-.31A13.93,13.93,0,0,1-19.85,385a15.66,15.66,0,0,1-3.81-4.95,21.83,21.83,0,0,1-2-6.71,24.91,24.91,0,0,1-.16-6.23,19.93,19.93,0,0,1,1.27-5.19,17.44,17.44,0,0,1,2.34-4.18,17.43,17.43,0,0,1,3.09-3.15,15.87,15.87,0,0,1,3.51-2.09,14.41,14.41,0,0,1,3.6-1,15.33,15.33,0,0,1,3.66-.06,10.08,10.08,0,0,1,3.65,1.08,8.83,8.83,0,0,1,3,2.57,9.47,9.47,0,0,1,1.65,4.43,11.49,11.49,0,0,1-.1,4.29,10.52,10.52,0,0,1-1.41,3.37,10.31,10.31,0,0,1-2.29,2.54,16.33,16.33,0,0,1-2.78,1.78,17,17,0,0,1-2.88,1.13,18.71,18.71,0,0,1-2.55.56,20,20,0,0,1-3.16.22,15.46,15.46,0,0,1-2.44-.15,21.91,21.91,0,0,0,1.51,4.81A14.19,14.19,0,0,0-13.7,382a9.65,9.65,0,0,0,3.51,2.43,8.43,8.43,0,0,0,4.49.46,7,7,0,0,0,2.91-1A6,6,0,0,0-.94,382a6.51,6.51,0,0,0,.88-2.48,9.45,9.45,0,0,0,0-2.81,15.14,15.14,0,0,0-.36-1.75,8.9,8.9,0,0,0-.66-1.68,9.26,9.26,0,0,1-.46-.87,2.61,2.61,0,0,1-.23-.66c-.06-.44.1-.69.5-.74a1.24,1.24,0,0,1,.74.19A3,3,0,0,1,.37,372Zm-18.53-.86a14.59,14.59,0,0,0,2,.16,17.44,17.44,0,0,0,2.75-.2,8.61,8.61,0,0,0,3.4-1.23,8.05,8.05,0,0,0,2.46-2.4,9.49,9.49,0,0,0,1.35-3.39,11.88,11.88,0,0,0,.07-4.18,11,11,0,0,0-.92-3.3,6.16,6.16,0,0,0-1.47-2,4.2,4.2,0,0,0-1.82-.92,5.45,5.45,0,0,0-2-.07,5.87,5.87,0,0,0-2.57,1.13,7.55,7.55,0,0,0-2.3,3A17.15,17.15,0,0,0-18.5,363,33.62,33.62,0,0,0-18.16,371.11Z" transform="translate(99.52 -324.78)"/><path class="cls-2" d="M-94.56,405a9,9,0,0,1,2.68.56l3.95,1.38c1.52.55,3.23,1.11,5.13,1.7s4,1.09,6.17,1.55,4.48.81,6.9,1.09,4.71.51,6.85.68,4,.31,5.67.42l3.3.23a5.78,5.78,0,0,1,1.26.31.75.75,0,0,1,.48.76.8.8,0,0,1-.5.82,3.15,3.15,0,0,1-1.13.19c-.83,0-2-.05-3.64-.16s-3.28-.17-5-.17a14.92,14.92,0,0,0-3.47.36,5.89,5.89,0,0,0-2.48,1.22A5.68,5.68,0,0,0-70,418.14a10.83,10.83,0,0,0-.68,3.47c-.07.79-.12,1.81-.14,3.07s0,2.66,0,4.2,0,3.18,0,4.93V451.2c0,1.73,0,3.2,0,4.4s0,2,.08,2.48a9.36,9.36,0,0,0,.34,2.37,3.41,3.41,0,0,0,.79,1.41,2.54,2.54,0,0,0,1.18.67,5.94,5.94,0,0,0,1.52.17c1.06,0,2.33,0,3.84-.14s3.11-.22,4.82-.37,3.43-.32,5.16-.53l4.81-.57c1.49-.16,2.79-.32,3.92-.47s1.92-.27,2.37-.34a6.3,6.3,0,0,0,3-1.3,5.77,5.77,0,0,0,1.67-2.31,10.75,10.75,0,0,0,.67-3.07c.1-1.15.14-2.34.14-3.58,0-1.69-.06-3.43-.19-5.22s-.29-3.48-.48-5.1-.39-3.08-.59-4.39-.37-2.31-.48-3a10.48,10.48,0,0,0-1-3.41,5.58,5.58,0,0,0-1.49-1.81,4.11,4.11,0,0,0-1.69-.73,10.44,10.44,0,0,0-1.55-.14c-1.28,0-2.59,0-3.92.11s-2.38.12-3.13.12a2.75,2.75,0,0,1-1.72-.46,1.41,1.41,0,0,1-.59-1.18,1.79,1.79,0,0,1,.48-1.18,3.41,3.41,0,0,1,2.28-.68c1.13,0,2.4-.1,3.81-.2s2.89-.22,4.45-.39,3.15-.37,4.76-.59,3.22-.51,4.79-.85,3-.74,4.6-1.21,3.23-.92,4.79-1.35,3-.81,4.37-1.13a15,15,0,0,1,3.32-.48c.87,0,1.41.13,1.64.4a1.29,1.29,0,0,1,.34.84,1.12,1.12,0,0,1-.65,1.1,3.24,3.24,0,0,1-1.44.31c-.26,0-.62,0-1.07.06a12.47,12.47,0,0,0-1.41.19,14.86,14.86,0,0,0-1.46.37,3.79,3.79,0,0,0-1.24.62,7.55,7.55,0,0,0-1.67,2,11,11,0,0,0-1.15,3.81c-.19,1.35-.33,3.05-.43,5.1s-.17,4.2-.25,6.45-.14,4.51-.2,6.77-.1,4.26-.14,6c0,.9-.08,2.22-.14,4s-.1,3.76-.14,6-.08,4.76-.14,7.44-.1,5.42-.14,8.18-.07,5.52-.09,8.28,0,5.35,0,7.75V498c0,1.7,0,3.14.11,4.35a9.65,9.65,0,0,0,.48,2.95,6.64,6.64,0,0,0,1,1.87,4.47,4.47,0,0,0,1.22,1.07,10.23,10.23,0,0,0,1.21.59,14.27,14.27,0,0,0,2.65.67c.94.15,2,.36,3,.63a2,2,0,0,1,1,.42.85.85,0,0,1,.22.59,1.6,1.6,0,0,1,0,.31.87.87,0,0,1-.26.37,1.74,1.74,0,0,1-.65.28,5.65,5.65,0,0,1-1.24.11c-.45,0-1.25,0-2.39-.14s-2.44-.21-3.86-.34-2.9-.24-4.4-.34-2.84-.14-4-.14c-1.54,0-3.07.07-4.57.2s-2.93.28-4.28.45-2.63.32-3.84.45a30.26,30.26,0,0,1-3.21.2,5.14,5.14,0,0,1-3-.59,1.71,1.71,0,0,1-.68-1.27,1.09,1.09,0,0,1,.71-1.16,5,5,0,0,1,1.71-.25c2.15-.08,3.94-.18,5.39-.31a13,13,0,0,0,4.08-1,7.72,7.72,0,0,0,2.29-1.61,6.23,6.23,0,0,0,1.29-2,9.29,9.29,0,0,0,.57-2.25,19.34,19.34,0,0,0,.14-2.23c0-.56,0-1.58-.11-3s-.18-3.19-.31-5.16-.29-4.08-.45-6.32-.35-4.41-.54-6.54-.37-4.06-.54-5.83-.33-3.16-.48-4.17a11.75,11.75,0,0,0-.7-2.68,4.1,4.1,0,0,0-1-1.49,2.84,2.84,0,0,0-1.39-.65,10.22,10.22,0,0,0-1.74-.14c-.68,0-1.7.06-3.08.17s-2.91.25-4.62.42-3.49.37-5.35.59-3.61.45-5.24.68-3.1.45-4.37.68a15.41,15.41,0,0,0-2.65.62,4.29,4.29,0,0,0-1.69.9A3.51,3.51,0,0,0-70,469.1a4.81,4.81,0,0,0-.36,1.35c-.06.47-.11.93-.14,1.38,0,1.09,0,2.58,0,4.46s0,3.95.06,6.23,0,4.66.09,7.15.06,4.92.08,7.25,0,4.48.06,6.45,0,3.58,0,4.82a22.36,22.36,0,0,0,.34,4.29A9,9,0,0,0-69,515.1a5.12,5.12,0,0,0,1.35,1.58,14.39,14.39,0,0,0,1.69,1.09l1.8.94a1.27,1.27,0,0,1,.85,1.15.61.61,0,0,1-.37.62,2.08,2.08,0,0,1-.87.17,9.27,9.27,0,0,1-2.45-.34c-.85-.22-1.84-.46-3-.7s-2.47-.48-4-.71a40.73,40.73,0,0,0-5.61-.34,46,46,0,0,0-6.23.4q-2.85.39-5.1.87c-1.51.32-2.8.61-3.89.88a12,12,0,0,1-2.65.39c-1.39,0-2.09-.49-2.09-1.47a1.57,1.57,0,0,1,.48-1.29,4.3,4.3,0,0,1,1.27-.68c.23-.07.6-.17,1.13-.28s1.15-.24,1.89-.37,1.53-.29,2.39-.48,1.75-.39,2.65-.62a7.55,7.55,0,0,0,2.82-1.24,4.94,4.94,0,0,0,1.49-1.77,6.33,6.33,0,0,0,.6-2.11c.07-.76.13-1.51.16-2.26q0-.34.06-2.28c0-1.3.09-2.93.17-4.91s.15-4.22.23-6.76.15-5.17.22-7.89.13-5.45.17-8.18.07-5.3.11-7.75q0-.84,0-2.79t0-4.65q0-2.7,0-6t0-6.93q0-4.8,0-9.76t-.12-9.27c-.05-2.87-.13-5.4-.22-7.58a44.86,44.86,0,0,0-.37-4.68,17.26,17.26,0,0,0-.62-2.9A8.55,8.55,0,0,0-86,413.89a10.09,10.09,0,0,0-1.6-1.86,14.65,14.65,0,0,0-2.23-1.64c-.83-.49-1.62-.92-2.37-1.3l-2-1a6.11,6.11,0,0,1-1.38-.93,1.42,1.42,0,0,1-.51-1,1.05,1.05,0,0,1,.34-.82A1.74,1.74,0,0,1-94.56,405Z" transform="translate(99.52 -324.78)"/><path class="cls-2" d="M3.7,465.46a9.7,9.7,0,0,1-3.92-.79,8.71,8.71,0,0,1-3.19-2.36,11.72,11.72,0,0,1-2.14-3.95,17.59,17.59,0,0,1-.79-5.58,24.1,24.1,0,0,1,1-6.85,17.36,17.36,0,0,1,3.07-6,15.14,15.14,0,0,1,5.33-4.2,17.7,17.7,0,0,1,7.8-1.58,20.64,20.64,0,0,1,6.68,1,18,18,0,0,1,5.11,2.64,17.36,17.36,0,0,1,3.74,3.87A26.93,26.93,0,0,1,29,446.27a37.19,37.19,0,0,1,1.77,4.85c.47,1.63.87,3.18,1.21,4.65.19.82.43,2,.71,3.52s.59,3.28.93,5.27.69,4.13,1.07,6.4l1.13,6.91q.56,3.5,1.1,6.79t1,6c.3,1.82.56,3.38.76,4.68s.37,2.19.48,2.67c.23,1.17.48,2.35.76,3.56A20.16,20.16,0,0,0,41,504.89a8,8,0,0,0,1.61,2.46,3.28,3.28,0,0,0,2.42.95,2.69,2.69,0,0,0,1.47-.39,2.92,2.92,0,0,0,1-1.07,5.46,5.46,0,0,0,.53-1.52,8.45,8.45,0,0,0,.17-1.75c0-.71,0-1.44-.05-2.17s-.06-1.36-.06-1.89a4.37,4.37,0,0,1,.22-1.47.88.88,0,0,1,.91-.62,1.1,1.1,0,0,1,1,.71,6.5,6.5,0,0,1,.57,1.63,13.18,13.18,0,0,1,.25,1.86c0,.63.06,1.09.06,1.39a34.23,34.23,0,0,1-.34,4.45,17,17,0,0,1-1.41,4.79,8.65,8.65,0,0,1-3.38,3.89,10,10,0,0,1-5.47,1.52,12.22,12.22,0,0,1-4.65-.79,11.78,11.78,0,0,1-3.33-2,13,13,0,0,1-2.31-2.54,18,18,0,0,1-1.49-2.53,27.55,27.55,0,0,1-2.4-6.68q-.81-3.64-1.32-7a31.78,31.78,0,0,1-2.57,3.49,24.5,24.5,0,0,1-4.25,4A25.6,25.6,0,0,1,12.26,507a19.44,19.44,0,0,1-7.38,1.35A20.88,20.88,0,0,1-2.81,507,14.28,14.28,0,0,1-8,503.6a13.62,13.62,0,0,1-3-5.08,19.49,19.49,0,0,1-1-6.17,20.48,20.48,0,0,1,1.3-7,17.1,17.1,0,0,1,4.26-6.43A22,22,0,0,1,1.3,474.2a33.07,33.07,0,0,1,11.64-1.8,30.69,30.69,0,0,1,3.07.14c1,.09,1.9.2,2.71.31s1.5.22,2.08.34,1,.19,1.27.22c-.22-3.23-.51-6.46-.84-9.69-.15-1.36-.31-2.78-.48-4.29s-.35-3-.54-4.54-.39-3-.62-4.48-.47-2.83-.73-4.11a13.14,13.14,0,0,0-3.52-6.91,9.16,9.16,0,0,0-6.68-2.56,8.89,8.89,0,0,0-3.87.79,9.09,9.09,0,0,0-2.81,2,7.94,7.94,0,0,0-1.72,2.79,8.81,8.81,0,0,0-.57,3.07,4.59,4.59,0,0,0,.79,2.73,8.8,8.8,0,0,0,2,1.95,23.48,23.48,0,0,0,2.51,1.6,15.76,15.76,0,0,1,2.5,1.75,9,9,0,0,1,2,2.37,7,7,0,0,1,.79,3.47,5.6,5.6,0,0,1-1.89,4.42A6.7,6.7,0,0,1,3.7,465.46Zm18.82,11.45a9.37,9.37,0,0,0-1.38-.43c-.66-.17-1.44-.33-2.34-.5s-1.87-.31-2.9-.43a29,29,0,0,0-3.07-.17,17.75,17.75,0,0,0-5.56.85,12.25,12.25,0,0,0-4.42,2.51,11.59,11.59,0,0,0-2.93,4.17,14.5,14.5,0,0,0-1.07,5.78,11,11,0,0,0,1,4.93,8.43,8.43,0,0,0,2.54,3.07,9.55,9.55,0,0,0,3.44,1.58,15.9,15.9,0,0,0,3.69.45,16.56,16.56,0,0,0,5.47-.9,24.54,24.54,0,0,0,4.57-2.09,20.29,20.29,0,0,0,3.21-2.31,14.39,14.39,0,0,0,1.52-1.52c-.26-2.52-.51-4.81-.73-6.88-.12-.9-.22-1.78-.31-2.64S23,480.7,23,480s-.18-1.39-.26-1.92S22.56,477.13,22.52,476.91Z" transform="translate(99.52 -324.78)"/><path class="cls-2" d="M64.29,433.5q.45,0,.9,1.44a35.88,35.88,0,0,1,.91,3.75q.45,2.31.9,5.32c.3,2,.6,4.05.9,6.12l2,14.21a34.33,34.33,0,0,1,1-4.29,38,38,0,0,1,1.88-5A34.47,34.47,0,0,1,75.68,450a24.1,24.1,0,0,1,3.92-4.45,18.66,18.66,0,0,1,5-3.19,17.09,17.09,0,0,1,13.56.4,14.2,14.2,0,0,1,5.13,4.45,19.59,19.59,0,0,1,3,6.79,36.49,36.49,0,0,1,1,8.63,75.46,75.46,0,0,1-.48,8.48q-.48,4.26-1,8.37c-.36,2.75-.69,5.4-1,7.95a57.86,57.86,0,0,0-.48,7.16,15.16,15.16,0,0,0,.34,3.44,10.25,10.25,0,0,0,1,2.7,8.48,8.48,0,0,0,2,2.06l2.19,1.64a14.34,14.34,0,0,1,1.81,1.52,2.25,2.25,0,0,1,.76,1.61,1.39,1.39,0,0,1-.28.87,1.16,1.16,0,0,1-1,.37,4.27,4.27,0,0,1-2.23-.77c-.81-.5-1.8-1.14-3-1.91s-2.61-1.6-4.26-2.48a35.14,35.14,0,0,0-6-2.45,36.79,36.79,0,0,0-5.33-1.41,44.59,44.59,0,0,0-6.23-.68c-1.31-.11-2-.49-2-1.13s.43-1.07,1.3-1.07h2.19c.94,0,1.9,0,2.88-.11a6.41,6.41,0,0,0,3.72-1.38q1.47-1.22,2.2-4.48.22-1.31.45-3.3c.15-1.34.28-2.76.39-4.29s.21-3.07.28-4.65.12-3.08.12-4.51c0-1.27,0-2.75-.06-4.42s-.16-3.41-.36-5.21a42,42,0,0,0-1-5.3,17,17,0,0,0-1.89-4.63,10.36,10.36,0,0,0-3.16-3.29A8.27,8.27,0,0,0,84.47,450a8.12,8.12,0,0,0-4.31,1.18,12,12,0,0,0-3.47,3.3,21.08,21.08,0,0,0-2.59,5,33.62,33.62,0,0,0-1.63,6.31,57.69,57.69,0,0,0-.82,7.19q-.2,3.69-.2,7.36c0,2.06.08,4,.23,5.94s.35,3.65.62,5.24a34.12,34.12,0,0,0,1,4.26,10.8,10.8,0,0,0,1.3,2.93,8.05,8.05,0,0,0,2.31,2.2,10.7,10.7,0,0,0,2.09,1,9.56,9.56,0,0,1,1.6.6.77.77,0,0,1,.48.7c0,.23-.17.43-.53.62a4.07,4.07,0,0,1-1.78.28,18.93,18.93,0,0,1-2.59-.19l-2.93-.43c-1-.15-2.07-.29-3.16-.42a27.11,27.11,0,0,0-3.21-.2q-1.58,0-3.21.12l-3.13.22c-1,.08-1.91.15-2.74.23s-1.48.11-2,.11c-1.46,0-2.2-.47-2.2-1.41a1.16,1.16,0,0,1,.37-.87,2.15,2.15,0,0,1,1.32-.48l1.41-.12,1.27-.08,1.35-.08,1.67-.17A3.29,3.29,0,0,0,63.42,499a5.35,5.35,0,0,0,.65-2.84,64.43,64.43,0,0,0-.54-7.56q-.54-4.45-1.44-9.81t-2.17-11.36q-1.26-6-2.67-12.26a18.59,18.59,0,0,0-1.55-4.79,2.75,2.75,0,0,0-2.51-1.58,5.52,5.52,0,0,0-1.75.31c-.6.21-1.19.44-1.77.68L48,450.5a4.17,4.17,0,0,1-1.46.31q-1.08,0-1.08-.9a1.09,1.09,0,0,1,.6-1.05c.39-.2.81-.4,1.27-.59a35.33,35.33,0,0,0,3.41-1.58,28.49,28.49,0,0,0,4-2.59,27.67,27.67,0,0,0,3.72-3.5q1.64-1.86,2.82-3.43c.79-1.06,1.43-1.93,1.92-2.63S64,433.5,64.29,433.5Z" transform="translate(99.52 -324.78)"/><path class="cls-2" d="M168.52,437.67a14.41,14.41,0,0,1,5.19.88,11.88,11.88,0,0,1,3.94,2.39,10.49,10.49,0,0,1,2.51,3.55,10.92,10.92,0,0,1,.87,4.34q0,4.57-2.17,7.08a7.32,7.32,0,0,1-5.83,2.51,8.59,8.59,0,0,1-2.82-.45,6.29,6.29,0,0,1-2.25-1.36,6.64,6.64,0,0,1-1.53-2.19,7.44,7.44,0,0,1-.56-2.94,10.21,10.21,0,0,1,.48-3.24,8.91,8.91,0,0,0,.48-2.84,2.92,2.92,0,0,0-1.13-2.65,4.62,4.62,0,0,0-2.59-.74,7,7,0,0,0-3.86,1.3,10.25,10.25,0,0,0-3.19,3.44,14.22,14.22,0,0,0-.87,2,5.54,5.54,0,0,0-.37,1.83,1.53,1.53,0,0,0,.51,1,15.43,15.43,0,0,0,1.32,1.21l1.86,1.55a19.25,19.25,0,0,1,2.06,2,21.33,21.33,0,0,1,3.27,5,15.82,15.82,0,0,1,1.47,7,27.06,27.06,0,0,1-1,7.86A19.12,19.12,0,0,1,161.5,482a16.61,16.61,0,0,1-4.14,4.06,22.16,22.16,0,0,1-5.1,2.56,28.36,28.36,0,0,1-5.7,1.35,42.85,42.85,0,0,1-5.83.4h-2.2a13.7,13.7,0,0,0-5.95,2.31,5.24,5.24,0,0,0-2.28,4.4,4.1,4.1,0,0,0,1.13,2.93,9.14,9.14,0,0,0,3,2,21.22,21.22,0,0,0,4.36,1.3q2.49.48,5.16.84c1.79.25,3.57.48,5.36.71s3.44.48,5,.79a54.47,54.47,0,0,1,7.52,2.08,22.8,22.8,0,0,1,6.43,3.47,16.2,16.2,0,0,1,4.48,5.44,17.11,17.11,0,0,1,1.69,8,18.59,18.59,0,0,1-1.24,6.84,21.45,21.45,0,0,1-3.44,5.87,28.43,28.43,0,0,1-5.19,4.87,36.08,36.08,0,0,1-6.42,3.78,44.39,44.39,0,0,1-9.87,3.16,57.1,57.1,0,0,1-11.16,1.07A41.58,41.58,0,0,1,127,549a25,25,0,0,1-8.26-3.63,17.31,17.31,0,0,1-7.58-14.91,19.57,19.57,0,0,1,1.35-7.44,23.47,23.47,0,0,1,3.47-5.95,26.31,26.31,0,0,1,4.73-4.59,46.18,46.18,0,0,1,5.13-3.39,45.36,45.36,0,0,1,4.65-2.31q2.15-.9,3.33-1.35a24.79,24.79,0,0,1-4-.79,14.84,14.84,0,0,1-3.61-1.52,8.31,8.31,0,0,1-2.62-2.45,6.28,6.28,0,0,1-1-3.58,5.9,5.9,0,0,1,2.39-4.71,17.25,17.25,0,0,1,6.74-3,23.81,23.81,0,0,1-6-2.45,18.47,18.47,0,0,1-4.8-4,17.74,17.74,0,0,1-3.18-5.58,21.41,21.41,0,0,1-1.16-7.27,21.69,21.69,0,0,1,1.78-9,19.76,19.76,0,0,1,4.82-6.68,20.9,20.9,0,0,1,7.16-4.17,26.58,26.58,0,0,1,8.85-1.44,28,28,0,0,1,2.87.15q1.47.13,2.76.33c.87.14,1.67.25,2.4.34a13.49,13.49,0,0,0,1.78.14,6.08,6.08,0,0,0,2.34-.39,4,4,0,0,0,1.72-1.69c.75-1.21,1.57-2.41,2.48-3.61a17.87,17.87,0,0,1,3.15-3.24,14.66,14.66,0,0,1,4.2-2.31A16.2,16.2,0,0,1,168.52,437.67Zm-43.07,89.24a23.79,23.79,0,0,0,1.22,7.69,18,18,0,0,0,3.58,6.26,17,17,0,0,0,5.8,4.23,19.05,19.05,0,0,0,7.89,1.55,21.65,21.65,0,0,0,8.74-1.61,17.39,17.39,0,0,0,6-4.23,16.74,16.74,0,0,0,3.5-6,22.4,22.4,0,0,0,1.12-7.07,24,24,0,0,0-.9-6.68,17.31,17.31,0,0,0-7.55-10.09,24.26,24.26,0,0,0-7-3,42.64,42.64,0,0,0-5.07-1.1c-1.62-.25-3.09-.43-4.4-.54a35.46,35.46,0,0,0-4.26,3.07,26.46,26.46,0,0,0-4.22,4.46,23.91,23.91,0,0,0-3.22,5.83A19.94,19.94,0,0,0,125.45,526.91Zm17.7-74.69a10.09,10.09,0,0,0-4.25,1,10,10,0,0,0-3.78,3.27,18.8,18.8,0,0,0-2.7,5.95,32.93,32.93,0,0,0-1,9,25.72,25.72,0,0,0,.93,7.41,16.23,16.23,0,0,0,2.43,5.08,9.56,9.56,0,0,0,3.35,2.93,8.15,8.15,0,0,0,3.67.93,10.34,10.34,0,0,0,3.6-.76,9.56,9.56,0,0,0,3.84-2.9,18.25,18.25,0,0,0,3.07-5.92,31.65,31.65,0,0,0,1.27-9.81q0-8-2.79-12.06A8.74,8.74,0,0,0,143.15,452.22Z" transform="translate(99.52 -324.78)"/><path class="cls-2" d="M224.16,476.23a17.09,17.09,0,0,1,2.08,7.95,19,19,0,0,1-1.35,7.35A14.58,14.58,0,0,1,221,497a17.35,17.35,0,0,1-6.12,3.41,25.42,25.42,0,0,1-8,1.19,28.89,28.89,0,0,1-11.47-2.17,23.65,23.65,0,0,1-8.48-6.06,26.64,26.64,0,0,1-5.25-9.28,37,37,0,0,1-1.8-11.81,41.47,41.47,0,0,1,1.24-10.54,34.37,34.37,0,0,1,3.38-8.45,29.87,29.87,0,0,1,5-6.48,28.89,28.89,0,0,1,6-4.57,26.86,26.86,0,0,1,6.42-2.68,24.57,24.57,0,0,1,6.32-.87,25.77,25.77,0,0,1,6.2.79,17.06,17.06,0,0,1,5.89,2.7,15,15,0,0,1,4.4,5.05,16.21,16.21,0,0,1,1.72,7.86,19.75,19.75,0,0,1-1.22,7.22,18.16,18.16,0,0,1-3.18,5.35,17.81,17.81,0,0,1-4.48,3.72,27.32,27.32,0,0,1-5.13,2.34,27.94,27.94,0,0,1-5.13,1.21,33,33,0,0,1-4.43.34,36.53,36.53,0,0,1-5.38-.39,29.21,29.21,0,0,1-4.09-.85,38.41,38.41,0,0,0,1.38,8.49,23.92,23.92,0,0,0,3.3,7.18,16.6,16.6,0,0,0,5.33,5,14.53,14.53,0,0,0,7.47,1.86,12.06,12.06,0,0,0,5.16-1,10.09,10.09,0,0,0,3.57-2.74,11.27,11.27,0,0,0,2.09-4,16.39,16.39,0,0,0,.68-4.73,24.9,24.9,0,0,0-.2-3.05,13.74,13.74,0,0,0-.71-3c-.22-.56-.41-1.09-.56-1.57a4.27,4.27,0,0,1-.22-1.19c0-.75.33-1.13,1-1.13a2.19,2.19,0,0,1,1.21.51A5.15,5.15,0,0,1,224.16,476.23Zm-31.06-5.92a24.48,24.48,0,0,0,3.32.76,28.87,28.87,0,0,0,4.68.31,14.49,14.49,0,0,0,6-1.24,13.83,13.83,0,0,0,4.74-3.46,16.35,16.35,0,0,0,3.1-5.39,20.84,20.84,0,0,0,1.13-7,18.76,18.76,0,0,0-.77-5.78,10.39,10.39,0,0,0-2-3.75,6.88,6.88,0,0,0-2.84-2,9.34,9.34,0,0,0-3.3-.59,10.07,10.07,0,0,0-4.62,1.29,12.9,12.9,0,0,0-4.6,4.51,28.77,28.77,0,0,0-3.49,8.66A57,57,0,0,0,193.1,470.31Z" transform="translate(99.52 -324.78)"/><path class="cls-2" d="M279.68,391.68c.3,0,.5.27.59.81a13.2,13.2,0,0,1,.14,2.23c0,2.93,0,6.1-.08,9.5s-.12,6.95-.2,10.65-.16,7.5-.25,11.39-.2,7.77-.31,11.64q-.17,8.18-.34,16T279,468.14c-.08,4.34-.14,8.13-.2,11.36s-.08,5.64-.08,7.21a18.34,18.34,0,0,0,.45,4.46A9.27,9.27,0,0,0,280.3,494a5.15,5.15,0,0,0,1.72,1.67,13.77,13.77,0,0,0,4.79,1.66c.88.13,1.66.24,2.34.31a7.07,7.07,0,0,1,1.61.34.84.84,0,0,1,.59.84c0,.57-.4.93-1.21,1.08a14.14,14.14,0,0,1-2.57.22c-1.28,0-3-.1-5.3-.31s-4.84-.31-7.77-.31a41.1,41.1,0,0,0-4.29.23l-4.54.48c-1.59.16-3.34.32-5.24.47s-4.05.23-6.45.23a35.24,35.24,0,0,1-9.53-1.24,21.39,21.39,0,0,1-7.78-3.92,18.36,18.36,0,0,1-5.24-6.93,24.94,24.94,0,0,1-1.92-10.29,22.42,22.42,0,0,1,2-9.55,20.58,20.58,0,0,1,5.29-7.08,23.58,23.58,0,0,1,7.84-4.39,29.19,29.19,0,0,1,9.5-1.53,38.48,38.48,0,0,1,8.76.85,43.9,43.9,0,0,1,5.67,1.69q0-5.41-.11-11c-.08-3.74-.16-7.38-.26-10.94s-.19-6.9-.28-10.06-.19-5.93-.28-8.34-.18-4.36-.25-5.86-.12-2.37-.12-2.6c0-.56-.08-1.11-.14-1.66a7.42,7.42,0,0,0-.28-1.46,2.26,2.26,0,0,0-.59-1,1.52,1.52,0,0,0-1.07-.36,6.06,6.06,0,0,0-1.92.36c-.71.25-1.44.51-2.17.79s-1.46.55-2.17.79a6.1,6.1,0,0,1-1.92.37,2.38,2.38,0,0,1-.95-.2.79.79,0,0,1-.46-.82,1.46,1.46,0,0,1,.54-1.18,6.61,6.61,0,0,1,1.55-.9,13.33,13.33,0,0,1,1.69-.65q1-.31,2.34-.9t3.3-1.53c1.28-.62,2.8-1.45,4.56-2.51s3.19-1.95,4.37-2.81,2.16-1.62,2.93-2.26,1.38-1.14,1.81-1.52A1.8,1.8,0,0,1,279.68,391.68ZM269,485c0-1.66,0-3.45,0-5.39s0-3.9-.05-5.91-.06-4-.12-6-.1-3.87-.14-5.63a18.34,18.34,0,0,0-4.28-1.5,25.11,25.11,0,0,0-5.64-.59,15.94,15.94,0,0,0-6.65,1.3,13.32,13.32,0,0,0-4.85,3.66,16.33,16.33,0,0,0-3,5.69,25.7,25.7,0,0,0-1,7.44,30.79,30.79,0,0,0,1,8,17.83,17.83,0,0,0,2.84,6.12,12.7,12.7,0,0,0,4.77,3.91,15.17,15.17,0,0,0,6.71,1.38,12.08,12.08,0,0,0,5.38-1,8.44,8.44,0,0,0,3.24-2.62A8.86,8.86,0,0,0,268.6,490,30,30,0,0,0,269,485Z" transform="translate(99.52 -324.78)"/><path class="cls-2" d="M246.07,511.08a3.18,3.18,0,0,1,2.17.76,3.79,3.79,0,0,1,.87,2.9,26.53,26.53,0,0,1-.39,4c-.27,1.63-.57,3.28-.9,4.93s-.67,3.17-1,4.54-.54,2.32-.65,2.85l-.42,1.74c-.21.83-.47,1.75-.79,2.76s-.66,2.07-1,3.16-.72,2.09-1.1,3a17.27,17.27,0,0,1-1.09,2.23q-.54.87-1,.87a.56.56,0,0,1-.48-.28,2.5,2.5,0,0,1-.2-1.24c0-.64.06-1.53.17-2.68s.23-2.42.34-3.83.23-2.88.34-4.4.17-3,.17-4.31a14.77,14.77,0,0,0-.65-4.88,5.78,5.78,0,0,0-1.86-2.7,6.26,6.26,0,0,0-2.93-1.19,26.2,26.2,0,0,0-3.81-.25,57.54,57.54,0,0,0-6.11.36,43.25,43.25,0,0,0-6.34,1.16,4.61,4.61,0,0,0-3.25,2.14,9,9,0,0,0-.76,3.95q0,.39.06,3.15c0,1.85.09,4.21.17,7.11s.16,6.21.25,10,.2,7.62.31,11.64c1.05-.08,2.12-.18,3.22-.31a9.49,9.49,0,0,0,2.76-.71,6.45,6.45,0,0,0,2-1.32,7.67,7.67,0,0,0,1.32-1.75,11.14,11.14,0,0,0,.82-1.89,16.26,16.26,0,0,0,.48-1.75q.9-3.6,1.41-5.1c.34-1,.79-1.49,1.35-1.49s1.07.7,1.07,2.08a15.67,15.67,0,0,1-.22,2.43q-.22,1.41-.54,3.18c-.21,1.19-.38,2.49-.53,3.92a43.79,43.79,0,0,0-.23,4.57c0,1.46,0,3,.09,4.51s.12,3,.19,4.28.14,2.49.2,3.52.08,1.78.08,2.23a8.69,8.69,0,0,1-.36,2.88c-.25.64-.58,1-1,1s-.83-.34-1.13-1a12.24,12.24,0,0,1-.5-4c0-1.47-.13-2.81-.26-4a12.44,12.44,0,0,0-.73-3.21,6,6,0,0,0-4-3.75,11.25,11.25,0,0,0-2.46-.37c-1,0-2-.08-3-.08q.18,6,.37,12t.37,11.08q.17,5.1.34,8.94c.11,2.55.2,4.41.28,5.58a19.84,19.84,0,0,0,.67,4.36,7.49,7.49,0,0,0,1.36,2.68,5.32,5.32,0,0,0,2,1.52,18.06,18.06,0,0,0,2.59.91,9.82,9.82,0,0,0,1.13.28,6.4,6.4,0,0,1,1.21.34,3.54,3.54,0,0,1,1,.53,1.1,1.1,0,0,1,.08,1.61,1.87,1.87,0,0,1-.79.42,4.63,4.63,0,0,1-1,.17l-1,0a20,20,0,0,1-2.37-.2c-1-.13-2.18-.26-3.5-.39s-2.72-.27-4.22-.4-3-.2-4.57-.2c-1.39,0-2.72,0-4,.15s-2.59.2-3.95.33-2.76.25-4.23.34-3.06.14-4.79.14a14.31,14.31,0,0,1-2.53-.17,5.49,5.49,0,0,1-1.47-.42,1.5,1.5,0,0,1-.68-.59,1.54,1.54,0,0,1-.16-.68c0-.86.69-1.41,2.08-1.63.34,0,.88-.09,1.64-.14l2.5-.2c.93-.08,1.87-.18,2.85-.31a22.85,22.85,0,0,0,2.59-.48,13.68,13.68,0,0,0,2.37-.93,6.69,6.69,0,0,0,2.09-1.63,8,8,0,0,0,1.46-2.77,14.05,14.05,0,0,0,.57-4.36c0-3-.13-6.47-.37-10.38s-.56-8-1-12.2-.84-8.47-1.35-12.74-1-8.31-1.58-12.12-1.08-7.23-1.61-10.26-1-5.42-1.41-7.19a9.53,9.53,0,0,0-1.46-3.46,7.79,7.79,0,0,0-2.17-2.09,9.34,9.34,0,0,0-2.65-1.13c-1-.24-1.94-.44-3-.59a11.06,11.06,0,0,1-2.62-.73,1.52,1.52,0,0,1-1-1.47,1.28,1.28,0,0,1,.76-1.29,4.45,4.45,0,0,1,1.84-.34q4.78,0,12-.68a128,128,0,0,0,16.35-2.76q7.05-1.58,11.81-3c3.17-.94,5.83-1.74,8-2.42s3.89-1.21,5.27-1.61A13.66,13.66,0,0,1,246.07,511.08Z" transform="translate(99.52 -324.78)"/><path class="cls-2" d="M249.22,542.49a31.29,31.29,0,0,1,2-11.41,24.07,24.07,0,0,1,14.29-14.27,31.64,31.64,0,0,1,11.3-1.94,27.77,27.77,0,0,1,10.29,1.86,23.54,23.54,0,0,1,8.14,5.33,24.61,24.61,0,0,1,5.39,8.4,30.07,30.07,0,0,1,1.94,11.07,29.5,29.5,0,0,1-2.4,12.46A25.33,25.33,0,0,1,294,562.5a24.1,24.1,0,0,1-8.37,4.88,28.55,28.55,0,0,1-9.08,1.55,30.16,30.16,0,0,1-10.28-1.78,26,26,0,0,1-8.71-5.16,25.08,25.08,0,0,1-6.06-8.31A26.39,26.39,0,0,1,249.22,542.49ZM276,517.07a9.57,9.57,0,0,0-5.55,1.6,12.62,12.62,0,0,0-3.86,4.34,21.36,21.36,0,0,0-2.23,6.37,40.12,40.12,0,0,0-.7,7.64,58.45,58.45,0,0,0,.39,6.71,47.76,47.76,0,0,0,1.21,6.51,38.42,38.42,0,0,0,2,5.86,20.48,20.48,0,0,0,2.9,4.77,13,13,0,0,0,3.87,3.18,10.07,10.07,0,0,0,4.82,1.16,10.24,10.24,0,0,0,5.77-1.55,11.7,11.7,0,0,0,3.75-4.06,18.23,18.23,0,0,0,2-5.64,33.22,33.22,0,0,0,.59-6.28,71.27,71.27,0,0,0-1.12-13.53,34.54,34.54,0,0,0-3.16-9.56,15.47,15.47,0,0,0-4.76-5.66A10.39,10.39,0,0,0,276,517.07Z" transform="translate(99.52 -324.78)"/><path class="cls-2" d="M300,512.78c.53,0,1.12,0,1.78.06s1.42.06,2.28.06c1.43,0,3.24,0,5.44-.15a52.31,52.31,0,0,0,8-1.09q4.17-.86,7.33-1.84t5.44-1.88c1.52-.61,2.79-1.1,3.83-1.5a7.63,7.63,0,0,1,2.56-.59,1.21,1.21,0,0,1,.91.25.87.87,0,0,1,.22.6,1,1,0,0,1-.7.9,8.72,8.72,0,0,1-1.5.45c-.71.22-1.43.48-2.17.76a7.49,7.49,0,0,0-2,1.15,5.46,5.46,0,0,0-1.46,1.87,6.19,6.19,0,0,0-.57,2.81,20.06,20.06,0,0,0,.68,5.11c.45,1.71.9,3.2,1.35,4.48.23.67.59,1.66,1.1,3s1,2.59,1.61,3.89,1.08,2.42,1.55,3.38.8,1.43,1,1.43.3-.21.68-.64.82-1,1.33-1.64l1.66-2.14c.6-.77,1.16-1.5,1.69-2.2s1-1.3,1.35-1.8l.68-.93c.22-.42.49-.89.79-1.44a3.4,3.4,0,0,0,.45-1.66,2.74,2.74,0,0,0-.45-1.5,3.28,3.28,0,0,0-1.75-1.15,11.85,11.85,0,0,0-2.17-.54c-.7-.09-1.31-.2-1.83-.31-1-.22-1.52-.71-1.52-1.46a1.09,1.09,0,0,1,.36-.91,1.47,1.47,0,0,1,.88-.28,13.25,13.25,0,0,1,2,.2l2.73.42,3.27.48a29.64,29.64,0,0,0,3.55.31c.94.08,1.8.11,2.57.11h2.17c1.8,0,3.26,0,4.37-.16a27.86,27.86,0,0,1,3-.17,3.1,3.1,0,0,1,1.33.25.9.9,0,0,1,.53.87c0,1-1,1.53-2.87,1.64-1.32.07-2.48.17-3.5.28a17.42,17.42,0,0,0-2.76.51,15.06,15.06,0,0,0-3.78,1.8,18.79,18.79,0,0,0-4.28,4.12q-2.65,3.27-4.54,5.77c-1.26,1.68-2.17,3-2.73,3.92a7.4,7.4,0,0,0-.68,1.55,5.86,5.86,0,0,0-.23,1.67,6.79,6.79,0,0,0,.15,1.35c.09.49.19,1,.31,1.52.18.71.46,1.59.81,2.62s.75,2.13,1.19,3.3.88,2.34,1.35,3.52.91,2.28,1.32,3.27.77,1.87,1.08,2.62a14.44,14.44,0,0,0,.67,1.52,8.31,8.31,0,0,0,3.81,3.92,9.8,9.8,0,0,0,2.45.88c.86.18,1.75.35,2.65.5,2,.3,3.44.56,4.23.76s1.18.58,1.18,1.1-.42,1-1.27,1.22a16.29,16.29,0,0,1-3.58.31q-1,0-2.31-.06c-.86,0-1.82-.06-2.87-.06s-2.27,0-3.53.12a36.86,36.86,0,0,0-4,.45,23.73,23.73,0,0,0-4.31,1.1c-1.45.5-2.82,1-4.12,1.52s-2.46.95-3.49,1.32a7.74,7.74,0,0,1-2.51.57,1.82,1.82,0,0,1-1.55-.57,1.8,1.8,0,0,1-.42-1.07,1.69,1.69,0,0,1,.62-1.44,4.92,4.92,0,0,1,1.46-.76c.64-.18,1.4-.38,2.28-.59a26.06,26.06,0,0,0,2.54-.73,9.9,9.9,0,0,0,2.06-1,1.52,1.52,0,0,0,.84-1.27,7.71,7.71,0,0,0-.62-2.54c-.41-1.08-.88-2.18-1.41-3.29s-1-2.13-1.55-3a19.48,19.48,0,0,0-1-1.77,1.66,1.66,0,0,0-1.58-1,2.15,2.15,0,0,0-.76.17,2.82,2.82,0,0,0-.87.62c-.26.27-.66.74-1.19,1.41l-1.66,2.14-1.63,2.12q-.77,1-1.05,1.38l-.33.48c-.15.2-.3.43-.46.67a5.74,5.74,0,0,0-.36.68,1.2,1.2,0,0,0-.14.48c0,.19.11.32.34.39a4.41,4.41,0,0,0,.78.2,5.79,5.79,0,0,0,.91.11,5.36,5.36,0,0,1,.73.09,5.87,5.87,0,0,1,1.18.28.66.66,0,0,1,.45.68.71.71,0,0,1-.45.67,2.35,2.35,0,0,1-1.07.23c-.9,0-1.78,0-2.65-.11s-1.89-.12-3.1-.12a25.55,25.55,0,0,0-3.18.23c-1.19.15-2.36.31-3.53.48l-3.18.48a15.06,15.06,0,0,1-2.11.22,1.34,1.34,0,0,1-1-.31,1,1,0,0,1-.34-.76c0-.71.51-1.13,1.52-1.24a17.63,17.63,0,0,0,2-.28c.79-.15,1.63-.35,2.51-.59s1.74-.52,2.56-.82a9.58,9.58,0,0,0,2.15-1.07,28.44,28.44,0,0,0,2.84-2.23c1-.84,1.88-1.73,2.77-2.67s1.71-1.9,2.5-2.88a34.2,34.2,0,0,0,2-2.76,18.6,18.6,0,0,0,1.36-2.4,4.62,4.62,0,0,0,.5-1.77,4.84,4.84,0,0,0-.08-1,5.39,5.39,0,0,0-.37-1c-.34-.79-.81-1.81-1.41-3.07s-1.27-2.64-2-4.15-1.5-3.06-2.31-4.68l-2.31-4.62c-.73-1.46-1.42-2.81-2.06-4s-1.16-2.19-1.58-2.9a20.36,20.36,0,0,0-1.21-1.81,22.2,22.2,0,0,0-1.6-1.91,22.65,22.65,0,0,0-2-1.83,13.81,13.81,0,0,0-2.17-1.5,11.39,11.39,0,0,0-4.06-1.35,32.08,32.08,0,0,0-4.23-.28c-1.31,0-2-.42-2-1.24a1.29,1.29,0,0,1,.28-.82A1.31,1.31,0,0,1,300,512.78Z" transform="translate(99.52 -324.78)"/></svg>